<svg xmlns="http://www.w3.org/2000/svg" viewBox="0 0 1023.99 1024"><defs><style>.cls-1{fill:#fff;}</style></defs><title>Health_Icon</title><g id="Ebene_10" data-name="Ebene 10"><path class="cls-1" d="M755.15,378.15l-1-1.73c10.82-6.59,24.33-14.69,37.63-22.67,37.1-22.25,83.28-49.94,119.56-73.34a27.61,27.61,0,0,0,12.26-18.88c1.61-9.52-1.29-19.87-8-28.41a41.74,41.74,0,0,0-19.22-13.9L909.15,208A28.27,28.27,0,0,0,918.56,188c.48-9.67-3.45-19.73-10.77-27.6a39.74,39.74,0,0,0-25-12.85l1.44-1.87c10.15-13.62,6.25-34.29-8.87-47.08a38.27,38.27,0,0,0-24.48-9.46h0a28.33,28.33,0,0,0-23.06,11.18c-4.87,6.53-10.15,13.63-15.72,21.13a42.44,42.44,0,0,0-11-12.73A38.12,38.12,0,0,0,778,100.3c-10.12,0-18.91,4.63-24.12,12.7-23.32,36.15-51,82.26-73.25,119.32-10,16.58-20.11,33.49-27.32,45.19l8.32,8.32Z"/><path class="cls-1" d="M756.65,380.88c-.5-.91-1-1.83-1.5-2.74l-93.56-92.32Z"/><path class="cls-1" d="M653.27,277.51l0,.07,8.36,8.25Z"/><path class="cls-1" d="M571.73,304.77c15.9,0,33.67,4.71,51.72,13.66l2.9,2.87L672,366.95l43.89,43.89a144.76,144.76,0,0,1,8.88,22c5.47,17.83,6.2,34,2.16,47.91-4.28,14.82-13.89,27.13-29.37,37.64-12.9,8.61-25.67,17.6-38,26.29l-.23.16c-17.67,12.44-38.34,22.83-60.22,33.82-26.47,13.3-53.84,27.06-80.47,46.44-11.57,8.43-22.23,15.1-32.53,21.55-21.54,13.49-43.8,27.44-67.66,53.25-33.18,35.89-84.63,70.3-134.29,89.82l-.88.35c-21.28,8.36-45.39,17.83-67.71,33.14-16.93,11.61-29.16,25.95-40,38.6-7,8.22-13.63,16-19.33,20.19-2.63,1.94-4.28,2.62-6.15,2.83l-.16-.17c.12-1.77.71-5.68,3.31-12.43,3.53-9.17,9-19.07,13.81-27.82,5-9.11,9.37-17,12.15-24.69,15.83-43.89,55.87-86.1,88.05-120,34.26-36.11,46.59-55.48,67.55-93.16,12.68-18.35,25.08-37.14,37.07-55.32l.22-.34c5.55-8.42,11.84-18,18-27.14L497.36,363l.27-.41,0-.08,9.07-13.59,7.62-11.42c14.7-22,33.46-32.74,57.35-32.74m0-50c-40.73,0-74.94,19-98.95,55L455.92,335l-.15.23L348.53,496c-6.08,9.11-12.2,18.38-18.12,27.36-12.23,18.54-24.88,37.71-37.67,56.18-.27.4-.52.8-.76,1.22-20.12,36.24-29.93,51.84-61,84.54C195.64,702.56,151.6,749,132.21,802.73c-1.44,4-5.07,10.56-8.91,17.52-14.4,26.1-36.15,65.54-13.68,94.08,13.38,17,28.51,20.55,38.86,20.55,46.93,0,62.6-48,95.37-70.46,17.89-12.27,38.52-20.3,58.6-28.18,54.27-21.33,113.08-59.54,152.71-102.41,29.59-32,55.46-41.07,92.9-68.32,44.91-32.68,97-49.5,140-79.8,12.22-8.6,24.86-17.5,37.37-25.84,25.28-17.11,41.94-39.07,49.51-65.26,6.78-23.45,6-49.17-2.39-76.45a201,201,0,0,0-15.93-37.27l-95.06-95.06-8.36-8.25c-27.29-14.88-55.23-22.81-81.5-22.81Z"/></g></svg>