<svg xmlns="http://www.w3.org/2000/svg" viewBox="0 0 1023.99 1024"><defs><style>.cls-1{fill:#fff;}.cls-2{fill:none;stroke:#fff;stroke-linecap:round;stroke-linejoin:round;stroke-width:15px;}</style></defs><title>Zeichenfläche 1 Kopie 20</title><g id="Ebene_10" data-name="Ebene 10"><path class="cls-1" d="M711.55,241.22C727.47,222,769,169.88,804.12,125.66c5.87-10.32,9.41-16.77,9.52-16.95a16.56,16.56,0,0,0-14.14-25.1A15.85,15.85,0,0,0,786,91c-28.26,44.62-63.74,104.55-86.67,142.71a18.66,18.66,0,0,1,9.79,5.17Z"/><path class="cls-1" d="M756.33,232.14c8.66-8,18.75-17.25,30.53-28.06,16.78-15.39,37.29-34.42,56.09-51.94,25.25-31,48.56-59.5,48.79-59.79a16.54,16.54,0,0,0-13.14-26.53,15.82,15.82,0,0,0-12.43,5.94c-14.1,17.67-31.6,39.69-49.62,62.36C806,152.7,790,179.9,773,206.35,766.83,215.88,761.32,224.43,756.33,232.14Z"/><path class="cls-1" d="M724.27,253.94c4.22-6.45,9.15-14,14.9-22.9-7,8.74-12.87,15.89-17,20.82Z"/><path class="cls-1" d="M733.9,252.91c6.13-5.72,13.52-12.56,22.43-20.77,5-7.71,10.51-16.26,16.65-25.79,17.05-26.45,33-53.66,43.58-72.23-11.24,14.13-22.68,28.51-33.63,42.26-5.2,8.5-10.66,17.24-16.25,25.91C752.9,223.65,742.23,240.14,733.9,252.91Z"/><path class="cls-1" d="M728.39,258.06l5.51-5.15c8.33-12.78,19-29.26,32.77-50.62,5.59-8.67,11.05-17.41,16.25-25.91-16.49,20.69-31.86,39.92-43.76,54.66-5.75,8.88-10.68,16.45-14.9,22.9Z"/><path class="cls-1" d="M765.35,295a18.74,18.74,0,0,1,5.4,11.35c37.31-23.72,98-61.68,143-91.78a16.1,16.1,0,0,0,4.13-22.51,16.6,16.6,0,0,0-13.72-7.32,15.85,15.85,0,0,0-8.85,2.68c-.33.22-23.07,13.35-51.83,31.6-30.71,27.81-61.32,55.61-80.68,73.45Z"/><path class="cls-1" d="M798.66,230.53l.34-.23c22.85-15.55,46.19-30.18,63.88-40.94,17.93-16.23,35.08-31.74,49.31-44.66a16.2,16.2,0,0,0,.84-22.92,16.56,16.56,0,0,0-12.26-5.45,15.84,15.84,0,0,0-10.69,4.1L882,128c-32.67,40-52.22,64.11-63.29,77.79C811.27,215,804.63,223.18,798.66,230.53Z"/><path class="cls-1" d="M736.27,263l-1.16,1.77,5.48,5.48q6.3-4.36,14.14-9.74c9.9-11.92,24.87-30.28,47.9-58.73l-9.69,8.91C766.23,235.21,748.34,251.73,736.27,263Z"/><path class="cls-1" d="M735.12,264.79l1.16-1.77-1.51,1.41Z"/><path class="cls-1" d="M776.94,245.34l21.73-14.81c6-7.35,12.61-15.55,20-24.72C829.75,192.13,849.31,168,882,128c-8.8,8.23-23.84,22.29-40.42,37.72-13,16-22.28,27.42-28.7,35.36C798,219.46,786.27,233.91,776.94,245.34Z"/><path class="cls-1" d="M776.94,245.34c9.33-11.43,21.07-25.89,35.92-44.25,6.42-7.93,15.69-19.37,28.7-35.36-12.77,11.88-26.45,24.57-38.92,36.06-23,28.45-38,46.81-47.9,58.73C761.24,256.06,768.61,251,776.94,245.34Z"/><path class="cls-1" d="M754.45,284.12l2,2c10-9.19,22.88-21,37.31-34.11-11.11,7.58-20.63,14.09-28.79,19.69C760.64,276.92,757.21,281,754.45,284.12Z"/><path class="cls-1" d="M754.45,284.12c2.76-3.16,6.19-7.2,10.53-12.41-5,3.45-9.53,6.56-13.58,9.35Z"/><path class="cls-1" d="M798.66,230.53c-6.23,7.68-11.72,14.44-16.57,20.37l21.13-14.41c9.43-6.42,18.94-12.68,28.11-18.58l31.55-28.57c-17.69,10.77-41,25.39-63.88,40.94Z"/><path class="cls-1" d="M754.74,260.53q-7.86,5.39-14.14,9.74l3.22,3.22C746.54,270.33,750.07,266.14,754.74,260.53Z"/><path class="cls-1" d="M782.09,250.91c4.85-5.94,10.34-12.69,16.57-20.37l-21.73,14.81c-6.94,8.5-12.55,15.32-17.12,20.81C766.34,261.67,773.73,256.62,782.09,250.91Z"/><path class="cls-1" d="M746,275.67c4.11-2.84,8.7-6,13.81-9.52,4.57-5.49,10.18-12.31,17.12-20.81-8.33,5.68-15.69,10.72-22.2,15.19-4.66,5.62-8.2,9.8-10.92,13Z"/><path class="cls-1" d="M782.09,250.91c-6.92,8.48-12.53,15.3-17.12,20.8,8.16-5.6,17.68-12.11,28.79-19.69,11.78-10.71,24.56-22.31,37.57-34.1-9.17,5.9-18.68,12.16-28.11,18.58Z"/><path class="cls-1" d="M749.12,278.79l2.28,2.28c4-2.8,8.56-5.9,13.58-9.35,4.59-5.51,10.2-12.33,17.12-20.8-8.37,5.71-15.76,10.77-22.28,15.25C755.34,271.53,751.86,275.63,749.12,278.79Z"/><path class="cls-1" d="M759.81,266.15c-5.11,3.51-9.7,6.67-13.81,9.52l3.12,3.12C751.86,275.63,755.34,271.53,759.81,266.15Z"/><path class="cls-1" d="M310,774.16q5.72-2.84,11.4-5.69l.53-.27.48-.35c9-6.48,18.13-13,27-19.31,27.56-19.65,56.05-40,83.26-61.71l.39-.31.35-.36c2.72-2.84,5.35-5.62,7.92-8.34-26.2,20.83-53.34,42-82.61,60.45C341.79,748.93,325.66,761.33,310,774.16Z"/><path class="cls-1" d="M259.55,663.26c-43.42,28.59-80.47,68.88-98.91,108.31-2,4.25-5.93,10.46-10.5,17.65-15.69,24.7-37.17,58.53-21.9,79.36,6.46,8.82,15.16,13.48,25.16,13.48a38.54,38.54,0,0,0,10.49-1.56l12.16-13.68c-14.55,8.82-30.5,12.69-41.76-2.67-16.23-22.13,24.2-70.29,33.14-89.4,12.31-26.33,32-51.25,54.77-72.54a7.5,7.5,0,0,1,4.78-4.37A314.38,314.38,0,0,1,263,669.94,17.83,17.83,0,0,1,259.55,663.26Z"/><path class="cls-1" d="M619.91,240.81c-27.68,0-67.89,9.86-102.34,56.85L386.26,476.81q-9.59,13.08-19.11,26.22c-13,17.88-26.43,36.36-39.93,54.27l-.33.48a105.27,105.27,0,0,0-8.12,15.53,13.76,13.76,0,0,1,7.66,1.22,96.23,96.23,0,0,1,6.79-12.72c13.22-17.53,26.14-35.29,39.05-53.06l-.14-.15A7.5,7.5,0,0,1,381,496.74q5.65-7.76,11.31-15.5l109-148.66-.82-.82a7.5,7.5,0,0,1,9.73-11.34l13.43-18.32c41.37-56.43,96.8-63.42,143.19-44,1.05-1.61,2.42-3.78,4-6.4A129.76,129.76,0,0,0,619.91,240.81Z"/><path class="cls-1" d="M195.75,861.81,165.87,879.9C176.59,876.37,187,869,195.75,861.81Z"/><path class="cls-1" d="M671.58,260.2a18.48,18.48,0,0,1,.63-7.92l-1.35-.59c-1.62,2.62-3,4.79-4,6.4Q669.21,259.11,671.58,260.2Z"/><path class="cls-1" d="M224.2,811.72l8.09-9.49a148.32,148.32,0,0,0-33.88,37.28l-.73.66c-10.35,9.4-29.61,26.89-44.27,26.89-5.24,0-9.39-2.33-13.07-7.34-9.22-12.57,10.61-43.8,22.46-62.45,4.84-7.62,9-14.21,11.42-19.33,10.76-23,28.35-46.36,50-67.26l-.3-.3a7.5,7.5,0,0,1-1.71-8.17c-22.76,21.29-42.46,46.21-54.77,72.54-8.94,19.11-49.37,67.27-33.14,89.4,11.26,15.36,27.21,11.49,41.76,2.67l19.67-22.14C205.5,833.68,215,822.52,224.2,811.72Z"/><path class="cls-1" d="M386.54,501.89q5.9-8.11,11.82-16.21L506.65,337.94l-5.37-5.37-109,148.66Q386.64,489,381,496.74a7.52,7.52,0,0,1,1.82,1.37Z"/><path class="cls-1" d="M265.86,672.39a13.06,13.06,0,0,1-2.82-2.44A314.38,314.38,0,0,0,227,697.84a7.5,7.5,0,0,1,7.42,1.82l.88.86A303.38,303.38,0,0,1,261.64,680Q263.6,676.1,265.86,672.39Z"/><path class="cls-1" d="M372.26,508.76c-12.91,17.77-25.83,35.53-39.05,53.06a96.23,96.23,0,0,0-6.79,12.72,11.37,11.37,0,0,1,5.76,5.61,91.84,91.84,0,0,1,7.2-14.05c12.94-17.17,25.77-34.79,38.21-51.92Z"/><path class="cls-1" d="M515.62,325.7l14.05-19.17c24.32-33.18,55.52-50.72,90.24-50.72a113.94,113.94,0,0,1,42.36,8.55,29.8,29.8,0,0,1,3-4c.39-.54.91-1.32,1.55-2.29-46.39-19.43-101.82-12.44-143.19,44L510.2,320.41a7.5,7.5,0,0,1,.87.74Z"/><path class="cls-1" d="M676.91,271.08c-.19-.19-.36-.39-.53-.59l-.32.37,1.4.77Z"/><path class="cls-1" d="M662.27,264.36q3.52,1.42,7,3.05a22.27,22.27,0,0,1,1.81-2.26c.32-.43.72-1,1.2-1.72a18.83,18.83,0,0,1-.69-3.22q-2.37-1.1-4.77-2.1c-.63,1-1.16,1.75-1.55,2.29A29.8,29.8,0,0,0,662.27,264.36Z"/><path class="cls-1" d="M676.38,270.49a18.64,18.64,0,0,1-4.1-7.06c-.47.71-.88,1.29-1.2,1.72a22.27,22.27,0,0,0-1.81,2.26q3.42,1.61,6.79,3.44Z"/><path class="cls-1" d="M731.39,377.55c-8.53,34.5-34.1,67.88-78.18,102.06C634,494.5,613.1,508.2,592.05,520.93l18.5,18.5c17.72-12.47,35-25.65,52-38.65,11.91-9.09,24.22-18.49,36.39-27.41,23.1-17.12,38.41-37.36,45.46-60.16,6.21-20.06,5.74-42-1.35-63.5-.63-1.89-1.31-3.78-2-5.65a30.6,30.6,0,0,1-6.66,2.56A105.5,105.5,0,0,1,731.39,377.55Z"/><path class="cls-1" d="M534.25,584.54c22.11-10.05,43.25-22.65,63.74-36.45l-19.23-19.23c-15.29,9-30.48,17.46-44.93,25.54-19.08,10.66-37.1,20.73-51.3,29.74-25.27,16-44.82,39.41-63.73,62C399.22,669.55,379,693.76,352,710.77c-28.83,18.17-52.4,39.63-74.31,62.91,7.78-4.08,15.64-8,23.45-11.85l.7-.35c15.62-12.76,31.78-25.11,48.86-35.89,28.31-17.87,54.82-38.47,80.44-58.83l5-5.31C465.8,629.91,489.23,605,534.25,584.54Z"/><path class="cls-1" d="M733.19,327.35l-.09-.08-2-2c.52,2.07,1,4.15,1.39,6.22a15.26,15.26,0,0,0,2.31-1.14Q734,328.85,733.19,327.35Z"/><path class="cls-1" d="M733.71,339q.47,3.81.67,7.61a30.6,30.6,0,0,0,6.66-2.56q-1.35-3.51-2.92-7A23,23,0,0,1,733.71,339Z"/><path class="cls-1" d="M734.82,330.36a15.26,15.26,0,0,1-2.31,1.14q.73,3.76,1.19,7.51a23,23,0,0,0,4.4-1.91Q736.56,333.7,734.82,330.36Z"/><path class="cls-1" d="M515.17,602.78a223,223,0,0,0-35.87,26C491,619.93,502.88,611.17,515.17,602.78Z"/><path class="cls-1" d="M248.91,805.88c8.51-7,17-14.22,25.71-21.6l1.56-1.32c-4.86,2.62-9.67,5.32-14.38,8.14Q255.32,798.41,248.91,805.88Z"/><path class="cls-1" d="M567.56,570.14c10.39-6.18,21.45-12.76,32.78-19.72L598,548.09c-20.49,13.8-41.63,26.4-63.74,36.45-45,20.47-68.46,45.38-98.13,76.91l-5,5.31,9.56-7.61c12.63-10.06,25.45-20.27,38.61-30.31a223,223,0,0,1,35.87-26q6.27-4.28,12.67-8.43C539.21,587,553,578.82,567.56,570.14Z"/><path class="cls-1" d="M752.88,369.46l0-.18a94.31,94.31,0,0,0-7.74-27.8,30.37,30.37,0,0,1-4.08,2.58c.72,1.87,1.41,3.75,2,5.65,7.09,21.48,7.56,43.44,1.35,63.5-7.05,22.79-22.36,43-45.46,60.16-12.16,8.92-24.48,18.32-36.39,27.41-17,13-34.3,26.18-52,38.65l2.83,2.83,0,0c28.29-17.81,57.41-37.84,81.66-59.81C738.27,443.35,757.18,406.38,752.88,369.46Z"/><path class="cls-1" d="M277.67,773.68q-8.06,8.56-15.87,17.42c4.71-2.82,9.52-5.52,14.38-8.14,8.42-7.16,16.95-14.38,25.64-21.49l-.7.35C293.31,765.7,285.44,769.6,277.67,773.68Z"/><path class="cls-1" d="M735.95,329.61a19,19,0,0,1-2.76-2.26q.83,1.5,1.63,3Q735.4,330,735.95,329.61Z"/><path class="cls-1" d="M741,344.07a30.37,30.37,0,0,0,4.08-2.58q-1.57-3.49-3.42-6.88a22.6,22.6,0,0,1-3.59,2.5Q739.68,340.56,741,344.07Z"/><path class="cls-1" d="M734.82,330.36q1.75,3.34,3.29,6.75a22.6,22.6,0,0,0,3.59-2.5c-.55-1-1.11-2-1.69-3a18.58,18.58,0,0,1-4.05-2Q735.4,330,734.82,330.36Z"/><path class="cls-1" d="M280.41,789.21c-21.07,17.91-42,35.75-64.28,50.92-1.93,2.63-3.79,5.34-5.53,8.16l-.56.91-2.28,2.07c-3.44,3.12-7.51,6.81-12,10.54l9.47-5.73c28.12-17,54-39.06,79.12-60.36,8.44-7.17,17-14.43,25.68-21.56l-2.24,1.11C298.64,779.79,289.43,784.36,280.41,789.21Z"/><path class="cls-1" d="M162.77,881.78l3.1-1.88q-1,.32-2,.6Z"/><path class="cls-1" d="M757.31,345c17.5,53-.53,104.19-49.45,140.43-12.08,8.85-24.33,18.21-36.18,27.25-41.13,31.4-83.66,63.87-131.22,85.49-7.73,3.52-14.76,7.15-21.28,10.93-12,8.22-23.71,16.79-35.17,25.53-12.39,11-23.88,23.16-37,37.07l-5.75,6.1,8.74-7c27.33-21.77,55.59-44.29,86-63.92,11.13-7.19,24.78-15.32,39.24-23.92,40.52-24.11,90.95-54.12,129.92-89.43C751.44,451.66,772,411.11,768,369.74a11.45,11.45,0,0,0-.29-2.67,109.67,109.67,0,0,0-10.13-34.41l-3.91,2.57Q755.66,340,757.31,345Z"/><path class="cls-1" d="M752.23,331.86q.74,1.67,1.44,3.37l3.91-2.57q-.64-1.34-1.32-2.66A18.54,18.54,0,0,1,752.23,331.86Z"/><path class="cls-1" d="M726.93,347.57a30.09,30.09,0,0,1-7.52-1A91.3,91.3,0,0,1,716.83,374c-13.37,54.1-74.9,99.46-135.72,136l5.48,5.48C658.58,472.07,730.06,417.09,726.93,347.57Z"/><path class="cls-1" d="M348,704.43c52-32.78,78-93.33,130.53-126.63,24.55-15.58,59.16-33.6,94.77-54.43l-5.49-5.49c-14.21,8.29-28.17,16.1-41.27,23.42-19.27,10.77-37.46,20.93-52,30.17-27.24,17.28-47.55,41.57-67.2,65.06S369,682.33,344,698.08c-46,29-78.54,65.36-111.69,104.15a229.62,229.62,0,0,1,24.67-17C283.57,755.28,311.66,727.32,348,704.43Z"/><path class="cls-1" d="M714,318.21l-.79-.39a108.2,108.2,0,0,1,3.32,10.59,14.79,14.79,0,0,0,8.55,4,110.86,110.86,0,0,0-3.14-12.15A24.08,24.08,0,0,1,714,318.21Z"/><path class="cls-1" d="M726.31,340a22.59,22.59,0,0,1-7.74-1.59q.6,4.08.84,8.14a30.09,30.09,0,0,0,7.52,1C726.82,345.08,726.62,342.57,726.31,340Z"/><path class="cls-1" d="M718.73,330.15a15.23,15.23,0,0,1-2.19-1.74,97.7,97.7,0,0,1,2,10,22.59,22.59,0,0,0,7.74,1.59c-.31-2.51-.72-5-1.22-7.6A15.14,15.14,0,0,1,718.73,330.15Z"/><path class="cls-1" d="M714,318.21a24.08,24.08,0,0,0,7.94,2.08c-.5-1.58-1-3.17-1.62-4.77a19.66,19.66,0,0,1-4.44-1.4,20.08,20.08,0,0,1-3.26-1.88,15.05,15.05,0,0,0-.63,2.38q.65,1.61,1.24,3.21Z"/><path class="cls-1" d="M703.92,298.09l.61,1.1c0-.18,0-.37-.06-.55Z"/><path class="cls-1" d="M711.76,311.61A19.74,19.74,0,0,1,710,310q1,2.31,2,4.6a15.05,15.05,0,0,1,.63-2.37C712.33,312,712,311.83,711.76,311.61Z"/><path class="cls-1" d="M714.46,308.63l-.32.49a15.17,15.17,0,0,0-1.52,3.13,20.08,20.08,0,0,0,3.26,1.88,19.66,19.66,0,0,0,4.44,1.4c-.2-.55-.42-1.11-.63-1.66Z"/><path class="cls-1" d="M709.09,303.25l-.61-.61c-.5.49-1,.89-1.41,1.26l.67,1.33.09-.16A21,21,0,0,1,709.09,303.25Z"/><path class="cls-1" d="M708.47,302.64l-4-4c0,.18,0,.37.06.55q1.32,2.36,2.53,4.71C707.51,303.54,708,303.13,708.47,302.64Z"/><path class="cls-1" d="M711.76,311.61c.28.22.57.43.86.64a15.17,15.17,0,0,1,1.52-3.13l.32-.49-5.37-5.37a21,21,0,0,0-1.26,1.81l-.09.16q1.2,2.4,2.28,4.79A19.74,19.74,0,0,0,711.76,311.61Z"/><path class="cls-1" d="M484,634.65c-16.18,12.35-32,25-47.81,37.63-2.68,2.84-5.41,5.72-8.25,8.69C392.23,709.52,355,735.06,318,761.77q-6,3-12.14,6.06c-8.58,7-17,14.21-25.48,21.38,9-4.85,18.24-9.42,27.37-13.94l2.24-1.11c15.65-12.83,31.78-25.22,48.67-35.89,29.27-18.48,56.41-39.62,82.61-60.45l5.75-6.1C460.14,657.81,471.63,645.6,484,634.65Z"/><path class="cls-1" d="M760.33,368.6h0c8.63,74.16-71.45,135.3-145.2,181.49a7.47,7.47,0,0,1-7.06,5,7.59,7.59,0,0,1-.87-.06c-28.42,17.52-55.38,32.78-75.29,45.65q-6.44,4.16-12.73,8.47c6.52-3.78,13.54-7.42,21.28-10.93C588,576.57,630.55,544.1,671.68,512.7c11.85-9,24.11-18.4,36.18-27.25C756.79,449.2,774.81,398,757.31,345q-1.64-5-3.65-9.79l-2.39,1.6A102,102,0,0,1,760.33,368.6Z"/><path class="cls-1" d="M210,849.21l.56-.91c1.74-2.83,3.59-5.54,5.53-8.16q-7.3,5-14.8,9.53c12.5-14.07,24.35-28.15,36.16-42-12.83,10.15-24.25,22-33.27,36.68-6.78,6.14-17.07,15.74-28.17,22.46L163.9,880.5q1-.28,2-.6l29.88-18.09c4.51-3.72,8.58-7.42,12-10.54Z"/><path class="cls-1" d="M751.27,336.82l2.39-1.6q-.7-1.69-1.44-3.37a18.71,18.71,0,0,1-3.07.7Q750.26,334.66,751.27,336.82Z"/><path class="cls-1" d="M305.89,767.83q6.1-3,12.14-6.06c37-26.71,74.2-52.25,109.94-80.8,2.83-3,5.57-5.85,8.25-8.69-26.24,20.86-52.69,41.43-81.53,59.64C337.63,742.69,321.56,755,305.89,767.83Z"/><path class="cls-1" d="M237.49,807.68c6.46-7.57,12.92-15.06,19.46-22.43a229.62,229.62,0,0,0-24.67,17l-8.09,9.49c-9.19,10.8-18.7,22-28.47,33l-19.67,22.14c11.1-6.72,21.38-16.32,28.17-22.46C213.24,829.71,224.66,817.84,237.49,807.68Z"/><path class="cls-1" d="M216.13,840.13c22.28-15.17,43.21-33,64.28-50.92C255.82,802.42,232.62,817.75,216.13,840.13Z"/><path class="cls-1" d="M519.19,609.12A215.6,215.6,0,0,0,484,634.65C495.48,625.91,507.14,617.35,519.19,609.12Z"/><path class="cls-1" d="M653.21,479.62c44.08-34.18,69.65-67.57,78.18-102.06a105.5,105.5,0,0,0,3-30.93,30.11,30.11,0,0,1-7.44.95h0c3.13,69.52-68.35,124.5-140.34,167.9l5.46,5.46C613.1,508.2,634,494.5,653.21,479.62Z"/><path class="cls-1" d="M301.82,761.48q6.18-3.06,12.3-6.13c8.86-6.39,17.85-12.81,26.56-19,27.26-19.44,55.45-39.54,82.22-60.9,2.83-3,5.56-5.84,8.23-8.68-25.63,20.36-52.14,41-80.44,58.83C333.6,736.37,317.43,748.72,301.82,761.48Z"/><path class="cls-1" d="M352,710.77c27-17,47.25-41.22,66.83-64.63,18.91-22.61,38.46-46,63.73-62,14.2-9,32.22-19.08,51.3-29.74,14.46-8.08,29.64-16.56,44.93-25.54l-5.49-5.49c-35.61,20.83-70.21,38.85-94.77,54.43C426,611.1,400,671.64,348,704.43c-36.32,22.89-64.41,50.85-91,80.83,6.77-4.08,13.7-7.9,20.71-11.58C299.58,750.41,323.14,728.95,352,710.77Z"/><path class="cls-1" d="M726.12,320.29c-.69.06-1.39.1-2.09.1s-1.39,0-2.08-.1a110.86,110.86,0,0,1,3.14,12.15,14.95,14.95,0,0,0,7.42-.95c-.4-2.07-.87-4.14-1.39-6.22Z"/><path class="cls-1" d="M734.38,346.62q-.2-3.8-.67-7.61a22.7,22.7,0,0,1-6.77,1.05l-.62,0c.31,2.53.5,5,.62,7.52h0A30.11,30.11,0,0,0,734.38,346.62Z"/><path class="cls-1" d="M733.71,339q-.46-3.75-1.19-7.51a14.95,14.95,0,0,1-7.42.95c.5,2.55.92,5.08,1.22,7.6l.62,0A22.7,22.7,0,0,0,733.71,339Z"/><path class="cls-1" d="M720.32,315.52c.58,1.6,1.12,3.19,1.62,4.77.69.06,1.38.1,2.08.1s1.4,0,2.09-.1l-4.57-4.57C721.14,315.67,720.73,315.6,720.32,315.52Z"/><path class="cls-1" d="M719.69,313.86c.21.55.43,1.11.63,1.66.41.08.82.15,1.23.2Z"/><path class="cls-1" d="M760.33,368.6c.43,3.68,0-.28,0,0Z"/><path class="cls-1" d="M607.21,555a7.46,7.46,0,0,1-3.76-1.54c-21.17,14.33-43,27.41-66.1,37.9a247.48,247.48,0,0,0-22.19,11.42c-12.29,8.39-24.21,17.14-35.87,26-14.46,12.75-27.61,27.06-43.09,43.46C452.06,659.69,467.84,647,484,634.65a215.6,215.6,0,0,1,35.17-25.53q6.3-4.3,12.73-8.47C551.83,587.78,578.79,572.53,607.21,555Z"/><path class="cls-1" d="M274.62,784.29c-8.68,7.38-17.19,14.61-25.71,21.6q6.42-7.47,12.88-14.78a225.85,225.85,0,0,0-24.3,16.58c-11.81,13.83-23.66,27.91-36.16,42q7.51-4.55,14.8-9.53c16.49-22.38,39.69-37.71,64.28-50.92,8.44-7.17,16.9-14.35,25.48-21.38C296,772.76,286,777.7,276.18,783Z"/><path class="cls-1" d="M747.35,339.64c18.24,45.46,10.8,99.22-44,139.78-29.17,21.38-58.06,44.68-88.17,65.9a7.52,7.52,0,0,1-.1,4.76C688.88,503.9,769,442.76,760.33,368.6a102,102,0,0,0-9.06-31.77c-1.6,1.08-2.83,1.94-3.59,2.51Z"/><path class="cls-1" d="M744.32,332.65q1.62,3.46,3,7l.33-.3c.76-.58,2-1.43,3.59-2.51q-1-2.16-2.12-4.27a17.49,17.49,0,0,1-4.83.09Z"/><path class="cls-1" d="M479.3,628.82c-13.16,10-26,20.25-38.61,30.31l-9.56,7.61c-2.67,2.83-5.41,5.72-8.23,8.68-26.77,21.36-55,41.46-82.22,60.9-8.7,6.21-17.7,12.62-26.56,19q-6.11,3.08-12.3,6.13c-8.69,7.1-17.22,14.33-25.64,21.49,9.78-5.27,19.78-10.21,29.71-15.13,15.67-12.83,31.74-25.14,48.79-35.91,28.84-18.21,55.28-38.78,81.53-59.64C451.69,655.88,464.84,641.57,479.3,628.82Z"/><path class="cls-1" d="M277.67,773.68c-7,3.67-13.94,7.5-20.71,11.58-6.54,7.37-13,14.86-19.46,22.43a225.85,225.85,0,0,1,24.3-16.58Q269.63,782.25,277.67,773.68Z"/><path class="cls-1" d="M600.33,550.42c-11.33,7-22.39,13.53-32.78,19.72C553,578.82,539.21,587,527.84,594.35q-6.4,4.14-12.67,8.43a247.48,247.48,0,0,1,22.19-11.42c23.07-10.49,44.93-23.57,66.1-37.9a7.8,7.8,0,0,1-.68-.6Z"/><path class="cls-1" d="M752.86,369.29l0,.18c4.3,36.92-14.61,73.89-57.81,113-24.25,22-53.36,42-81.66,59.81a7.46,7.46,0,0,1,1.81,3c30.11-21.22,59-44.51,88.17-65.9,54.76-40.57,62.2-94.32,44-139.78q-1.08,1-2.24,1.85A94.31,94.31,0,0,1,752.86,369.29Z"/><path class="cls-1" d="M742.79,333.65c-.35.34-.72.65-1.09,1q1.85,3.39,3.42,6.88,1.16-.87,2.24-1.85-1.42-3.53-3-7l-.16,0C743.61,333,743.14,333.37,742.79,333.65Z"/><path class="cls-1" d="M742.79,333.65c.36-.28.83-.62,1.38-1a18.76,18.76,0,0,1-4.17-1c.58,1,1.15,2,1.69,3C742.06,334.29,742.44,334,742.79,333.65Z"/><path class="cls-1" d="M567.23,395.42a7.5,7.5,0,0,0,5.3-12.8L515.62,325.7l-4.49,6.12,56.1,56.1-56.1-56.1-4.49,6.12,55.28,55.28A7.48,7.48,0,0,0,567.23,395.42Z"/><path class="cls-1" d="M505.77,326.45h0l4.43-6a7.5,7.5,0,0,0-9.73,11.34l.82.82,4.49-6.12Z"/><path class="cls-1" d="M511.13,331.82l-5.37-5.37-4.49,6.12,5.37,5.37Z"/><path class="cls-1" d="M511.13,331.82l4.49-6.12-4.55-4.55a7.5,7.5,0,0,0-.87-.74l-4.43,6Z"/><path class="cls-1" d="M546.61,486.09l27.86,27.86q3.32-2,6.64-4l-29.2-29.2a7.5,7.5,0,0,0-10.61,10.61l26.48,26.48,6.68-3.93Z"/><path class="cls-1" d="M592.05,520.93q-3.31,2-6.63,4l18.88,18.88q3.14-2.16,6.25-4.36Z"/><path class="cls-1" d="M604.3,543.79l-18.88-18.88q-3.33,2-6.66,3.94L598,548.09Q601.16,546,604.3,543.79Z"/><path class="cls-1" d="M598,548.09l2.34,2.34,6.56-4-2.59-2.59Q601.16,546,598,548.09Z"/><path class="cls-1" d="M610.55,539.43q-3.12,2.19-6.25,4.36l2.59,2.59,6.52-4.08,0,0Z"/><path class="cls-1" d="M574.46,513.95l-6.68,3.93,5.49,5.49,6.67-3.93Z"/><path class="cls-1" d="M579.95,519.43q3.32-2,6.64-4L581.11,510q-3.33,2-6.64,4Z"/><path class="cls-1" d="M608.08,555.06a7.47,7.47,0,0,0,7.06-5q-4,2.49-7.92,4.92A7.59,7.59,0,0,0,608.08,555.06Z"/><path class="cls-1" d="M586.59,515.47q-3.32,2-6.64,4l5.48,5.48q3.31-2,6.63-4Z"/><path class="cls-1" d="M579.95,519.43l-6.67,3.93,5.49,5.49q3.33-2,6.66-3.94Z"/><path class="cls-1" d="M615.23,545.32q-5.86,4.13-11.78,8.14a7.46,7.46,0,0,0,3.76,1.54q3.94-2.43,7.92-4.92A7.52,7.52,0,0,0,615.23,545.32Z"/><path class="cls-1" d="M613.42,542.3l-6.52,4.08,1.18,1.18-1.18-1.18-6.56,4,2.44,2.44a7.8,7.8,0,0,0,.68.6q5.92-4,11.78-8.14A7.46,7.46,0,0,0,613.42,542.3Z"/><path class="cls-1" d="M427.56,561.8a7.5,7.5,0,0,0,9.83-11.33c-18.25-15.82-35.09-32.57-50.85-48.58l-4.37,6,50.3,48.26c-17.74-15.38-33.83-31.27-50.41-48.11l-2.78,3.82-1.69,2.33C393.06,529.87,409.58,546.22,427.56,561.8Z"/><path class="cls-1" d="M372.21,498a7.5,7.5,0,0,0-.1,10.61l.14.15,8.74-12A7.5,7.5,0,0,0,372.21,498Z"/><path class="cls-1" d="M379.28,511.85l2.78-3.82-4.6-4.67,4.71,4.52,4.37-6-3.72-3.78a7.52,7.52,0,0,0-1.82-1.37l-8.74,12,5.33,5.42Z"/><path class="cls-1" d="M432.47,556.14l-50.3-48.26-.11.15C398.65,524.86,414.73,540.75,432.47,556.14Z"/><path class="cls-1" d="M377.47,503.36l4.6,4.67.11-.15Z"/><path class="cls-1" d="M245.59,732.05a7.5,7.5,0,0,0,10.72-10.49c-7.31-7.46-13.83-14-21-21q-2.84,2.48-5.6,5c7.33,7.18,13.83,13.68,21.27,21.28l-21.27-21.27q-2.77,2.54-5.46,5.14C231.55,717.86,238.16,724.47,245.59,732.05Z"/><path class="cls-1" d="M223.8,699.77a7.47,7.47,0,0,0-1.59,2.44q2.37-2.21,4.78-4.37A7.47,7.47,0,0,0,223.8,699.77Z"/><path class="cls-1" d="M223.91,710.38l.3.3q2.69-2.6,5.46-5.14l-.51-.51.52.51q2.76-2.53,5.6-5l-.87-.86a7.5,7.5,0,0,0-7.42-1.82q-2.41,2.16-4.78,4.37A7.5,7.5,0,0,0,223.91,710.38Z"/><path class="cls-1" d="M229.68,705.53h0l21.27,21.27C243.51,719.21,237,712.71,229.68,705.53Z"/><path class="cls-1" d="M229.16,705l.51.51h0Z"/><path class="cls-1" d="M703.86,244.13,706.7,247c1.14-1.3,2.78-3.26,4.85-5.76l-2.39-2.39a18.66,18.66,0,0,0-9.79-5.17l-4.34,7.2A11.31,11.31,0,0,1,703.86,244.13Z"/><path class="cls-1" d="M690.33,234.14a18.69,18.69,0,0,0-7.81,4.69l-5.61,5.61a18.68,18.68,0,0,0-4.71,7.85q2.78,1.22,5.52,2.57C681.08,249.44,685.4,242.33,690.33,234.14Z"/><path class="cls-1" d="M679.12,255.54a11.25,11.25,0,0,1,3.09-5.8l5.61-5.61a11.27,11.27,0,0,1,7.21-3.27l4.34-7.2a19,19,0,0,0-9,.48c-4.93,8.19-9.25,15.3-12.6,20.72Z"/><path class="cls-1" d="M720.06,260.34l4.2-6.41-2.08-2.08c-2.09,2.51-3.74,4.46-4.87,5.74Z"/><path class="cls-1" d="M722.93,263.21l5.46-5.15-4.13-4.13-4.2,6.41Z"/><path class="cls-1" d="M716.87,246.54l-5.32-5.32c-2.07,2.5-3.71,4.46-4.85,5.76l5.31,5.31C713.14,251,714.78,249.05,716.87,246.54Z"/><path class="cls-1" d="M717.32,257.6c1.13-1.28,2.78-3.22,4.87-5.74l-5.32-5.32c-2.08,2.51-3.73,4.46-4.86,5.75Z"/><path class="cls-1" d="M762.82,292.5l-5.51,5.09,2.73,2.73a11.36,11.36,0,0,1,2.9,11l7.81-5a18.74,18.74,0,0,0-5.4-11.35Z"/><path class="cls-1" d="M756.25,330a18.86,18.86,0,0,0,3.49-2.73l5.61-5.61a18.71,18.71,0,0,0,3.71-5.32c-5.74,3.66-10.81,6.92-15,9.64C754.83,327.31,755.56,328.65,756.25,330Z"/><path class="cls-1" d="M770.75,306.37l-7.81,5a11.23,11.23,0,0,1-2.9,5L754.44,322a11.25,11.25,0,0,1-1.83,1.48q.75,1.26,1.47,2.53c4.17-2.72,9.24-6,15-9.64A18.91,18.91,0,0,0,770.75,306.37Z"/><path class="cls-1" d="M734.33,274.61l6.26-4.34-5.48-5.48-4.2,6.4Z"/><path class="cls-1" d="M729.3,269.58l1.61,1.61,4.2-6.4-.35-.35Z"/><path class="cls-1" d="M750.95,291.23l5.51-5.1-2-2c-2,2.28-3.64,4.1-5,5.58Z"/><path class="cls-1" d="M745.13,285.41l4.29,4.29c1.39-1.47,3-3.3,5-5.58l-3.05-3.05Z"/><path class="cls-1" d="M738.81,279.09c1.28-1.37,2.9-3.18,5-5.61l-3.22-3.22-6.26,4.34Z"/><path class="cls-1" d="M746,275.67l-2.19-2.19c-2.1,2.43-3.72,4.24-5,5.61l.93.93Z"/><path class="cls-1" d="M745.13,285.41l6.27-4.34-2.28-2.28c-2,2.34-3.67,4.16-5,5.59Z"/><path class="cls-1" d="M744.1,284.38c1.35-1.43,3-3.25,5-5.59L746,275.67,739.74,280Z"/><path class="cls-1" d="M731.58,261.25l-1.89-1.89-4.2,6.4.63.63Z"/><path class="cls-1" d="M725.48,265.76l4.2-6.4-1.29-1.3-5.46,5.15Z"/><path class="cls-1" d="M757.31,297.59l5.51-5.09-3.18-3.18-5.51,5.09Z"/><path class="cls-1" d="M729.3,269.58l5.46-5.14-3.19-3.19-5.46,5.14Z"/><path class="cls-1" d="M754.13,294.41l5.51-5.09-3.18-3.18-5.51,5.1Z"/><path class="cls-1" d="M699.29,290.47l-.36-.57-4.75-7.31a141.63,141.63,0,0,0-16.72-11L697.83,292A17.83,17.83,0,0,0,699.29,290.47Z"/><path class="cls-1" d="M699.29,290.47a17.83,17.83,0,0,1-1.45,1.53l2.06,2.06q.1-1.09.29-2.17Z"/><path class="cls-1" d="M703.35,297.11l-.21.2.59.59,0-.05Z"/><path class="cls-1" d="M703.35,297.11q-1.51-2.6-3.16-5.22-.2,1.09-.29,2.17l3.25,3.25Z"/><path class="cls-1" d="M703.74,297.91l.18.18-.14-.24Z"/><path class="cls-1" d="M680.81,264.05l-.4.63,1.66.93A11.28,11.28,0,0,1,680.81,264.05Z"/><path class="cls-1" d="M677.73,254.86q-2.74-1.34-5.52-2.57a18.48,18.48,0,0,0-.62,7.92l2.14,1C674.83,259.5,676.18,257.36,677.73,254.86Z"/><path class="cls-1" d="M680.81,264.05a11.39,11.39,0,0,1-1.68-8.51l-1.4-.69c-1.55,2.5-2.89,4.64-4,6.36q3.38,1.64,6.68,3.46Z"/><path class="cls-1" d="M677.45,271.62a141.63,141.63,0,0,1,16.72,11l-9-13.9-2.92-2.92-.15-.16-1.66-.93c-1.62,2.53-2.84,4.34-3.6,5.32-.15.16-.29.33-.43.49.18.2.35.4.53.59Z"/><path class="cls-1" d="M673.72,261.22l-2.14-1a18.83,18.83,0,0,0,.69,3.22C672.7,262.79,673.18,262.06,673.72,261.22Z"/><path class="cls-1" d="M676.81,270c.76-1,2-2.79,3.6-5.32q-3.3-1.82-6.68-3.46c-.54.84-1,1.58-1.45,2.21a18.64,18.64,0,0,0,4.1,7.06C676.52,270.33,676.66,270.16,676.81,270Z"/><path class="cls-1" d="M733.1,327.27l.09.08q-1.34-2.4-2.77-4.75c.25.9.48,1.79.7,2.69Z"/><path class="cls-1" d="M730.42,322.6q1.44,2.35,2.77,4.75a19,19,0,0,0,2.76,2.26,15.09,15.09,0,0,0,1.84-1.56,108.62,108.62,0,0,0-6.37-8.82c-.6.19-1.21.37-1.82.52Q730,321.17,730.42,322.6Z"/><path class="cls-1" d="M740,331.64q-1.07-1.81-2.22-3.59a15.09,15.09,0,0,1-1.84,1.56A18.58,18.58,0,0,0,740,331.64Z"/><path class="cls-1" d="M728.22,315.43c.49,1.44.95,2.87,1.38,4.3.62-.15,1.22-.32,1.82-.52-1-1.28-2.07-2.55-3.16-3.8Z"/><path class="cls-1" d="M728.22,315.43h0l-.08-.09Z"/><path class="cls-1" d="M750.58,328.28q.85,1.78,1.65,3.58a18.54,18.54,0,0,0,4-1.86c-.69-1.35-1.42-2.69-2.18-4Z"/><path class="cls-1" d="M750.58,328.28l3.5-2.3q-.72-1.27-1.47-2.53A11.28,11.28,0,0,1,749,325Q749.78,326.62,750.58,328.28Z"/><path class="cls-1" d="M695.17,283.36l-1-.76,4.75,7.31.36.57c.5-.59,1.09-1.32,1.8-2.25C699.16,286.56,697.2,284.93,695.17,283.36Z"/><path class="cls-1" d="M701.09,288.22c-.71.93-1.3,1.67-1.8,2.25l.9,1.42a24.25,24.25,0,0,1,1-3.62Z"/><path class="cls-1" d="M714.75,308.22a15.31,15.31,0,0,0,3,1.81c.16.08.33.13.5.19q-.82-2-1.71-3.93A13.55,13.55,0,0,0,714.75,308.22Z"/><path class="cls-1" d="M712.87,299.55l-.87-.94c-.86,1.09-1.6,2-2.27,2.71.1.28.2.56.32.83A34.82,34.82,0,0,1,712.87,299.55Z"/><path class="cls-1" d="M708.84,295.39a15.22,15.22,0,0,0,.89,5.94c.67-.74,1.41-1.62,2.27-2.71Q710.45,297,708.84,295.39Z"/><path class="cls-1" d="M714.56,308.08l.19.13a13.55,13.55,0,0,1,1.78-1.92q-1.33-2.91-2.84-5.86l-.82-.88a34.82,34.82,0,0,0-2.83,2.6A15.21,15.21,0,0,0,714.56,308.08Z"/><path class="cls-1" d="M704.35,297.23c0-.37,0-.75,0-1.12-.34.38-.66.72-1,1l.43.74Z"/><path class="cls-1" d="M704.78,292c-.41-.41-.82-.83-1.21-1.26s-.74-.85-1.09-1.29l-1.33-1.15a24.25,24.25,0,0,0-1,3.62q1.65,2.62,3.16,5.22c.29-.29.61-.63,1-1A19.61,19.61,0,0,1,704.78,292Z"/><path class="cls-1" d="M702.48,289.42c.35.44.71.87,1.09,1.29s.8.85,1.21,1.26c0-.13.05-.26.09-.39C704.07,290.86,703.28,290.13,702.48,289.42Z"/><path class="cls-1" d="M704.35,297.23l-.56.63.14.24.55.55C704.42,298.17,704.37,297.7,704.35,297.23Z"/><path class="cls-1" d="M707.44,294.3q-.5-.39-1-.8c-.84,1.08-1.54,1.92-2.15,2.6,0,.38,0,.75,0,1.13A36.91,36.91,0,0,1,707.44,294.3Z"/><path class="cls-1" d="M704.78,292a19.61,19.61,0,0,0-.47,4.13c.61-.68,1.31-1.53,2.15-2.6C705.88,293,705.32,292.5,704.78,292Z"/><path class="cls-1" d="M706.65,293.25l-.19.25q.48.41,1,.8l.16-.14Z"/><path class="cls-1" d="M706.65,293.25c-.59-.56-1.19-1.11-1.79-1.66,0,.13-.06.26-.09.39.54.53,1.1,1,1.68,1.53Z"/><path class="cls-1" d="M718.24,310.22c-.16-.07-.33-.12-.5-.19a15.31,15.31,0,0,1-3-1.81l-.29.41,5.23,5.23Q719,312,718.24,310.22Z"/><path class="cls-1" d="M710,302.16c-.12-.27-.21-.55-.32-.83-.45.5-.86.93-1.25,1.31l.61.61C709.36,302.92,709.67,302.56,710,302.16Z"/><path class="cls-1" d="M709.73,301.33a15.22,15.22,0,0,1-.89-5.94l-.21-.21q-.6-.42-1.19-.88a36.91,36.91,0,0,0-3.1,2.93c0,.47.07.95.13,1.42l4,4C708.86,302.26,709.28,301.83,709.73,301.33Z"/><path class="cls-1" d="M707.44,294.3q.58.45,1.19.88l-1-1Z"/><path class="cls-1" d="M714.56,308.08a15.21,15.21,0,0,1-4.51-5.92c-.38.4-.69.76-1,1.1l5.37,5.37.29-.41Z"/><path class="cls-1" d="M747.82,330.11q.68,1.21,1.33,2.45a18.71,18.71,0,0,0,3.07-.7q-.8-1.8-1.65-3.58Z"/><path class="cls-1" d="M744.88,325.16q1.54,2.44,2.94,5l2.75-1.83q-.79-1.66-1.63-3.3A11.46,11.46,0,0,1,744.88,325.16Z"/><path class="cls-1" d="M701.09,288.22l.12-.15.09-.22a30.49,30.49,0,0,1-2-3.21,29.88,29.88,0,0,1-1.44-3.2L685.14,268.7l9,13.9,1,.76C697.2,284.93,699.16,286.56,701.09,288.22Z"/><path class="cls-1" d="M701.09,288.22l.05,0,.06-.2Z"/><path class="cls-1" d="M702.17,285.73l-4.29-4.29a29.88,29.88,0,0,0,1.44,3.2,30.49,30.49,0,0,0,2,3.21c.21-.57.43-1.14.69-1.71Z"/><path class="cls-1" d="M709.21,292.77l0,.08.05,0Z"/><path class="cls-1" d="M712.45,298l-.45.57.88.94.26-.22Z"/><path class="cls-1" d="M712,298.62l.45-.57-.44-.81a30.18,30.18,0,0,1-3.16-1.91s0,0,0,.07Q710.45,297,712,298.62Z"/><path class="cls-1" d="M709.24,292.8l-.05,0a15,15,0,0,0-.34,2.48,30.18,30.18,0,0,0,3.16,1.91q-1-1.89-2.12-3.78Z"/><path class="cls-1" d="M712.87,299.55l.82.88-.56-1.09Z"/><path class="cls-1" d="M701.29,287.85l-.09.22.13-.17Z"/><path class="cls-1" d="M701.21,288.07l-.06.2,1.33,1.15q-.6-.74-1.15-1.52Z"/><path class="cls-1" d="M702.61,286.17l-.44-.44-.19.41c-.26.56-.48,1.13-.69,1.71l0,.05C701.72,287.39,702.14,286.81,702.61,286.17Z"/><path class="cls-1" d="M705.61,289.17l-3-3c-.47.64-.89,1.21-1.28,1.73q.55.78,1.15,1.52c.8.71,1.6,1.43,2.38,2.16A19.71,19.71,0,0,1,705.61,289.17Z"/><path class="cls-1" d="M709.19,292.85l0-.08L708,291.52c-.47.63-.9,1.21-1.3,1.73l1,.91C708.09,293.75,708.61,293.32,709.19,292.85Z"/><path class="cls-1" d="M705.61,289.17a19.71,19.71,0,0,0-.75,2.41c.6.55,1.2,1.1,1.79,1.66.4-.52.84-1.09,1.3-1.73Z"/><path class="cls-1" d="M708.63,295.18l.21.21s0,0,0-.07Z"/><path class="cls-1" d="M709.19,292.85c-.58.47-1.1.9-1.58,1.31l1,1,.22.15A15,15,0,0,1,709.19,292.85Z"/><path class="cls-1" d="M726.12,320.29l5,5c-.22-.9-.45-1.79-.7-2.69-.55-.9-1.12-1.79-1.7-2.68A23.83,23.83,0,0,1,726.12,320.29Z"/><path class="cls-1" d="M716.53,306.29q.9,2,1.71,3.93a15.17,15.17,0,0,0,4.5,1.1c-1.58-2.1-3.2-4.16-4.9-6.18C717.33,305.57,716.9,306,716.53,306.29Z"/><path class="cls-1" d="M713.69,300.43q1.51,2.95,2.84,5.86c.37-.34.8-.72,1.31-1.15C716.5,303.54,715.11,302,713.69,300.43Z"/><path class="cls-1" d="M726,315.79c-.64.06-1.29.1-1.94.1h0a19.84,19.84,0,0,1-2.47-.17l4.57,4.57a23.83,23.83,0,0,0,2.6-.37Q727.38,317.84,726,315.79Z"/><path class="cls-1" d="M719.69,313.86l1.86,1.86a19.84,19.84,0,0,0,2.47.17h0c.65,0,1.3,0,1.94-.1q-1.57-2.26-3.23-4.46a15.17,15.17,0,0,1-4.5-1.1Q719,312,719.69,313.86Z"/><path class="cls-1" d="M740.87,325.78l1.72-1.18a11.18,11.18,0,0,1-3.47-2Q740,324.19,740.87,325.78Z"/><path class="cls-1" d="M744.32,332.65a17.49,17.49,0,0,0,4.83-.09q-.65-1.23-1.33-2.45c-1.43,1-2.61,1.77-3.55,2.44Z"/><path class="cls-1" d="M742.59,324.6l-1.72,1.18q1.79,3.34,3.4,6.77c.93-.67,2.12-1.48,3.55-2.44q-1.4-2.51-2.94-5A11.37,11.37,0,0,1,742.59,324.6Z"/><path class="cls-1" d="M730.42,322.6q-.39-1.43-.82-2.86l-.87.18C729.3,320.81,729.87,321.7,730.42,322.6Z"/><path class="cls-1" d="M738.4,322,734.46,318a24.41,24.41,0,0,1-3,1.2,108.62,108.62,0,0,1,6.37,8.82h0c.66-.53,1.7-1.29,3.08-2.25q-.86-1.6-1.75-3.17C738.87,322.41,738.63,322.19,738.4,322Z"/><path class="cls-1" d="M744.32,332.65l0-.1-.11.08Z"/><path class="cls-1" d="M737.78,328q1.15,1.78,2.22,3.59a18.76,18.76,0,0,0,4.17,1l.11-.08q-1.61-3.42-3.4-6.77c-1.38,1-2.42,1.72-3.08,2.25Z"/><path class="cls-1" d="M717.84,305.14c1.7,2,3.32,4.09,4.9,6.18.43,0,.86.07,1.29.07a15.21,15.21,0,0,0,3.41-.39l-7.53-7.53C719.1,304.11,718.42,304.66,717.84,305.14Z"/><path class="cls-1" d="M714.36,298.33q-.8-.33-1.59-.71l-.33.43.69,1.29Z"/><path class="cls-1" d="M712,297.24l.44.81.33-.43Z"/><path class="cls-1" d="M713.33,296.89l-.55.73q.78.38,1.59.71l.23-.18Z"/><path class="cls-1" d="M713.33,296.89l-3.44-3.44q1.1,1.9,2.12,3.78l.77.38Z"/><path class="cls-1" d="M719.91,303.47l-4.85-4.85-.7-.29-1.23,1,.56,1.09c1.42,1.55,2.81,3.11,4.15,4.71C718.42,304.66,719.1,304.11,719.91,303.47Z"/><path class="cls-1" d="M714.36,298.33l.7.29-.47-.47Z"/><path class="cls-1" d="M728.26,315.43c1.09,1.25,2.13,2.52,3.16,3.8a24.41,24.41,0,0,0,3-1.2L731,314.6A19.84,19.84,0,0,1,728.26,315.43Z"/><path class="cls-1" d="M728.72,319.92l.87-.18c-.43-1.43-.89-2.87-1.38-4.3a19.5,19.5,0,0,1-2.25.36Q727.38,317.84,728.72,319.92Z"/><path class="cls-1" d="M724,311.39c-.43,0-.86,0-1.29-.07q1.66,2.21,3.23,4.46a19.5,19.5,0,0,0,2.25-.36l0-.1.08.09a19.84,19.84,0,0,0,2.77-.83l-3.6-3.6A15.21,15.21,0,0,1,724,311.39Z"/><path class="cls-1" d="M687,259.8a3.9,3.9,0,0,1-.58-2,3.82,3.82,0,0,1,1.11-2.71l5.61-5.61a3.87,3.87,0,0,1,5.43,0l3.13,3.13a29.81,29.81,0,0,1,4.14-4.61l.88-1-2.84-2.84a11.31,11.31,0,0,0-8.82-3.27c-4.12,6.83-7.71,12.74-10.64,17.46Q685.7,259,687,259.8Z"/><path class="cls-1" d="M695,240.87a11.27,11.27,0,0,0-7.21,3.27l-5.61,5.61a11.25,11.25,0,0,0-3.09,5.8q2.66,1.34,5.27,2.79C687.32,253.6,690.92,247.69,695,240.87Z"/><path class="cls-1" d="M712.53,263.41l3.32,3.32,4.22-6.39-2.75-2.75c-.43.49-.79.88-1.07,1.18A15.13,15.13,0,0,0,712.53,263.41Z"/><path class="cls-1" d="M717.5,268.39c1.62-1.56,3.42-3.28,5.43-5.18l-2.87-2.87-4.22,6.39Z"/><path class="cls-1" d="M711.07,253.33l.94-1L706.7,247l-.88,1a29.81,29.81,0,0,0-4.14,4.61l5.38,5.38A22.42,22.42,0,0,1,711.07,253.33Z"/><path class="cls-1" d="M716.25,258.77c.28-.29.64-.69,1.07-1.18L712,252.29l-.94,1a22.42,22.42,0,0,0-4,4.61l5.47,5.47A15.13,15.13,0,0,1,716.25,258.77Z"/><path class="cls-1" d="M760,300.32l-2.73-2.73-5.49,5.11,2.92,2.92a3.89,3.89,0,0,1,0,5.43l-5.61,5.61a3.68,3.68,0,0,1-.58.47q.83,1.21,1.63,2.44c3.63-2.37,7.93-5.13,12.76-8.22A11.36,11.36,0,0,0,760,300.32Z"/><path class="cls-1" d="M752.61,323.45a11.25,11.25,0,0,0,1.83-1.48l5.61-5.61a11.23,11.23,0,0,0,2.9-5c-4.83,3.09-9.13,5.85-12.76,8.22Q751.43,321.49,752.61,323.45Z"/><path class="cls-1" d="M728.09,279l6.24-4.37-3.42-3.42q-2.26,3.43-4.22,6.38Z"/><path class="cls-1" d="M726.69,277.57q2-3,4.22-6.38l-1.61-1.61c-2,1.92-3.83,3.63-5.43,5.17Z"/><path class="cls-1" d="M743.95,294.83l1.51,1.51,5.49-5.12-1.53-1.53A46.77,46.77,0,0,1,743.95,294.83Z"/><path class="cls-1" d="M743.95,294.83a46.77,46.77,0,0,0,5.47-5.14l-4.29-4.29-6.25,4.36Z"/><path class="cls-1" d="M733.06,283.95l.09,0c1.27-.68,2.3-1.23,5.66-4.81l-4.48-4.48L728.09,279Z"/><path class="cls-1" d="M733.15,283.9l-.09,0,.43.43,6.24-4.36-.93-.93C735.45,282.68,734.43,283.23,733.15,283.9Z"/><path class="cls-1" d="M738.55,289.44l.33.33,6.25-4.36-1-1A32.94,32.94,0,0,1,738.55,289.44Z"/><path class="cls-1" d="M744.1,284.38,739.74,280l-6.24,4.36,5.06,5.06A32.94,32.94,0,0,0,744.1,284.38Z"/><path class="cls-1" d="M726.11,266.39l-.63-.63-2.17,3.29Z"/><path class="cls-1" d="M720.68,271.57l2.63-2.51,2.17-3.29-2.55-2.55c-2,1.9-3.81,3.62-5.43,5.18Z"/><path class="cls-1" d="M748.64,299.52l3.18,3.18,5.49-5.11-3.18-3.18Z"/><path class="cls-1" d="M723.31,269.05l-2,3.09,2.61,2.61c1.6-1.54,3.4-3.25,5.43-5.17l-3.19-3.19Z"/><path class="cls-1" d="M723.31,269.05l-2.63,2.51.58.58Z"/><path class="cls-1" d="M748.64,299.52l5.49-5.12-3.18-3.18-5.49,5.12Z"/><path class="cls-1" d="M683.77,266.6,681.45,263l-.65,1a11.28,11.28,0,0,0,1.26,1.56Z"/><path class="cls-1" d="M695.88,268.84l-8.37-8.37a3.73,3.73,0,0,1-.53-.68q-1.29-.75-2.59-1.47l-2.21,3.55,13.65,8.88C695.83,270.12,695.85,269.48,695.88,268.84Z"/><path class="cls-1" d="M680.81,264.05l.65-1-1.84-2.83,2.57,1.67,2.21-3.55q-2.61-1.45-5.27-2.79A11.39,11.39,0,0,0,680.81,264.05Z"/><path class="cls-1" d="M695.88,268.84c0,.64-.06,1.28-.05,1.92l5.66,3.69Z"/><path class="cls-1" d="M682.06,265.61l.15.16,2.92,2.92-1.36-2.1Z"/><path class="cls-1" d="M744.85,317.44q1.18,2,2.3,4.11l3-2q-.8-1.23-1.63-2.44a3.9,3.9,0,0,1-2.13.64A3.94,3.94,0,0,1,744.85,317.44Z"/><path class="cls-1" d="M747.16,321.55q.92,1.7,1.79,3.43a11.28,11.28,0,0,0,3.66-1.53q-1.17-2-2.42-3.88Z"/><path class="cls-1" d="M696.11,274.69a30.45,30.45,0,0,1-.28-3.93l-13.65-8.88-.73,1.16,2.32,3.57Q690.12,270.33,696.11,274.69Z"/><path class="cls-1" d="M679.61,260.2l1.84,2.83.73-1.16Z"/><path class="cls-1" d="M705.64,280.48a22.47,22.47,0,0,1-1.28-3.17l-2.86-2.86-5.66-3.69a30.45,30.45,0,0,0,.28,3.93q4.46,3.25,8.68,6.82C705,281.19,705.33,280.85,705.64,280.48Z"/><path class="cls-1" d="M704.35,277.31a22.47,22.47,0,0,0,1.28,3.17l.88-1Z"/><path class="cls-1" d="M743.71,316.66l-3-3a24.21,24.21,0,0,1-2.46,2.06q3,3.86,5.67,7.93l3.21-2.13q-1.12-2.07-2.3-4.11A3.7,3.7,0,0,1,743.71,316.66Z"/><path class="cls-1" d="M744.88,325.16A11.46,11.46,0,0,0,749,325q-.88-1.73-1.79-3.43l-3.21,2.13C744.26,324.17,744.57,324.66,744.88,325.16Z"/><path class="cls-1" d="M713.46,289.4l.08.08h0Z"/><path class="cls-1" d="M713.55,289.46l1.69-1.26-2.36-2.36c-.58.67-1,1.22-1.36,1.68.65.62,1.29,1.25,1.93,1.87Z"/><path class="cls-1" d="M724.32,300.63q4.28,3.94,8.15,8.21a15.17,15.17,0,0,0,1.9-1.52l-6.69-6.69c-.55,0-1.1.05-1.66.05S724.88,300.67,724.32,300.63Z"/><path class="cls-1" d="M724,300.36l.29.27c.57,0,1.14.05,1.71.05s1.1,0,1.66-.05l-1.7-1.7Z"/><path class="cls-1" d="M717.28,291.43l-.75,1.07q1.15,1.2,2.28,2.42l1.81-1.34-1.45-1.45C718.53,291.92,717.9,291.69,717.28,291.43Z"/><path class="cls-1" d="M713.54,289.47q1.52,1.49,3,3l.75-1.07a22.74,22.74,0,0,1-3.73-2Z"/><path class="cls-1" d="M719.17,292.12l-1.39-1.39-.49.7C717.9,291.69,718.53,291.92,719.17,292.12Z"/><path class="cls-1" d="M717.28,291.43l.49-.7-2.53-2.53-1.69,1.26A22.74,22.74,0,0,0,717.28,291.43Z"/><path class="cls-1" d="M722.21,298.73q.91.81,1.81,1.63l2-1.43-5.36-5.36-1.81,1.34Q720.54,296.8,722.21,298.73Z"/><path class="cls-1" d="M706,281.3l-.1-.18c-.11-.21-.2-.43-.31-.64-.31.37-.59.7-.84,1l.7.6Z"/><path class="cls-1" d="M706,281.3l-.55.8q1.25,1.07,2.48,2.16A22.67,22.67,0,0,1,706,281.3Z"/><path class="cls-1" d="M706,281.3l.94-1.36-.46-.46-.88,1c.1.21.19.43.31.64Z"/><path class="cls-1" d="M708.19,284.46c.4-.52.9-1.11,1.51-1.81L707,279.94,706,281.3a22.67,22.67,0,0,0,1.92,3Z"/><path class="cls-1" d="M735.44,312.25q1.45,1.73,2.84,3.5a24.21,24.21,0,0,0,2.46-2.06l-3.18-3.18A19.74,19.74,0,0,1,735.44,312.25Z"/><path class="cls-1" d="M711.52,287.52c.34-.47.78-1,1.36-1.68l-.52-.52-1.26,1.81Z"/><path class="cls-1" d="M712.37,285.32l-2.67-2.67c-.61.69-1.11,1.29-1.51,1.81q1.47,1.32,2.91,2.67Z"/><path class="cls-1" d="M732.47,308.84c1,1.12,2,2.26,3,3.41a19.74,19.74,0,0,0,2.13-1.73l-3.2-3.2A15.17,15.17,0,0,1,732.47,308.84Z"/><path class="cls-1" d="M696.11,274.69q-6-4.35-12.33-8.08l1.36,2.1,12.74,12.74A30,30,0,0,1,696.11,274.69Z"/><path class="cls-1" d="M702.17,285.73a18,18,0,0,1,2.62-4.23q-4.22-3.57-8.68-6.82a30,30,0,0,0,1.77,6.75Z"/><path class="cls-1" d="M713.54,289.47l-.08-.08a22.71,22.71,0,0,1-2.13-1.6,10.49,10.49,0,0,0-.92,1.57l1.67,1.21Z"/><path class="cls-1" d="M709.43,292.65l-.15-.25c0,.12-.05.25-.08.37l0,0Z"/><path class="cls-1" d="M713.46,289.4c-.64-.63-1.28-1.26-1.93-1.87l-.2.27A22.71,22.71,0,0,0,713.46,289.4Z"/><path class="cls-1" d="M718.24,295.34l.57-.42q-1.13-1.22-2.28-2.42l-.67.94Q717.06,294.38,718.24,295.34Z"/><path class="cls-1" d="M713.54,289.47l-1.45,1.1c1.28.94,2.54,1.88,3.78,2.86l.67-.94Q715.05,291,713.54,289.47Z"/><path class="cls-1" d="M709.24,292.8l.65.65-.46-.8Z"/><path class="cls-1" d="M722.21,298.73q-1.67-1.93-3.4-3.81l-.57.42Q720.27,297,722.21,298.73Z"/><path class="cls-1" d="M705.49,282.1l-.7-.6a18,18,0,0,0-2.62,4.23l.44.44C703.43,285,704.39,283.7,705.49,282.1Z"/><path class="cls-1" d="M706.3,287.53c-.36-.57-.71-1.14-1.08-1.71l1.45,1a15,15,0,0,1,1.49-2.28l-.18-.25q-1.23-1.09-2.48-2.16c-1.11,1.59-2.06,2.94-2.88,4.07l3,3c.15-.39.3-.78.47-1.16Z"/><path class="cls-1" d="M708,284.26l.18.25,0,0Z"/><path class="cls-1" d="M708.4,290.92l-.44.6,1.25,1.25c0-.12,0-.25.08-.37C709,291.91,708.69,291.42,708.4,290.92Z"/><path class="cls-1" d="M710.9,287.43,709.82,289l.59.41a10.49,10.49,0,0,1,.92-1.57Z"/><path class="cls-1" d="M708.4,290.92q-1-1.69-2.1-3.39l-.22.48c-.17.38-.32.77-.47,1.16l2.35,2.35Z"/><path class="cls-1" d="M710.9,287.43a22.35,22.35,0,0,1-1.76-1.75c-.34-.38-.67-.77-1-1.17a15,15,0,0,0-1.49,2.28q1.6,1.06,3.16,2.16Z"/><path class="cls-1" d="M711.52,287.52l-.42-.39-.21.3.43.37Z"/><path class="cls-1" d="M710.9,287.43l.21-.3q-1.44-1.35-2.91-2.67l0,0c.32.4.64.79,1,1.17A22.35,22.35,0,0,0,710.9,287.43Z"/><path class="cls-1" d="M738.28,315.75a24.25,24.25,0,0,1-2.36,1.51q1.66,2.64,3.2,5.34a11.18,11.18,0,0,0,3.47,2l1.35-.91Q741.29,319.61,738.28,315.75Z"/><path class="cls-1" d="M742.59,324.6a11.37,11.37,0,0,0,2.29.56c-.31-.49-.62-1-.93-1.47Z"/><path class="cls-1" d="M724.32,300.63l-.53,0q3.73,4.45,7.11,9.17a15.15,15.15,0,0,0,1.57-.92Q728.61,304.58,724.32,300.63Z"/><path class="cls-1" d="M723.79,300.59l.53,0-.29-.27-.26.19Z"/><path class="cls-1" d="M723.76,300.56l.26-.19q-.9-.82-1.81-1.63Z"/><path class="cls-1" d="M733.46,313.48q1.26,1.88,2.46,3.79a24.25,24.25,0,0,0,2.36-1.51q-1.38-1.78-2.84-3.5A19.79,19.79,0,0,1,733.46,313.48Z"/><path class="cls-1" d="M730.9,309.76c.88,1.23,1.73,2.47,2.57,3.72a19.79,19.79,0,0,0,2-1.23c-1-1.15-2-2.29-3-3.41A15.15,15.15,0,0,1,730.9,309.76Z"/><path class="cls-1" d="M738.4,322c.23.23.47.44.72.65q-1.54-2.7-3.2-5.34c-.48.27-1,.52-1.46.75Z"/><path class="cls-1" d="M710.41,289.36l-.23.51a15.3,15.3,0,0,0-.89,2.53l.15.25c.79-.63,1.66-1.32,2.65-2.08Z"/><path class="cls-1" d="M723.72,300.59c-1.52,1.12-2.77,2.07-3.81,2.89l7.53,7.53a15.29,15.29,0,0,0,3.46-1.24q-3.37-4.71-7.11-9.17Z"/><path class="cls-1" d="M723.72,300.59h.07l0,0Z"/><path class="cls-1" d="M718.24,295.34q-1.18-1-2.38-1.91c-.94,1.31-1.77,2.45-2.53,3.46l1.26,1.26C715.61,297.34,716.82,296.41,718.24,295.34Z"/><path class="cls-1" d="M712.08,290.58c-1,.76-1.86,1.44-2.65,2.08l.46.8,3.44,3.44c.76-1,1.6-2.15,2.53-3.46C714.62,292.46,713.36,291.51,712.08,290.58Z"/><path class="cls-1" d="M719.91,303.47c1-.81,2.29-1.76,3.81-2.89a30.29,30.29,0,0,1-8.66-2Z"/><path class="cls-1" d="M722.21,298.73q-1.95-1.72-4-3.39c-1.42,1.07-2.63,2-3.65,2.81l.47.47a30.29,30.29,0,0,0,8.66,2l0,0Z"/><path class="cls-1" d="M705.21,285.82c.37.57.72,1.14,1.08,1.71.11-.25.23-.49.37-.74Z"/><path class="cls-1" d="M731,314.6l3.42,3.42c.5-.24,1-.48,1.46-.75q-1.2-1.91-2.46-3.79A19.89,19.89,0,0,1,731,314.6Z"/><path class="cls-1" d="M710.18,289.87l.23-.51-.59-.41-1.42,2c.3.49.6,1,.89,1.48A15.3,15.3,0,0,1,710.18,289.87Z"/><path class="cls-1" d="M706.66,286.79c-.13.25-.25.5-.37.74q1.08,1.7,2.1,3.39l1.42-2Q708.26,287.85,706.66,286.79Z"/><path class="cls-1" d="M727.44,311l3.6,3.6a19.89,19.89,0,0,0,2.43-1.12c-.84-1.25-1.69-2.49-2.57-3.72A15.29,15.29,0,0,1,727.44,311Z"/><path class="cls-2" d="M333.22,563.09s-7.47,12.63-16.48,28.68c-15.34,27.31-38.68,59.7-60,83.61"/></g></svg>