<svg xmlns="http://www.w3.org/2000/svg" viewBox="0 0 1023.99 1024"><defs><style>.cls-1{fill:#fff;}</style></defs><title>Health_Icon</title><g id="Ebene_10" data-name="Ebene 10"><path class="cls-1" d="M929.76,192.74a41.73,41.73,0,0,0-19.22-13.9l12.71-11.19a28.28,28.28,0,0,0,9.41-20.06c.48-9.67-3.45-19.73-10.77-27.6a39.75,39.75,0,0,0-25-12.85l1.44-1.87c10.15-13.62,6.25-34.29-8.87-47.08A38.27,38.27,0,0,0,865,48.74h0a28.33,28.33,0,0,0-23.06,11.18C837,66.45,831.77,73.54,826.2,81a42.44,42.44,0,0,0-11-12.73,38.11,38.11,0,0,0-23.17-8.39c-10.12,0-18.91,4.63-24.12,12.7-23.32,36.15-51,82.26-73.25,119.32-10,16.61-20.15,33.56-27.36,45.25-27.29-14.88-55.23-22.81-81.5-22.81-40.73,0-74.94,19-98.95,55L470,294.64l-.15.22L362.63,455.58c-6.08,9.11-12.2,18.38-18.12,27.36-12.23,18.54-24.88,37.71-37.67,56.18q-.41.59-.76,1.22c-20.12,36.24-29.93,51.84-61,84.54-35.39,37.31-79.42,83.73-98.81,137.47-1.44,4-5.06,10.56-8.91,17.52-14.4,26.1-36.15,65.54-13.68,94.08,13.37,17,28.51,20.55,38.85,20.55,24.3,0,45.36-18.59,57.95-29.69l1.5-1.32a14.5,14.5,0,0,0,3.25-4.11c18.51-35,56.3-49.81,96.31-65.49,4.83-1.89,9.82-3.85,14.71-5.82a14.43,14.43,0,0,0,2.51-1.31c9.33-6.1,18.86-12.23,28.07-18.16,28.84-18.56,58.66-37.75,86.91-58.85a14.47,14.47,0,0,0,1.87-1.66c4.79-5.07,9.28-9.93,13.62-14.63,29.59-32,49.15-53.16,92.9-68.32,52.48-18.17,97-49.5,140-79.8,12.22-8.6,24.86-17.5,37.37-25.84,25.28-17.11,41.94-39.07,49.51-65.25,6.78-23.45,6-49.17-2.39-76.45A204.24,204.24,0,0,0,768.27,336c10.82-6.59,24.33-14.69,37.63-22.67C843,291.12,889.18,263.43,925.46,240a27.61,27.61,0,0,0,12.26-18.88C939.33,211.64,936.43,201.28,929.76,192.74Zm-367,289a14.5,14.5,0,1,0-20.51,20.51l68.53,68.53c-18.57,10.61-37.83,19.94-58.1,27-50.62,17.53-74.49,43.35-104.7,76-4,4.36-8.19,8.86-12.55,13.49-27.15,20.21-56.17,38.88-84.24,57-8.86,5.7-18,11.59-27,17.49-4.35,1.74-8.81,3.49-13.14,5.19-42.39,16.62-86.19,33.79-110.05,76.53-9,7.92-25.22,22.09-38.36,22.09-3.69,0-9.37-1-16.07-9.49-10.57-13.42,5.6-42.73,16.29-62.13,4.6-8.34,8.58-15.55,10.79-21.69,17.33-48,59-92,92.57-127.36,33-34.8,44.14-52.4,64.93-89.8,10.57-15.28,21-30.92,31.13-46.29,18.78,18.92,38.7,38.52,59.95,57.56a14.5,14.5,0,0,0,19.35-21.6c-22.3-20-43.26-40.75-63-60.68,2.73-4.13,5.48-8.26,8.21-12.36L484.3,325.49l67.11,67.11a14.5,14.5,0,0,0,20.51-20.51L500.71,300.9,511,285.47c18.63-27.92,43.81-42.08,74.82-42.08,20.64,0,43.48,6.53,66,18.51q3.38,1.79,6.74,3.75t6.84,4.15a229.36,229.36,0,0,1,24.26,17.73q2.39,2,4.71,4,4,3.47,7.75,7.1a238.76,238.76,0,0,1,34,40.45q2.1,3.17,4.06,6.37T744,352A174.53,174.53,0,0,1,759,386.27c9.85,32.14,11.67,77.17-35.57,109.13-12.73,8.49-25.52,17.5-37.89,26.2-16.12,11.34-32.45,22.83-49.25,33.63Z"/></g></svg>