<svg xmlns="http://www.w3.org/2000/svg" viewBox="0 0 1023.99 1024"><defs><style>.cls-1{fill:#a8722b;}.cls-2{fill:#f6d843;}.cls-3,.cls-4,.cls-6{fill:#fff;}.cls-4,.cls-5,.cls-6{stroke:#a8722b;}.cls-4{stroke-miterlimit:10;}.cls-4,.cls-6{stroke-width:15px;}.cls-5{fill:none;stroke-width:13px;}.cls-5,.cls-6{stroke-linecap:round;stroke-linejoin:round;}</style></defs><title>Health</title><g id="Ebene_9" data-name="Ebene 9"><path class="cls-1" d="M678.39,296.65a22.73,22.73,0,0,1-15.83-39.05c4.08-4.92,20.78-29.58,40.05-58.06,23.9-35.31,53.63-79.25,78.33-113.82A23.43,23.43,0,0,1,800,76a24.06,24.06,0,0,1,19.84,37.58l-.56.88c-8.89,14.11-32.3,50.7-57.76,85.73-64.91,89.33-66.3,90.16-71.45,93.25A22.7,22.7,0,0,1,678.39,296.65Z"/><path class="cls-2" d="M800,83.47a16.55,16.55,0,0,1,13.63,25.87c-.32.45-27.41,44.08-58.17,86.41-64,88.1-65.54,89-69.24,91.23A15.23,15.23,0,0,1,668,262.76c8.51-9.84,72.87-108.08,119-172.68A15.82,15.82,0,0,1,800,83.47m0-15h0a30.94,30.94,0,0,0-25.14,12.89C750.09,116,720.32,160,696.4,195.33c-17.32,25.6-35.22,52-39.38,57.19a30.23,30.23,0,0,0,36.89,47.32c6.81-4.08,7.85-4.71,73.66-95.28,25.59-35.21,49.11-72,58-86.14l.46-.73A31.55,31.55,0,0,0,800,68.47Z"/><path class="cls-1" d="M712.12,309.18a22.73,22.73,0,0,1-15-39.85C706.77,259,802,140.22,860.32,67.08a23.26,23.26,0,0,1,18.29-8.77,24.12,24.12,0,0,1,15.07,5.34A23.86,23.86,0,0,1,897.61,97L895,100.24c-44.23,54.11-69.07,84.71-82.13,100.86C731.19,302,726.52,304.53,722.77,306.52A22.78,22.78,0,0,1,712.12,309.18Z"/><path class="cls-2" d="M878.61,65.82A16.49,16.49,0,0,1,889,69.5a16.33,16.33,0,0,1,2.77,22.85c-.35.43-51.82,63.35-84.72,104-68.49,84.66-84,101.5-87.78,103.52a15.23,15.23,0,0,1-16.91-25.13c9-9.38,114.35-141,163.84-203a15.82,15.82,0,0,1,12.43-5.94m0-15h0a30.72,30.72,0,0,0-24.16,11.59C792.29,140.35,701.82,253.09,691.91,264a30.23,30.23,0,0,0,34.37,49.19c4-2.1,8.55-6.27,24-24.25,14.27-16.63,36.65-43.81,68.42-83.08,13-16.13,37.88-46.72,82.1-100.81l2.68-3.28a31.54,31.54,0,0,0-24.85-50.9Z"/><path class="cls-1" d="M719.24,352.59a22.72,22.72,0,0,1-19.47-34.41c3.09-5.16,3.92-6.54,93.25-71.45,35.08-25.49,71.49-48.72,85.52-57.53l.84-.53a23.29,23.29,0,0,1,13.46-4.24,24.19,24.19,0,0,1,19.52,10,23.79,23.79,0,0,1,4.28,17.9,23.14,23.14,0,0,1-9.44,15.22c-34.69,24.78-78.68,54.53-114,78.43-28.24,19.09-52.7,35.63-57.59,39.69a22.81,22.81,0,0,1-16.34,6.91Z"/><path class="cls-2" d="M892.85,191.93a16.61,16.61,0,0,1,13.44,6.9,16.1,16.1,0,0,1-3.44,22.62c-64.6,46.15-162.59,110.26-172.43,118.77A15.23,15.23,0,0,1,706.2,322c2.22-3.7,3.13-5.23,91.23-69.24,42.33-30.76,85.7-57.59,86.15-57.91a15.87,15.87,0,0,1,9.26-3m0-15a30.75,30.75,0,0,0-17.61,5.49l-.69.43c-14.09,8.85-50.67,32.19-85.94,57.81-90.57,65.81-91.2,66.85-95.28,73.66a30.23,30.23,0,0,0,47.32,36.89c5.12-4.13,31.34-21.86,56.71-39,35.39-23.93,79.43-53.71,114.2-78.54a30.59,30.59,0,0,0,12.48-20.12A31.23,31.23,0,0,0,918.43,190a31.7,31.7,0,0,0-25.59-13.1Z"/><path class="cls-1" d="M716.4,321.83a22.56,22.56,0,0,1-9.39-2,23,23,0,0,1-4.75-2.9,22.69,22.69,0,0,1-6.55-27.19c2.48-5.47,3.15-6.94,84.53-81.58,30.33-27.82,72.83-67.53,95.47-88.72l1.68-1.57a23.38,23.38,0,0,1,15.76-6.07,24.14,24.14,0,0,1,17.8,7.91A23.88,23.88,0,0,1,917.23,137a23.21,23.21,0,0,1-7.62,16.2c-12.62,11.45-27.52,24.93-43.23,39.15-55.33,50.07-124,112.26-132,120.61a22.81,22.81,0,0,1-18,8.88Z"/><path class="cls-2" d="M893.15,119.26a16.55,16.55,0,0,1,12.26,5.45,16.2,16.2,0,0,1-.84,22.92C845.8,201,737.48,298.55,728.68,308.12A15.21,15.21,0,0,1,710.12,313a15.41,15.41,0,0,1-3.19-1.95,15.23,15.23,0,0,1-4.38-18.21c1.78-3.93,2.52-5.55,82.77-79.16,38.56-35.37,96.74-89.91,97.14-90.28a15.84,15.84,0,0,1,10.69-4.1m0-15a30.85,30.85,0,0,0-20.77,8l0,0,0,0-1.75,1.63c-22.62,21.18-65.1,60.86-95.4,88.66-82.5,75.68-83,76.79-86.29,84a30.23,30.23,0,0,0,51.23,31.25c8.58-8.88,79.36-72.94,131.29-119.95,15.71-14.22,30.62-27.71,43.24-39.16a30.66,30.66,0,0,0,10.07-21.4,31.68,31.68,0,0,0-31.57-33.08Z"/><path class="cls-3" d="M703.4,479.42c-53.24,39-105.49,84.41-166,111.94-50,22.75-71.94,50.46-109.4,89.61C392.23,709.52,355,735.06,318,761.77c-42.22,21.34-87.89,40.49-113.81,82.59-15.68,14.19-50.08,46.87-69.93,19.79-16.23-22.13,24.2-70.29,33.14-89.4,21.93-46.9,70.58-91.78,110-124.35,36.26-29.95,33.52-53.73,55.77-88.58,20-26.59,39.42-53.72,59.1-80.58L523.62,302.1C637.32,147,857.37,365.35,703.4,479.42Z"/><path class="cls-4" d="M703.4,479.42c-53.24,39-105.49,84.41-166,111.94-50,22.75-71.94,50.46-109.4,89.61C392.23,709.52,355,735.06,318,761.77c-42.22,21.34-87.89,40.49-113.81,82.59-15.68,14.19-50.08,46.87-69.93,19.79-16.23-22.13,24.2-70.29,33.14-89.4,21.93-46.9,70.58-91.78,110-124.35,36.26-29.95,33.52-53.73,55.77-88.58,20-26.59,39.42-53.72,59.1-80.58L523.62,302.1C637.32,147,857.37,365.35,703.4,479.42Z"/><path class="cls-5" d="M703.4,479.42c-53.24,39-105.49,84.41-166,111.94-50,22.75-71.94,50.46-109.4,89.61C392.23,709.52,355,735.06,318,761.77c-42.22,21.34-87.89,40.49-113.81,82.59-15.68,14.19-50.08,46.87-69.93,19.79-16.23-22.13,24.2-70.29,33.14-89.4,21.93-46.9,70.58-91.78,110-124.35,36.26-29.95,33.52-53.73,55.77-88.58,20-26.59,39.42-53.72,59.1-80.58L523.62,302.1C637.32,147,857.37,365.35,703.4,479.42Z"/><line class="cls-6" x1="505.77" y1="326.45" x2="567.23" y2="387.92"/><line class="cls-6" x1="546.61" y1="486.09" x2="608.08" y2="547.56"/><path class="cls-6" d="M377.47,503.36c18.24,18.58,35.63,36,55,52.78"/><path class="cls-6" d="M357.68,661.2c13.17,13.11,25.6,25.53,38.63,38.63"/><path class="cls-6" d="M229.16,705c7.55,7.39,14.17,14,21.79,21.79"/><path class="cls-6" d="M191,814.54c7.66,7.17,11.34,11.35,18.59,19.09"/></g></svg>