<svg xmlns="http://www.w3.org/2000/svg" viewBox="0 0 1023.99 1024"><defs><style>.cls-1{fill:#fff;}</style></defs><title>Lokal_Icon</title><g id="Ebene_10" data-name="Ebene 10"><path class="cls-1" d="M696.13,703.38l1.48,3.12a27.11,27.11,0,0,1-6.25,30.18L550.25,871.39a27.11,27.11,0,0,1-34.5,2.43L337.35,746.06A27.11,27.11,0,0,1,326,724c0-1.08,1.95-6.7,5.19-15.3a201.6,201.6,0,0,1-26.71-67.89l-2.06-7.13v20.93l9.84,38.7C330.12,787.42,412.73,907.07,512,907.07c99,0,181.47-119.29,199.58-213l9.9-38.94V634.16l-2.12,7.36A201.6,201.6,0,0,1,696.13,703.38Z"/><path class="cls-1" d="M529.06,816.67l13.33-12.72a230.14,230.14,0,0,1-28.32,2Z"/><path class="cls-1" d="M785.13,355.91c0-.33.05-.83.07-1.52,0-.45,0-1.16,0-2.17,0-72.75-28.39-133.63-82.09-176.05C678.5,156.7,649.18,141.73,616,131.64c-32.12-9.76-67.13-14.71-104-14.71s-71.92,4.95-104,14.71c-33.17,10.08-62.48,25.06-87.1,44.52-53.68,42.42-82.06,103.3-82.06,176,0,1,0,1.73,0,2.18a26.35,26.35,0,0,0,.44,4.28c-.31,5.32-.46,10.64-.46,15.92a273,273,0,0,0,13.28,84.18l50.4,174.92v-64h6L274.53,451.89a249.47,249.47,0,0,1-12.26-77.3,252.67,252.67,0,0,1,1.33-25.83c-.84-8.3-1.33,12-1.33,3.44C262.27,214.29,374,140.43,512,140.43s249.75,73.86,249.75,211.78c0,8.52-.48-11.75-1.32-3.44a252.38,252.38,0,0,1,1.32,25.82,249.32,249.32,0,0,1-12.22,77.22L715.59,569.66h5.9v64.5L772,458.68a272.9,272.9,0,0,0,13.25-84.09c0-5.29-.15-10.6-.46-15.88A23.4,23.4,0,0,0,785.13,355.91Z"/><path class="cls-1" d="M715.59,569.66,696.5,636a178.92,178.92,0,0,1-13,40.71l12.66,26.67a201.6,201.6,0,0,0,23.23-61.86l2.12-7.36v-64.5Z"/><path class="cls-1" d="M477.12,779.47l36.94,26.46a230.14,230.14,0,0,0,28.32-2l33.19-31.68A200.47,200.47,0,0,1,512,782.45,204.47,204.47,0,0,1,477.12,779.47Z"/><path class="cls-1" d="M331.22,708.72c2.83-7.52,6.66-17.31,11-28.37a178.66,178.66,0,0,1-14.87-45l-18.92-65.68h-6v64l2.06,7.13A201.6,201.6,0,0,0,331.22,708.72Z"/><path class="cls-1" d="M297.11,445.39l-.23-.76a226.1,226.1,0,0,1-11.1-70,230.13,230.13,0,0,1,1.2-23.42l.25-2.39L287,346.4a33.61,33.61,0,0,0-.93-5.22c1.27-25.6,7-49.13,17-70.07A164.31,164.31,0,0,1,350,213c40.07-31.67,97.61-49.11,162-49.11S633.91,181.37,674,213a164.34,164.34,0,0,1,46.91,58.07c10.06,21,15.78,44.49,17,70.09a33.48,33.48,0,0,0-.93,5.2l-.24,2.38.25,2.38a229.62,229.62,0,0,1,1.19,23.42,226,226,0,0,1-11.07,70l-.12.38L691.13,569.66h24.45L749.5,451.81a249.32,249.32,0,0,0,12.22-77.22,252.38,252.38,0,0,0-1.32-25.82c.84-8.3,1.32,12,1.32,3.44,0-137.92-111.83-211.78-249.75-211.78s-249.7,73.86-249.7,211.78c0,8.52.48-11.75,1.33-3.44a252.67,252.67,0,0,0-1.33,25.83,249.47,249.47,0,0,0,12.26,77.3l33.93,117.77h24.46Z"/><path class="cls-1" d="M342.25,680.35c3.88-9.8,8.2-20.58,12.66-31.63A156.62,156.62,0,0,1,350.47,631l-.21-1.08-17.35-60.23H308.46l18.92,65.68A178.66,178.66,0,0,0,342.25,680.35Z"/><path class="cls-1" d="M673.92,629.5l-.29,1-.2,1a156.2,156.2,0,0,1-3.91,15.77l14,29.4a178.92,178.92,0,0,0,13-40.71l19.09-66.33H691.13Z"/><path class="cls-1" d="M512,759c-50,0-94.44-20.12-124.48-53.29-1,2.63-2,5.18-2.83,7.62l92.43,66.19a204.47,204.47,0,0,0,34.88,3,200.47,200.47,0,0,0,63.57-10.19l64.8-61.86-2.88-5.89C607.43,738.36,562.5,759,512,759Z"/><circle class="cls-1" cx="400.92" cy="403.6" r="24.01"/><circle class="cls-1" cx="621.81" cy="403.6" r="24.01"/><path class="cls-1" d="M542.39,803.94l-13.33,12.72-15-10.74L512,806c-49.78,0-97.78-16.35-135.16-46a200.85,200.85,0,0,1-45.62-51.2C328,717.32,326,722.94,326,724a27.11,27.11,0,0,0,11.33,22l178.4,127.76a27.11,27.11,0,0,0,34.5-2.43L691.37,736.68a27.11,27.11,0,0,0,6.25-30.18l-1.48-3.12C664.64,757.8,608.6,795.14,542.39,803.94Z"/><path class="cls-1" d="M597.09,530.79H421.27A27.1,27.1,0,0,0,396,548.12c0,.1-3.5,8.49-8.86,21.55H632.66l-10.6-22.33A27.11,27.11,0,0,0,597.09,530.79Z"/><path class="cls-1" d="M439.87,585H579.13L637.5,704.5a152.63,152.63,0,0,0,32-57.19l-36.86-77.65H387.13C379,589.46,366.5,620,354.92,648.72a152.7,152.7,0,0,0,32.61,56.95C398.45,677.75,419.22,638.64,439.87,585Z"/><path class="cls-1" d="M575.57,772.26l-33.19,31.68c66.21-8.81,122.25-46.14,153.75-100.56l-12.66-26.67C662.66,722.09,623.67,756.2,575.57,772.26Z"/><path class="cls-1" d="M376.84,759.92c37.38,29.68,85.38,46,135.16,46l2.06,0-36.94-26.46c-59.74-10.33-109.48-47-134.87-99.12-4.38,11.05-8.2,20.85-11,28.37A200.85,200.85,0,0,0,376.84,759.92Z"/><path class="cls-1" d="M637.5,704.5l2.88,5.89-64.8,61.86c48.1-16.06,87.09-50.17,107.9-95.55l-14-29.4A152.63,152.63,0,0,1,637.5,704.5Z"/><path class="cls-1" d="M477.12,779.47l-92.43-66.19c.85-2.44,1.8-5,2.83-7.62a152.7,152.7,0,0,1-32.61-56.95c-4.46,11.05-8.78,21.84-12.66,31.63C367.64,732.51,417.39,769.14,477.12,779.47Z"/></g></svg>