<svg xmlns="http://www.w3.org/2000/svg" viewBox="0 0 1023.99 1024"><defs><style>.cls-1{fill:#fff;}</style></defs><title>Lokal_Icon</title><g id="Ebene_10" data-name="Ebene 10"><path class="cls-1" d="M216.12,471.15c27.16,13.93,57.48,25.68,90.13,35.08L309.73,520l3.51,13.78,18.34,72,7.32,28.75,2.49,9.78A170.35,170.35,0,0,0,352.07,679c1.69,3.93,3.53,7.77,5.49,11.54v26.23l2.64,10.37,4.49,17.63c12.89,68.06,72.65,154.6,144.46,154.6,71.63,0,131.27-86.29,144.36-154.09l3.42-13.43,3.75-14.74V690.6q1.78-3.4,3.4-6.9a169.77,169.77,0,0,0,12.72-38.87l2.61-10.26,7.32-28.78,18.33-72.06,3.5-13.78,3.49-13.72c32.65-9.4,63-21.15,90.12-35.08,75.45-38.7,117-89.2,117-142.2s-41.55-103.51-117-142.2c-78.06-40-182.13-62.09-293-62.09s-215,22.05-293,62.09c-75.45,38.7-117,89.2-117,142.2S140.67,432.45,216.12,471.15Zm456.17-1.94c-.16.49-.3,1-.43,1.49l-12.27,48.23-3.34,13.15-3.37,13.23-13.75,54.05-7.12,28-1.62,6.39c-.12.45-.22.9-.3,1.36a122.54,122.54,0,0,1-5.75,20.22q-1.85,4.89-4.1,9.56a123.23,123.23,0,0,1-223.71-3.34c-.91-2-1.77-4.12-2.57-6.23a122.61,122.61,0,0,1-5.82-20.65q-.14-.73-.32-1.45l-1.5-5.88-7.12-28-13.76-54-3.37-13.23-3.35-13.15-12.26-48.17q-.19-.75-.43-1.49a171.38,171.38,0,0,1-8.42-53.1,174.51,174.51,0,0,1,.91-17.77,24,24,0,0,0,0-4.84,31.63,31.63,0,0,0-.67-4C339.9,352,355,324.87,383.7,306.72s71.07-27.48,125.42-27.48,96.56,9.25,125.45,27.48,43.81,45.3,45.88,82.8a31.55,31.55,0,0,0-.67,4,23.86,23.86,0,0,0,0,4.84,173.78,173.78,0,0,1,.91,17.77A171.39,171.39,0,0,1,672.29,469.2Z"/><path class="cls-1" d="M531.21,794.26a20.45,20.45,0,0,1-11.93-3.83l-134.9-96.61a20.5,20.5,0,0,1-8.56-16.67c0-4.89,0-8.12,27.08-79.94,12.76-33.85,25.7-67.28,25.83-67.61a20.5,20.5,0,0,1,19.12-13.1h133A20.5,20.5,0,0,1,599.67,529L656.8,663.9a20.5,20.5,0,0,1-4.72,22.82L545.37,788.59A20.47,20.47,0,0,1,531.21,794.26ZM420.18,669l109.16,78.18,84.18-80.36L567.21,557.5H461.9C444.81,601.88,427.62,647.65,420.18,669Z"/></g></svg>