<svg xmlns="http://www.w3.org/2000/svg" viewBox="0 0 1023.99 1024"><defs><style>.cls-1{fill:#155273;stroke:#fff;}.cls-1,.cls-3,.cls-4{stroke-linecap:round;stroke-linejoin:round;stroke-width:15px;}.cls-2,.cls-4{fill:#fff;}.cls-3{fill:none;}.cls-3,.cls-4{stroke:#155273;}</style></defs><title>Lokal</title><g id="Ebene_6" data-name="Ebene 6"><path class="cls-1" d="M435.36,1021.07V548.26c-6.34-6.41-158.21-69.62-158.21-69.62h-44.3S81,541.85,74.65,548.26v472.81"/><g id="dfs"><path class="cls-2" d="M953.35,1021.07V515.7c0-26.5-20-56.65-44.37-67l-163.34-69.6C721.15,369,691.15,360.69,679,360.69s-42.19,8.29-66.68,18.43l-163.34,69.6c-24.41,10.34-44.37,40.48-44.37,67v505.37Z"/><path class="cls-3" d="M953.35,1021.07V515.7c0-26.5-20-56.65-44.37-67l-163.34-69.6C721.15,369,691.15,360.69,679,360.69s-42.19,8.29-66.68,18.43l-163.34,69.6c-24.41,10.34-44.37,40.48-44.37,67v505.37"/></g></g><g id="Ebene_9" data-name="Ebene 9"><ellipse class="cls-2" cx="678.96" cy="193.43" rx="213.37" ry="109.44"/><ellipse class="cls-3" cx="678.96" cy="193.43" rx="213.37" ry="109.44"/><polygon class="cls-4" points="367.75 482.84 142.26 482.84 168.3 360.69 341.71 360.69 367.75 482.84"/><path class="cls-2" d="M459.29,537.74V710.46c0,44.94,36.43,78.24,81.37,78.24S622,755.39,622,710.46V537.74"/><path class="cls-3" d="M459.29,537.74V710.46c0,44.94,36.43,78.24,81.37,78.24S622,755.39,622,710.46V537.74"/><line class="cls-3" x1="540.65" y1="536.8" x2="540.65" y2="747.84"/><path class="cls-2" d="M540.65,748.5c.42,83.68.42,191.2,0,275.5"/><path class="cls-3" d="M540.65,748.5c.42,83.68.42,191.2,0,275.5"/><polygon class="cls-4" points="190.6 496.38 210.98 566.09 255.01 518.98 222.8 482.84 190.6 496.38"/><polygon class="cls-4" points="319.42 496.38 299.04 566.09 255.01 518.98 287.21 482.84 319.42 496.38"/><path class="cls-4" d="M331.54,401.47c2.55-7.84,10.18-25.09,10.18-34.45a86.71,86.71,0,1,0-173.42,0c0,9.37,7.55,26.63,10.1,34.48l17,66.93a60.59,60.59,0,0,0,119,.21Z"/><line class="cls-4" x1="169.8" y1="385.4" x2="339.86" y2="385.4"/><path class="cls-1" d="M602.39,389.34l3.6,14.14c6.51,34.38,36.7,78.1,73,78.1s66.31-43.59,72.93-77.84l3.62-14.23V358.29H602.39v31Z"/><path class="cls-4" d="M777.67,228.64c0-54.52-44.21-72.37-98.72-72.37s-98.7,17.86-98.7,72.37c0,3.37.19-4.64.52-1.36a99.88,99.88,0,0,0-.52,10.21A98.6,98.6,0,0,0,585.1,268L606,350.11a74.29,74.29,0,0,0,145.9.26L772.84,268a98.57,98.57,0,0,0,4.83-30.52,99.83,99.83,0,0,0-.52-10.21C777.48,224,777.67,232,777.67,228.64Z"/></g><g id="Ebene_10" data-name="Ebene 10"><circle class="cls-4" cx="540.64" cy="945.59" r="49.83"/></g></svg>