<svg xmlns="http://www.w3.org/2000/svg" viewBox="0 0 1023.99 1024"><defs><style>.cls-1{fill:#fff;}</style></defs><title>Lokal_Icon</title><g id="Ebene_10" data-name="Ebene 10"><path class="cls-1" d="M171.4,1014.33h.13A14.5,14.5,0,0,0,186,1000c.48-55.9.34-112.77.21-167.76-.21-89.74-.44-182.5,2-273.72,4.3-14.24,12.36-25.68,23.08-38.25a22.23,22.23,0,0,1,2-1.43,43.53,43.53,0,0,0,5.82-4.45,48.83,48.83,0,0,1,10-5.65l.37-.15,16.39-7.09c46.51-20.13,91.29-39.5,136.76-58.2l-2.75-10.82c-.23-.92-.41-1.85-.57-2.78a34,34,0,0,1-.48-5.61V413.46c-48.19,19.71-95.37,40.11-144.48,61.36l-16.21,7a78.49,78.49,0,0,0-17.12,9.78,14.43,14.43,0,0,0-1.55,1.35,15.72,15.72,0,0,1-2.29,1.69,41.18,41.18,0,0,0-6.71,5.31q-.39.39-.76.82c-12,14-24,30-30,51.56a14.47,14.47,0,0,0-.52,3.49c-2.49,92.25-2.27,185.88-2.05,276.43.13,54.92.27,111.71-.21,167.45A14.5,14.5,0,0,0,171.4,1014.33Z"/><path class="cls-1" d="M658.92,428.08a14.46,14.46,0,0,0-3-1c-8.28-1.84-16.34-5.72-24.83-9.87v7.05a34,34,0,0,1-1,8.08c0,.1,0,.2-.07.3l-3.68,14.45A117.1,117.1,0,0,0,648,455c19.36,9,39,17,58.09,24.67,24.53,9.94,49.88,20.21,74.32,32.58a46.36,46.36,0,0,0,7.3,5.12c17.38,14.18,25.12,33.4,28.56,47.63,1.52,111.94,1.27,225.28,1,334.92-.07,32.79-.14,66.7-.17,100.1a14.5,14.5,0,0,0,14.49,14.51h0A14.5,14.5,0,0,0,846.17,1000c0-33.39.1-67.28.17-100.06.24-110.26.48-224.28-1.06-337a14.51,14.51,0,0,0-.36-3c-6.25-27.48-20.13-50.36-40.15-66.17a14.47,14.47,0,0,0-2.5-1.59A16.57,16.57,0,0,1,799,490a14.5,14.5,0,0,0-3.65-2.66C769.28,474,742.71,463.21,717,452.8,697.85,445,678,437,658.92,428.08Z"/><path class="cls-1" d="M326.92,274.78a305.65,305.65,0,0,0,54.77,21.32l2.12,8.34,2.13,8.38,11.14,43.77,4.45,17.47,1.51,5.94a103.49,103.49,0,0,0,6.49,21.09c1,2.39,2.14,4.72,3.34,7V424l1.6,6.3,2.73,10.71c7.83,41.36,44.15,94,87.79,94s79.78-52.44,87.74-93.65l2.08-8.16,2.28-9V408.14q1.08-2.07,2.07-4.19a103.2,103.2,0,0,0,7.73-23.62l1.59-6.24,4.45-17.49,11.14-43.8,2.13-8.37,2.12-8.34a305.56,305.56,0,0,0,54.77-21.32c45.85-23.52,71.11-54.21,71.11-86.42s-25.25-62.91-71.11-86.42C635.65,77.59,572.4,64.19,505,64.19s-130.64,13.4-178.09,37.74c-45.85,23.52-71.11,54.21-71.11,86.42S281.07,251.26,326.92,274.78Zm277.23-1.18c-.1.3-.18.6-.26.91l-7.46,29.31-2,8-2,8L584,352.69l-4.32,17-1,3.89c-.07.27-.13.55-.18.82A74.53,74.53,0,0,1,575,386.69q-1.13,3-2.49,5.81a74.89,74.89,0,0,1-136-2c-.55-1.25-1.08-2.5-1.56-3.79a74.68,74.68,0,0,1-3.54-12.55q-.08-.44-.19-.88l-.91-3.57-4.33-17-8.36-32.85-2-8-2-8-7.45-29.27q-.12-.46-.26-.91a104.18,104.18,0,0,1-5.12-32.27,106.09,106.09,0,0,1,.55-10.8,14.52,14.52,0,0,0,0-2.94,19.2,19.2,0,0,0-.41-2.45c1.25-22.79,10.4-39.29,27.87-50.32S472,158.15,505,158.15s58.69,5.62,76.24,16.7,26.63,27.53,27.88,50.32a19.12,19.12,0,0,0-.41,2.45,14.51,14.51,0,0,0,0,2.94,105.87,105.87,0,0,1,.55,10.8A104.14,104.14,0,0,1,604.16,273.59Z"/><path class="cls-1" d="M506.19,769.17V603a14.5,14.5,0,0,0-29,0V769.17c0,25.54-10,49.08-28.18,66.29a97.89,97.89,0,0,1-54.78,25.65l-.35-207.22,0-18.64c0-.11,0-.22,0-.33v-.82h0c-.59-11.48-9.63-14.56-14.47-14.56a14.5,14.5,0,0,0-10.26,4.25c-3.21,3.21-4,6-4.18,10.35h-.06q0,.25,0,2.77c0,.67,0,1.38,0,2.12l0,14.9L365.12,861A97.82,97.82,0,0,1,311,835.45a90.28,90.28,0,0,1-28.18-66.29V603a14.5,14.5,0,1,0-29,0V769.17c0,63.47,47.81,114.16,111.3,121.07l.1,89.83c0,13.26.06,25.32.09,34.06,0,4.38,0,7.93,0,10.39,0,1.25,0,2.23,0,2.88,0,.29,0,.55,0,.83.53,10.6,8.85,14.5,14.47,14.5a14.5,14.5,0,0,0,10.26-4.26c3.24-3.24,4-6.4,4.2-10.24,0-.19,0-.39,0-.58,0,0,0,0,0,.07v-.08c0-1,0-2.08,0-3.2,0-2.46,0-6,0-10.39,0-8.74,0-20.78,0-34l-.15-89.71C458.08,883.65,506.19,832.84,506.19,769.17Z"/></g></svg>