<svg xmlns="http://www.w3.org/2000/svg" viewBox="0 0 1023.99 1024"><defs><style>.cls-1{fill:#fff;}</style></defs><title>Zeichenfläche 1 Kopie 17</title><g id="Ebene_10" data-name="Ebene 10"><path class="cls-1" d="M324.25,506.57l-18,61.63a7.5,7.5,0,0,1-12.68,3L255,530l-38.55,41.25a7.5,7.5,0,0,1-12.68-3l-18-61.63c-44.8,19-91.39,39.22-103.61,45.8V1024H397.07V538C376.92,529.06,350.29,517.61,324.25,506.57Z"/><path class="cls-1" d="M404.57,515.7c0-26.5,20-56.65,44.37-67l145.95-62.19v-8.15L446,441.82c-27,11.43-48.95,44.58-48.95,73.89v5.9l7.5,3.33Z"/><path class="cls-1" d="M911.92,441.82,763,378.37v8.15l146,62.2c24.41,10.33,44.37,40.48,44.37,67V1024h7.5V515.7C960.86,486.39,938.9,453.25,911.92,441.82Z"/><path class="cls-1" d="M397.07,538v486h7.5V541.36Z"/><path class="cls-1" d="M404.57,533.15v-8.22l-7.5-3.33v8.2Z"/><path class="cls-1" d="M404.57,541.36v-8.21l-7.5-3.34V538Z"/><path class="cls-1" d="M762.78,391.36l-.74,2.9,144,61.37c21.57,9.14,39.8,36.65,39.8,60.08V1024h7.5V515.7c0-26.5-20-56.65-44.37-67l-146-62.2v3A7.5,7.5,0,0,1,762.78,391.36Z"/><path class="cls-1" d="M412.07,515.7c0-23.43,18.23-50.94,39.81-60.08l144-61.37-.78-3.06a7.5,7.5,0,0,1-.23-1.85v-2.81L448.95,448.72c-24.41,10.33-44.37,40.48-44.37,67v9.23l7.5,3.37Z"/><path class="cls-1" d="M404.57,541.36V1024h7.5V544.77C409.74,543.7,407.23,542.56,404.57,541.36Z"/><path class="cls-1" d="M412.07,528.3l-7.5-3.37v8.22q3.94,1.77,7.5,3.39Z"/><path class="cls-1" d="M412.07,544.77v-8.23q-3.56-1.62-7.5-3.39v8.21C407.23,542.56,409.74,543.7,412.07,544.77Z"/><path class="cls-1" d="M572.75,237.49c0-2.2.07-4.42.2-6.63a11.44,11.44,0,0,1-.2-2.22c0-28.21,10.9-49.4,32.4-63,17.76-11.21,42.59-16.9,73.8-16.9s56,5.69,73.81,16.9c21.51,13.58,32.41,34.76,32.41,63a11.42,11.42,0,0,1-.21,2.22c.14,2.21.21,4.42.21,6.63a106.09,106.09,0,0,1-5.12,32.6L776.77,283a256.7,256.7,0,0,0,49.65-18.85c37.67-19.32,58.42-44.43,58.42-70.71S864.09,142,826.42,122.72C787.16,102.58,734.79,91.49,679,91.49s-108.19,11.09-147.45,31.23C493.84,142,473.1,167.15,473.1,193.43s20.75,51.39,58.42,70.71A256.71,256.71,0,0,0,581.16,283l-3.28-12.87A106.11,106.11,0,0,1,572.75,237.49Z"/><path class="cls-1" d="M191.93,482.84H142.26l20.33-95.39a7.43,7.43,0,0,1,.84-6c-1.54-5.2-2.64-10.25-2.64-14.44,0-3,.14-5.87.41-8.75a7.48,7.48,0,0,0-.25.86l-26,122.15a7.5,7.5,0,0,0,7.34,9.06h43.38l8.1-3.42C193.09,485.58,192.5,484.22,191.93,482.84Z"/><path class="cls-1" d="M346.44,381.81a7.37,7.37,0,0,1,.8,4.83l20.5,96.2H318c-.56,1.37-1.16,2.72-1.8,4l5.29,2.23.84.35h0l2,.85h43.4a7.51,7.51,0,0,0,7.2-9.62L349,359.13a7.5,7.5,0,0,0-.25-.86c.27,2.88.41,5.8.41,8.75C349.21,371.3,348.05,376.49,346.44,381.81Z"/><path class="cls-1" d="M323.84,490.34h.53l-2-.85A7.48,7.48,0,0,1,323.84,490.34Z"/><path class="cls-1" d="M187.69,489.47l6.06-2.55h0l-8.1,3.42h.53A7.49,7.49,0,0,1,187.69,489.47Z"/><path class="cls-1" d="M321.48,489.12l-5.29-2.23h0Z"/><path class="cls-1" d="M151.53,475.34,168.44,396q-.65-1.75-1.32-3.59a7.51,7.51,0,0,1-4.52-4.95l-20.33,95.39h49.67a67.66,67.66,0,0,1-2.56-7.5Z"/><path class="cls-1" d="M342.89,392.26q-.68,1.85-1.34,3.62l16.94,79.46H320.56a67.72,67.72,0,0,1-2.56,7.5h49.75l-20.5-96.2A7.5,7.5,0,0,1,342.89,392.26Z"/><path class="cls-1" d="M459.29,710.46V537.74h7.5a7.5,7.5,0,0,0-15,0V710.46c0,45.63,35.17,81.88,81.36,85.44v-7.54C491.73,784.89,459.29,752.86,459.29,710.46Z"/><path class="cls-1" d="M622,710.46c0,42.41-32.45,74.44-73.87,77.91v7.54c46.19-3.56,81.37-39.81,81.37-85.44V537.74a7.5,7.5,0,0,0-15,0H622Z"/><path class="cls-1" d="M593,761a74.73,74.73,0,0,1-44.88,19.87v7.51c41.42-3.47,73.87-35.5,73.87-77.91V537.74h-7.5V710.46A68.82,68.82,0,0,1,593,761Z"/><path class="cls-1" d="M459.29,710.46c0,42.4,32.45,74.43,73.86,77.91v-7.51A74.75,74.75,0,0,1,488.27,761a68.82,68.82,0,0,1-21.49-50.52V537.74h-7.5Z"/><path class="cls-1" d="M540.65,536.8v.94h7.5v-.94a7.5,7.5,0,0,0-15,0v.94h7.5Z"/><path class="cls-1" d="M540.65,741a7.49,7.49,0,0,1,7.48,7.17c0-.11,0-.22,0-.33V537.74h-7.5Z"/><path class="cls-1" d="M533.17,748.17a7.49,7.49,0,0,1,7.48-7.17V537.74h-7.5V747.84C533.15,748,533.16,748.06,533.17,748.17Z"/><path class="cls-1" d="M540.65,1002.91v0h0a57.62,57.62,0,0,1-7.49-.5V1024h15v-21.6A57.59,57.59,0,0,1,540.65,1002.91Z"/><path class="cls-1" d="M540.66,888.26a57.65,57.65,0,0,1,7.49.51V795.9q-3.7.29-7.5.29Q540.66,842.27,540.66,888.26Z"/><path class="cls-1" d="M540.65,888.26V796.19q-3.79,0-7.5-.29v92.87a57.62,57.62,0,0,1,7.49-.5Z"/><path class="cls-1" d="M540.65,755.34a7.49,7.49,0,0,1-7.48-7.17c0,.11,0,.22,0,.33v32.35q3.71.34,7.5.34Z"/><path class="cls-1" d="M540.65,755.34q0,12.93,0,25.85,3.79,0,7.5-.34V748.5c0-.11,0-.22,0-.33A7.49,7.49,0,0,1,540.65,755.34Z"/><path class="cls-1" d="M540.65,788.69c-2.53,0-5-.12-7.5-.33v7.54q3.71.29,7.5.29Z"/><path class="cls-1" d="M540.65,788.69q0,3.75,0,7.5,3.79,0,7.5-.29v-7.54C545.68,788.57,543.18,788.69,540.65,788.69Z"/><path class="cls-1" d="M533.15,780.85v7.51c2.47.21,5,.33,7.5.33v-7.5Q536.86,781.19,533.15,780.85Z"/><path class="cls-1" d="M540.65,788.69c2.53,0,5-.12,7.5-.33v-7.51q-3.71.34-7.5.34Q540.65,784.94,540.65,788.69Z"/><path class="cls-1" d="M540.65,755.34V748.5q0,3.42,0,6.84a7.18,7.18,0,1,0,0-14.34v0a7.18,7.18,0,1,0,0,14.34Z"/><path class="cls-1" d="M540.65,796.19h0v92.07h0Q540.66,842.25,540.65,796.19Z"/><path class="cls-1" d="M540.65,755.34v25.85h0q0-12.91,0-25.85Z"/><path class="cls-1" d="M540.65,796.19q0-3.75,0-7.5h0v7.5h0Z"/><path class="cls-1" d="M540.65,788.69q0-3.75,0-7.5h0v7.5h0Z"/><path class="cls-1" d="M540.65,748.5v6.84h0Q540.65,751.92,540.65,748.5Z"/><path class="cls-1" d="M249.43,525,211,566.09l-18.26-62.47-7,2.95,18,61.63a7.5,7.5,0,0,0,12.68,3L255,530l-4.63-5Z"/><path class="cls-1" d="M195.54,490.34h-9.37a7.5,7.5,0,0,0-2.77,8.15l.24.84,13.79-5.83Q196.45,491.95,195.54,490.34Z"/><path class="cls-1" d="M192.71,503.62l-2.12-7.24,6.84-2.88h0l-13.79,5.83,2.12,7.24Z"/><path class="cls-1" d="M193.75,486.92l-6.06,2.55a7.49,7.49,0,0,0-1.52.87h9.37C194.92,489.22,194.31,488.08,193.75,486.92Z"/><path class="cls-1" d="M249.43,525a67.67,67.67,0,0,1-9-1.34l-25.93,27.75L199.67,500.7l2.24-.94,0,0-9.18,3.88L211,566.09Z"/><path class="cls-1" d="M197.44,493.51l-6.84,2.88,2.12,7.24,9.18-3.88A68,68,0,0,1,197.44,493.51Z"/><path class="cls-1" d="M299,566.09l-38.46-41.14-.94.06L255,530l38.55,41.25a7.5,7.5,0,0,0,12.68-3l18-61.63-7-2.95Z"/><path class="cls-1" d="M312.51,493.47l6.41,2.71.5.21h0l7,2.94.25-.84a7.5,7.5,0,0,0-2.77-8.15h-9.46Q313.49,491.93,312.51,493.47Z"/><path class="cls-1" d="M318.92,496.18l-6.41-2.71h0Z"/><path class="cls-1" d="M317.3,503.62l7,2.95,2.12-7.24-7-2.94Z"/><path class="cls-1" d="M322.33,489.47l-.84-.35.87.37Z"/><path class="cls-1" d="M314.39,490.34h9.46a7.48,7.48,0,0,0-1.49-.85l-.87-.37-5.29-2.22C315.63,488.06,315,489.21,314.39,490.34Z"/><path class="cls-1" d="M255,525.18c-1.54,0-3.07-.07-4.59-.17l4.63,5,4.63-5C258.09,525.11,256.54,525.18,255,525.18Z"/><path class="cls-1" d="M308,499.73l2.31,1-14.81,50.65-25.95-27.76a67.77,67.77,0,0,1-9,1.35L299,566.09l18.26-62.47L308,499.72Z"/><path class="cls-1" d="M319.42,496.38l-.5-.21.5.21Z"/><path class="cls-1" d="M308,499.72l9.25,3.91,2.12-7.24-.5-.21-6.42-2.7A68,68,0,0,1,308,499.72Z"/><path class="cls-1" d="M168.3,353.19h1.1a86.72,86.72,0,0,1,171.21,0h1.1a7.5,7.5,0,0,1,7.09,5.07,94.2,94.2,0,0,0-187.6,0A7.5,7.5,0,0,1,168.3,353.19Z"/><path class="cls-1" d="M334.65,392.9c-1.25,3.35-2.39,6.34-3.11,8.57l-17.09,67.17a60.15,60.15,0,0,1-1.71,6.7h7.82c.46-1.66.87-3.34,1.21-5.06l17-66.72c.59-1.78,1.47-4.13,2.48-6.84l.32-.85-.65-3.05a7.59,7.59,0,0,1-1,.08Z"/><path class="cls-1" d="M178.4,401.49c-.73-2.23-1.86-5.24-3.11-8.59H169.8c-.23,0-.47,0-.69,0l-.67,3.12.34.91c1,2.64,1.84,4.94,2.42,6.69l16.92,66.47c.35,1.79.77,3.55,1.25,5.28h7.83a60.08,60.08,0,0,1-1.75-6.91Z"/><path class="cls-1" d="M163.43,381.45a7.51,7.51,0,0,1,.63-.87l4.24-19.89h.23q.27-3.8.87-7.5h-1.1a7.5,7.5,0,0,0-7.09,5.07c-.27,2.88-.41,5.8-.41,8.75C160.8,371.21,161.89,376.26,163.43,381.45Z"/><path class="cls-1" d="M341.71,353.19h-1.1q.59,3.7.87,7.5h.23l4.38,20.55q.19.28.35.57c1.61-5.32,2.77-10.51,2.77-14.8,0-3-.14-5.87-.41-8.75A7.5,7.5,0,0,0,341.71,353.19Z"/><path class="cls-1" d="M200.12,482.84h-8.19c.56,1.38,1.16,2.75,1.81,4.08l6.94-2.93Q200.4,483.42,200.12,482.84Z"/><path class="cls-1" d="M309.27,484l6.93,2.92c.64-1.32,1.24-2.68,1.8-4h-8.19C309.63,483.21,309.45,483.59,309.27,484Z"/><path class="cls-1" d="M309.26,484l6.93,2.92h0L309.27,484Z"/><path class="cls-1" d="M200.68,484l-6.94,2.93h0l6.94-2.92Z"/><path class="cls-1" d="M167.12,392.4q.67,1.83,1.32,3.59l.67-3.12A7.46,7.46,0,0,1,167.12,392.4Z"/><path class="cls-1" d="M342.89,392.26a7.5,7.5,0,0,1-2,.56l.65,3.05Q342.2,394.11,342.89,392.26Z"/><path class="cls-1" d="M312.74,475.34a60.22,60.22,0,0,1-2.93,7.5H318a67.72,67.72,0,0,0,2.56-7.5Z"/><path class="cls-1" d="M339.77,377.9h.08a7.49,7.49,0,0,1,6.24,3.34l-4.38-20.55h-.23q.23,3.13.23,6.32A42.83,42.83,0,0,1,339.77,377.9Z"/><path class="cls-1" d="M169.8,377.9h.42A43.22,43.22,0,0,1,168.3,367q0-3.19.23-6.32h-.23l-4.24,19.89A7.48,7.48,0,0,1,169.8,377.9Z"/><path class="cls-1" d="M197.2,475.34h-7.83a67.66,67.66,0,0,0,2.56,7.5h8.19A60.11,60.11,0,0,1,197.2,475.34Z"/><path class="cls-1" d="M242.68,516.42a60.51,60.51,0,0,1-33.53-19.71l-7.24,3a68.23,68.23,0,0,0,38.51,23.85l4.44-4.75Z"/><path class="cls-1" d="M249.43,525l1,.06-.5-.54Z"/><path class="cls-1" d="M204.32,490.34h-8.78q.9,1.61,1.89,3.16l7-3Z"/><path class="cls-1" d="M204.46,490.54l-7,3h0l7-3Z"/><path class="cls-1" d="M204.32,490.34a60.58,60.58,0,0,1-3.63-6.33l-6.94,2.92c.57,1.16,1.17,2.29,1.8,3.41Z"/><path class="cls-1" d="M249.53,524.1a7.49,7.49,0,0,1-1.81-6.86q-2.55-.3-5-.82l2.17,2.44-4.44,4.75a67.67,67.67,0,0,0,9,1.34l.45-.48Z"/><path class="cls-1" d="M209.13,496.7l-7.23,3,0,0,7.24-3Z"/><path class="cls-1" d="M209.13,496.7a60.83,60.83,0,0,1-4.67-6.15l-7,3a68,68,0,0,0,4.46,6.24Z"/><path class="cls-1" d="M267.35,516.4l-2.19,2.46,4.42,4.73A68.32,68.32,0,0,0,308,499.73l-7.23-3A60.51,60.51,0,0,1,267.35,516.4Z"/><path class="cls-1" d="M259.64,525l.94-.06-.44-.47Z"/><path class="cls-1" d="M305.5,490.51l7,3q1-1.54,1.87-3.13h-8.77Z"/><path class="cls-1" d="M305.49,490.53l7,3h0l-7-3Z"/><path class="cls-1" d="M314.39,490.34c.63-1.13,1.24-2.28,1.81-3.45L309.26,484a60.46,60.46,0,0,1-3.64,6.36Z"/><path class="cls-1" d="M255,517.68l-1.14,0L255,519l1.18-1.33Z"/><path class="cls-1" d="M255,519l-5.13,5.49.5.54c1.52.1,3,.17,4.59.17s3.13-.07,4.67-.18l.5-.53Z"/><path class="cls-1" d="M247.72,517.24a7.49,7.49,0,0,0,1.81,6.86l.35.37L255,519l-1.18-1.32A61.17,61.17,0,0,1,247.72,517.24Z"/><path class="cls-1" d="M300.81,496.69l7.23,3v0l-7.22-3Z"/><path class="cls-1" d="M265.16,518.86l2.19-2.46q-2.49.52-5.06.83a7.49,7.49,0,0,1-1.81,6.87l-.35.37.44.47a67.77,67.77,0,0,0,9-1.35Z"/><path class="cls-1" d="M308,499.72a68,68,0,0,0,4.46-6.24l-7-3a60.87,60.87,0,0,1-4.66,6.15Z"/><path class="cls-1" d="M255,519l5.13,5.49.35-.37a7.49,7.49,0,0,0,1.81-6.87,61.11,61.11,0,0,1-6.11.42Z"/><path class="cls-1" d="M255,287.8a79.32,79.32,0,0,1,78,65.39h7.63a86.72,86.72,0,0,0-171.21,0H177A79.32,79.32,0,0,1,255,287.8Z"/><path class="cls-1" d="M175.85,368.19h-1.48l-2.07,9.71H178A50.31,50.31,0,0,1,175.85,368.19Z"/><path class="cls-1" d="M337.71,377.9l-2.07-9.71h-1.48a50.07,50.07,0,0,1-2.21,9.71Z"/><path class="cls-1" d="M331.54,401.47c.72-2.22,1.86-5.22,3.11-8.57h-8c-.89,2.38-1.66,4.48-2.24,6.25,0,.15-.1.31-.14.47l-17.09,67.17c0,.14-.07.28-.1.43a52.87,52.87,0,0,1-2.26,8.12h7.92a60.15,60.15,0,0,0,1.71-6.7Z"/><path class="cls-1" d="M202.81,467c0-.15-.06-.3-.1-.46l-17-66.93c0-.16-.09-.31-.14-.47-.58-1.77-1.35-3.88-2.24-6.27h-8c1.25,3.36,2.38,6.36,3.11,8.59l17,66.93a60.08,60.08,0,0,0,1.75,6.91h7.91A53,53,0,0,1,202.81,467Z"/><path class="cls-1" d="M309.27,484c.19-.37.36-.75.54-1.13h-3.22Z"/><path class="cls-1" d="M200.12,482.84q.27.58.56,1.15l2.74-1.15Z"/><path class="cls-1" d="M333.94,360.69h7.54q-.27-3.8-.87-7.5H333Q333.63,356.89,333.94,360.69Z"/><path class="cls-1" d="M177,353.19H169.4q-.59,3.7-.87,7.5h7.54Q176.38,356.89,177,353.19Z"/><path class="cls-1" d="M306.56,482.84l2.71,1.14h0l-2.68-1.13Z"/><path class="cls-1" d="M203.42,482.84,200.68,484h0l2.77-1.17Z"/><path class="cls-1" d="M170.22,377.9h2.08l2.07-9.71h1.48c0-.41-.05-.81-.05-1.18,0-2.13.11-4.23.28-6.32h-7.54q-.23,3.13-.23,6.32A43.22,43.22,0,0,0,170.22,377.9Z"/><path class="cls-1" d="M207.6,481.08a52.75,52.75,0,0,1-2.49-5.74H197.2a60.11,60.11,0,0,0,2.93,7.5h3.3Z"/><path class="cls-1" d="M302.34,481.05l4.25,1.79h3.22a60.22,60.22,0,0,0,2.93-7.5h-7.92A52.7,52.7,0,0,1,302.34,481.05Z"/><path class="cls-1" d="M334.21,367c0,.37,0,.76-.05,1.18h1.48l2.07,9.71h2.06A42.83,42.83,0,0,0,341.71,367q0-3.19-.23-6.32h-7.54C334.1,362.78,334.21,364.88,334.21,367Z"/><path class="cls-1" d="M306.56,482.84h0l-4.25-1.79h0Z"/><path class="cls-1" d="M207.6,481.08l-4.18,1.76h0l4.15-1.75Z"/><path class="cls-1" d="M216.46,493.64l-7.32,3.08a60.51,60.51,0,0,0,33.53,19.71l-9.89-11.09A53.29,53.29,0,0,1,216.46,493.64Z"/><path class="cls-1" d="M246.56,509.51l3.42,3.84,2.86-3.21A53.07,53.07,0,0,1,246.56,509.51Z"/><path class="cls-1" d="M204.93,490.34h-.61l.14.2Z"/><path class="cls-1" d="M204.93,490.34l-.48.2h0l.51-.21Z"/><path class="cls-1" d="M211.5,487.58a52.94,52.94,0,0,1-3-4.74h-5.07L200.69,484a60.58,60.58,0,0,0,3.63,6.33h.61Z"/><path class="cls-1" d="M211.51,487.59h0l-6.57,2.76h0Z"/><path class="cls-1" d="M203.46,482.84h5.07q-.48-.86-.92-1.75Z"/><path class="cls-1" d="M216.46,493.64l0,0-7.32,3.07,0,0Z"/><path class="cls-1" d="M250,513.35l-3.42-3.84a52.93,52.93,0,0,1-13.77-4.18l9.89,11.09q2.48.51,5,.82a7.46,7.46,0,0,1,1.69-3.25Z"/><path class="cls-1" d="M213.58,490.34H205l-.51.21a60.83,60.83,0,0,0,4.67,6.15l7.32-3.07Q214.95,492,213.58,490.34Z"/><path class="cls-1" d="M205,490.34h8.6q-1.08-1.34-2.07-2.75Z"/><path class="cls-1" d="M300.81,496.69l-7.32-3.08a53.39,53.39,0,0,1-16.2,11.65l-9.93,11.14A60.51,60.51,0,0,0,300.81,496.69Z"/><path class="cls-1" d="M260,513.35l3.44-3.86a53.17,53.17,0,0,1-6.3.65Z"/><path class="cls-1" d="M305.62,490.34h-.54l.42.18Z"/><path class="cls-1" d="M305.49,490.53h0l-.42-.18h0Z"/><path class="cls-1" d="M301.4,482.84a53,53,0,0,1-3,4.71l6.64,2.79h.54a60.46,60.46,0,0,0,3.64-6.36l-2.71-1.14Z"/><path class="cls-1" d="M305,490.34h0l-6.64-2.79h0Z"/><path class="cls-1" d="M301.4,482.84h5.16l-4.22-1.77C302,481.66,301.72,482.25,301.4,482.84Z"/><path class="cls-1" d="M255,510.18c-.71,0-1.42,0-2.12,0L250,513.35l3.84,4.31,1.14,0,1.22,0,3.84-4.31-2.86-3.21C256.44,510.17,255.71,510.18,255,510.18Z"/><path class="cls-1" d="M250,513.35l-.58.65a7.46,7.46,0,0,0-1.69,3.25,61.17,61.17,0,0,0,6.11.42Z"/><path class="cls-1" d="M300.81,496.69l0,0-7.33-3.08,0,0Z"/><path class="cls-1" d="M263.47,509.49,260,513.35l.58.65a7.47,7.47,0,0,1,1.69,3.24q2.56-.31,5.06-.83l9.93-11.14A52.92,52.92,0,0,1,263.47,509.49Z"/><path class="cls-1" d="M296.35,490.34Q295,492,293.5,493.6l7.33,3.08a60.87,60.87,0,0,0,4.66-6.15l-.45-.19Z"/><path class="cls-1" d="M305,490.34l-6.61-2.78q-1,1.43-2.09,2.78Z"/><path class="cls-1" d="M260,513.35l-3.84,4.31a61.11,61.11,0,0,0,6.11-.42,7.47,7.47,0,0,0-1.69-3.24Z"/><path class="cls-1" d="M163.43,381.45a7.43,7.43,0,0,0-.84,6l1.1-5.15Z"/><path class="cls-1" d="M347.24,386.64a7.37,7.37,0,0,0-.8-4.83l-.13.43Z"/><path class="cls-1" d="M342.89,392.26a7.5,7.5,0,0,0,4.36-5.62l-.94-4.39C345.28,385.61,344.08,389,342.89,392.26Z"/><path class="cls-1" d="M167.12,392.4c-1.2-3.28-2.4-6.71-3.43-10.1l-1.1,5.15A7.51,7.51,0,0,0,167.12,392.4Z"/><path class="cls-1" d="M327.18,391.46c.69-1.84,1.46-3.9,2.24-6.06H180.54c.8,2.23,1.59,4.37,2.3,6.27l.46,1.23H326.64Z"/><path class="cls-1" d="M331.95,377.9H178c.76,2.48,1.63,5,2.51,7.5H329.42C330.3,382.95,331.18,380.38,331.95,377.9Z"/><path class="cls-1" d="M175.3,392.9c-.88-2.37-1.81-4.91-2.7-7.5H170.7l-1.59,7.46c.23,0,.46,0,.69,0Z"/><path class="cls-1" d="M171.44,381.93l-.74,3.47h1.89Q172,383.67,171.44,381.93Z"/><path class="cls-1" d="M339.31,385.4l-.75-3.53q-.57,1.77-1.19,3.53Z"/><path class="cls-1" d="M334.65,392.9h5.21a7.59,7.59,0,0,0,1-.08l-1.58-7.42h-1.94C336.47,388,335.53,390.53,334.65,392.9Z"/><path class="cls-1" d="M346.44,381.81q-.16-.3-.35-.57l.21,1Z"/><path class="cls-1" d="M164.06,380.58a7.51,7.51,0,0,0-.62.87l.26.85Z"/><path class="cls-1" d="M339.86,377.9h-.08c-.37,1.3-.78,2.63-1.21,4l.75,3.53h0l1.58,7.42a7.5,7.5,0,0,0,2-.56c1.19-3.25,2.39-6.65,3.42-10l-.21-1A7.49,7.49,0,0,0,339.86,377.9Z"/><path class="cls-1" d="M167.12,392.4a7.46,7.46,0,0,0,2,.47l1.59-7.46h0l.74-3.47c-.44-1.36-.85-2.71-1.22-4h-.42a7.48,7.48,0,0,0-5.74,2.68l-.37,1.72C164.72,385.69,165.92,389.12,167.12,392.4Z"/><path class="cls-1" d="M329.42,385.4h8q.61-1.76,1.19-3.53l-.85-4h-5.77C331.18,380.38,330.3,382.95,329.42,385.4Z"/><path class="cls-1" d="M180.54,385.4c-.88-2.46-1.75-5-2.51-7.5H172.3l-.86,4q.56,1.73,1.15,3.47Z"/><path class="cls-1" d="M326.64,392.9h8c.89-2.37,1.82-4.91,2.73-7.5h-8c-.78,2.16-1.55,4.22-2.24,6.06Z"/><path class="cls-1" d="M180.54,385.4h-7.95c.89,2.59,1.82,5.13,2.7,7.5h8l-.46-1.23C182.13,389.77,181.34,387.63,180.54,385.4Z"/><path class="cls-1" d="M170.22,377.9c.37,1.33.78,2.68,1.22,4l.86-4Z"/><path class="cls-1" d="M339.77,377.9h-2.06l.85,4C339,380.54,339.4,379.21,339.77,377.9Z"/><path class="cls-1" d="M613.26,401.63q.06.23.1.45c3.14,16.56,12,34.69,23.68,48.49,12.84,15.16,27.73,23.5,41.93,23.5s29-8.32,41.83-23.43c11.67-13.75,20.54-31.82,23.73-48.34,0-.14.06-.29.1-.43L748,388.57v-.29l-4.48-1.91a81.76,81.76,0,0,1-129.15,0l-4.49,1.91v.11Z"/><path class="cls-1" d="M748,380.13V380l-.06.09Z"/><path class="cls-1" d="M609.89,380v.15l.07,0Z"/><path class="cls-1" d="M743.53,386.38l4.48,1.91v-8.15l-.06,0Q745.89,383.35,743.53,386.38Z"/><path class="cls-1" d="M610,380.11l-.07,0v8.15l4.49-1.91Q612,383.36,610,380.11Z"/><path class="cls-1" d="M751.89,350.36c0,.14-.06.29-.09.43h3.71a7.46,7.46,0,0,1,3.75,1l13.29-52.25q-4.07,1-8.22,1.9Z"/><path class="cls-1" d="M606.14,350.79c0-.23-.1-.46-.15-.69L593.6,301.46q-4.15-.91-8.22-1.9l13.28,52.18v0a7.46,7.46,0,0,1,3.72-1Z"/><path class="cls-1" d="M580.25,237.49a99.88,99.88,0,0,1,.52-10.21c-.33-3.28-.52,4.73-.52,1.36,0-54.52,44.18-72.37,98.7-72.37s98.72,17.86,98.72,72.37c0,3.37-.19-4.64-.52-1.36a99.86,99.86,0,0,1,.52,10.21A98.57,98.57,0,0,1,772.84,268l-4.35,17.11q4.19-1,8.28-2.13l3.28-12.9a106.09,106.09,0,0,0,5.12-32.6c0-2.2-.07-4.42-.21-6.63a11.42,11.42,0,0,0,.21-2.22c0-28.21-10.91-49.39-32.41-63-17.76-11.21-42.6-16.9-73.81-16.9s-56,5.69-73.8,16.9c-21.5,13.58-32.4,34.76-32.4,63a11.44,11.44,0,0,0,.2,2.22c-.14,2.21-.2,4.42-.2,6.63a106.11,106.11,0,0,0,5.13,32.64L581.16,283q4.1,1.11,8.28,2.13L585.1,268A98.6,98.6,0,0,1,580.25,237.49Z"/><path class="cls-1" d="M766.41,293.28l-2.08,8.18q4.15-.91,8.22-1.9l2.11-8.3Q770.59,292.31,766.41,293.28Z"/><path class="cls-1" d="M591.52,293.28q-4.18-1-8.25-2l2.11,8.3q4.07,1,8.22,1.9Z"/><path class="cls-1" d="M581.16,283l2.11,8.27q4.08,1.05,8.25,2l-2.08-8.16Q585.26,284.11,581.16,283Z"/><path class="cls-1" d="M768.49,285.12l-2.08,8.16q4.18-1,8.25-2l2.1-8.27Q772.67,284.11,768.49,285.12Z"/><path class="cls-1" d="M748,372v-6.19h-.9c-.72,1.66-1.51,3.28-2.35,4.88Z"/><path class="cls-1" d="M610.82,365.79h-.93V372l3.28-1.33C612.33,369.08,611.54,367.45,610.82,365.79Z"/><path class="cls-1" d="M736.27,383.45a74.22,74.22,0,0,1-114.6,0q-3.27,1.26-6.51,2.6l-.77.33a81.76,81.76,0,0,0,129.15,0l-.83-.36Q739.5,384.7,736.27,383.45Z"/><path class="cls-1" d="M612.29,379.12q2.34-1,4.75-1.91a74.26,74.26,0,0,1-3.86-6.53L609.89,372v8l.07.12Z"/><path class="cls-1" d="M740.9,377.21q2.4.94,4.74,1.91l2.31,1L748,380v-8l-3.25-1.32A74.26,74.26,0,0,1,740.9,377.21Z"/><path class="cls-1" d="M621.66,383.45a74.54,74.54,0,0,1-4.63-6.24q-2.4.94-4.75,1.91l-2.32,1q2.07,3.24,4.42,6.27l.77-.33Q618.39,384.71,621.66,383.45Z"/><path class="cls-1" d="M745.64,379.12q-2.34-1-4.74-1.91a74.61,74.61,0,0,1-4.63,6.24q3.23,1.25,6.43,2.57l.83.36q2.35-3,4.42-6.27Z"/><path class="cls-1" d="M602.39,358.29H608a73.7,73.7,0,0,1-1.91-7.5h-3.74a7.46,7.46,0,0,0-3.72,1,81.58,81.58,0,0,0,3.72,13.16Z"/><path class="cls-1" d="M751.8,350.79a73.83,73.83,0,0,1-1.92,7.5h5.63V365a81.43,81.43,0,0,0,3.7-13l.05-.2a7.46,7.46,0,0,0-3.75-1Z"/><path class="cls-1" d="M748,365.79V372l.5.2,3.21,1.37a81,81,0,0,0,3.79-8.55v-6.71h-5.63a73.81,73.81,0,0,1-2.77,7.5Z"/><path class="cls-1" d="M609.35,372.22l.54-.22v-6.21h.93a73.92,73.92,0,0,1-2.77-7.5h-5.66v6.65a81.13,81.13,0,0,0,3.82,8.61Z"/><path class="cls-1" d="M609.35,372.22l-3.14,1.34q1.7,3.31,3.68,6.43v-8Z"/><path class="cls-1" d="M751.72,373.56l-3.21-1.37-.5-.2v8Q750,376.88,751.72,373.56Z"/><path class="cls-1" d="M744.62,348.51c0,.14-.07.28-.1.43-.12.62-.26,1.24-.4,1.85h7.67c0-.14.06-.29.09-.43l12.44-48.91q-4.05.89-8.17,1.69Z"/><path class="cls-1" d="M613.36,348.71c0-.15-.06-.3-.1-.46l-11.48-45.11q-4.12-.8-8.17-1.69L606,350.11c0,.23.1.46.15.69h7.67C613.65,350.1,613.49,349.41,613.36,348.71Z"/><path class="cls-1" d="M592.23,265.72a91.15,91.15,0,0,1-4.48-28.24,92.72,92.72,0,0,1,.48-9.44,7.51,7.51,0,0,0,0-1.52,11,11,0,0,0-.39-2c1-20.88,9.26-36,25.32-46.14,15.32-9.68,37.46-14.58,65.79-14.58s50.47,4.91,65.8,14.58c16.06,10.14,24.37,25.26,25.33,46.14a11,11,0,0,0-.39,2,7.51,7.51,0,0,0,0,1.52,92.67,92.67,0,0,1,.48,9.44,91.11,91.11,0,0,1-4.47,28.2q-.08.23-.14.47L760.27,287q4.15-.9,8.22-1.88L772.84,268a98.57,98.57,0,0,0,4.83-30.52,99.86,99.86,0,0,0-.52-10.21c.33-3.28.52,4.73.52,1.36,0-54.52-44.21-72.37-98.72-72.37s-98.7,17.86-98.7,72.37c0,3.37.19-4.64.52-1.36a99.88,99.88,0,0,0-.52,10.21A98.6,98.6,0,0,0,585.1,268l4.35,17.08q4.07,1,8.22,1.88l-5.3-20.81Q592.3,266,592.23,265.72Z"/><path class="cls-1" d="M599.72,295.06q-4.14-.85-8.19-1.78l2.08,8.18q4.05.89,8.17,1.69Z"/><path class="cls-1" d="M756.17,303.15q4.12-.8,8.17-1.69l2.08-8.18q-4.05.93-8.19,1.78Z"/><path class="cls-1" d="M760.27,287l-2,8.06q4.14-.85,8.19-1.78l2.08-8.16Q764.42,286.11,760.27,287Z"/><path class="cls-1" d="M597.66,287q-4.15-.9-8.22-1.88l2.08,8.16q4.05.93,8.19,1.78Z"/><path class="cls-1" d="M620.2,368c-.39-.72-.75-1.44-1.12-2.18h-8.26c.72,1.66,1.51,3.29,2.34,4.88Q616.65,369.29,620.2,368Z"/><path class="cls-1" d="M744.76,370.67c.84-1.6,1.63-3.22,2.35-4.88h-8.26q-.54,1.1-1.12,2.17Q741.27,369.28,744.76,370.67Z"/><path class="cls-1" d="M679,403a66.78,66.78,0,0,1-49.83-22.33q-3.73,1.34-7.48,2.79a74.22,74.22,0,0,0,114.6,0q-3.74-1.45-7.48-2.79A66.82,66.82,0,0,1,679,403Z"/><path class="cls-1" d="M740.9,377.21a74.26,74.26,0,0,0,3.86-6.54q-3.48-1.39-7-2.71a66.59,66.59,0,0,1-4,6.51C736.12,375.36,738.53,376.27,740.9,377.21Z"/><path class="cls-1" d="M620.2,368q-3.54,1.32-7,2.7a74.26,74.26,0,0,0,3.86,6.53c2.37-.93,4.78-1.84,7.2-2.73A66.34,66.34,0,0,1,620.2,368Z"/><path class="cls-1" d="M728.78,380.66q3.73,1.34,7.48,2.79a74.61,74.61,0,0,0,4.63-6.24c-2.37-.93-4.78-1.85-7.21-2.74A66.85,66.85,0,0,1,728.78,380.66Z"/><path class="cls-1" d="M629.14,380.66a66.93,66.93,0,0,1-4.91-6.19c-2.42.89-4.83,1.8-7.2,2.73a74.54,74.54,0,0,0,4.63,6.24Q625.4,382,629.14,380.66Z"/><path class="cls-1" d="M613.8,350.79h-7.67a73.7,73.7,0,0,0,1.91,7.5h7.89A66.53,66.53,0,0,1,613.8,350.79Z"/><path class="cls-1" d="M742,358.29h7.89a73.83,73.83,0,0,0,1.92-7.5h-7.67A66.38,66.38,0,0,1,742,358.29Z"/><path class="cls-1" d="M619.08,365.79a66.32,66.32,0,0,1-3.14-7.5H608a73.92,73.92,0,0,0,2.77,7.5Z"/><path class="cls-1" d="M738.85,365.79h8.26a73.81,73.81,0,0,0,2.77-7.5H742A66.13,66.13,0,0,1,738.85,365.79Z"/><path class="cls-1" d="M490.81,945.59a49.84,49.84,0,0,1,42.34-49.26v-7.56a57.31,57.31,0,0,0,0,113.64v-7.56A49.84,49.84,0,0,1,490.81,945.59Z"/><path class="cls-1" d="M590.46,945.59a49.84,49.84,0,0,1-42.32,49.26v7.56a57.31,57.31,0,0,0,0-113.64v7.56A49.84,49.84,0,0,1,590.46,945.59Z"/><path class="cls-1" d="M540.65,1002.91v-7.5h0a50.24,50.24,0,0,1-7.49-.56v7.56a57.62,57.62,0,0,0,7.49.5Z"/><path class="cls-1" d="M540.66,895.76a50.39,50.39,0,0,1,7.49.56v-7.56a57.65,57.65,0,0,0-7.49-.51Z"/><path class="cls-1" d="M540.64,895.76h0v-7.5h0a57.62,57.62,0,0,0-7.49.5v7.56A50.25,50.25,0,0,1,540.64,895.76Z"/><path class="cls-1" d="M540.65,995.41q0,3.75,0,7.5a57.59,57.59,0,0,0,7.5-.51v-7.56A50.23,50.23,0,0,1,540.65,995.41Z"/><path class="cls-1" d="M540.66,888.26h0v7.5h0Z"/><path class="cls-1" d="M540.65,995.41v7.5h0q0-3.75,0-7.5Z"/><path class="cls-1" d="M498.31,945.59a42.39,42.39,0,0,1,34.84-41.65v-7.62a49.83,49.83,0,0,0,0,98.53v-7.62A42.38,42.38,0,0,1,498.31,945.59Z"/><path class="cls-1" d="M583,945.59a42.39,42.39,0,0,1-34.82,41.65v7.62a49.83,49.83,0,0,0,0-98.52v7.62A42.39,42.39,0,0,1,583,945.59Z"/><path class="cls-1" d="M540.64,987.91a42.27,42.27,0,0,1-7.49-.68v7.62a50.24,50.24,0,0,0,7.49.56h0v-7.5Z"/><path class="cls-1" d="M540.64,903.26h0v-7.5h0a50.25,50.25,0,0,0-7.49.56v7.62A42.27,42.27,0,0,1,540.64,903.26Z"/><path class="cls-1" d="M548.15,903.94v-7.62a50.39,50.39,0,0,0-7.49-.56q0,3.75,0,7.5A42.48,42.48,0,0,1,548.15,903.94Z"/><path class="cls-1" d="M540.65,987.91q0,3.75,0,7.5a50.23,50.23,0,0,0,7.5-.56v-7.62A42.36,42.36,0,0,1,540.65,987.91Z"/><path class="cls-1" d="M540.65,987.91h0v7.5h0Q540.65,991.66,540.65,987.91Z"/><path class="cls-1" d="M540.66,903.26q0-3.75,0-7.5h0v7.5Z"/></g></svg>