<svg xmlns="http://www.w3.org/2000/svg" viewBox="0 0 1023.99 1024"><defs><style>.cls-1{fill:#fff;}</style></defs><title>Sparfuchs_Icon</title><g id="Ebene_10" data-name="Ebene 10"><path class="cls-1" d="M230.84,681.82A288.65,288.65,0,1,0,723.6,477.72a291.26,291.26,0,0,0-46.85-38l123.88-50.25-43.32-76.33,24.18-24.3-24.08-39-12.34,7.62L732.73,265l12.06,19.53-23.58,23.69L759.08,375l-114,46.23-.39.39-11,11-10.93,10.92-71.75,71.72c-7.3,15.3-13.12,28.19-17.26,37.62l-.1.23-.85,1.93-.1-.09-.49-.4a20.73,20.73,0,0,0-1.79-1.27c-.08-.13-.16-.27-.25-.4a13.09,13.09,0,0,0-3.2-3.24,13,13,0,0,0-5.45-2.24,13.24,13.24,0,0,0-1.67-.16q1-2.37,2.22-5c2.17-4.88,4.69-10.46,7.54-16.65,3.33-7.22,7.11-15.25,11.31-23.94,10.23-21.14,22.94-46.15,37.72-72.65l2.74-4.89q2.33-4.14,4.66-8.2,3.8-6.63,7.59-13.07c39.47-67.06,79.15-120,118.53-158a363.55,363.55,0,0,1,34.39-29.55L731,195.73l.17-2.88c0-.21,1.09-22.48-8.48-50.51-12-35-34.43-63.11-66.8-83.52-51.08,86.45-57.11,98.11-57.35,98.58l-3.31,6.49-6.59-3.1c-.12-.05-18.6-8.14-69.15-8.14s-69,8.08-69.21,8.17L443.65,164l-3.22-6.59c-.22-.44-6.26-12.1-57.34-98.55C350.54,79.28,328.2,106.89,316.63,141c-9.14,26.92-7.76,47.64-7.75,47.85l.21,2.94-15.83,19.75a417.79,417.79,0,0,1,33.06,30q3.8,3.81,7.53,7.74L336,251.5C379.51,297.67,417.2,354,445.72,402.66q3.9,6.65,7.57,13.08c2,3.55,4,7.05,5.92,10.49l1.45,2.61C475.29,455.22,487.84,480,497.93,501c4.24,8.82,8.05,17,11.4,24.28,2.83,6.17,5.33,11.75,7.48,16.64q1.23,2.8,2.32,5.29a13.13,13.13,0,0,0-1.74.17,13,13,0,0,0-5.39,2.2,13.09,13.09,0,0,0-3.25,3.29l-.25.4a20.69,20.69,0,0,0-1.79,1.27l-.49.4-.06.05-.76-1.76-.16-.36c-4.07-9.34-9.77-22.08-16.94-37.23l-72.15-72.11-10.93-10.92-11-11-.39-.39L279.9,375l37.87-66.73L294.2,284.57l14.11-22.85L296,254.11l-12.34-7.62L257.5,288.81l24.18,24.3-43.32,76.33,123.87,50.25a291.23,291.23,0,0,0-46.85,38A286.76,286.76,0,0,0,230.84,681.82ZM388.93,457.29,491.61,559.91v19.17c-13.17,2.25-29.64,7.11-43.31,17.52-15.69,11.95-24,28.69-24,48.42,0,57.57,53.41,63.54,88.7,67.49,44.43,5.26,44.43,17.75,44.43,21.85,0,5.66-3.08,24.11-42.68,24.11-22.37,0-44.69-11.36-50.81-25.87L461,725.69,413,746.06l3,6.92c12.62,29.52,39.35,48.29,75.68,53.35v28.36h51.84V804.92c17.43-2.43,33.29-9.14,45.2-19.22,15.4-13,23.54-30.78,23.54-51.34,0-59.65-56.68-66.64-94.21-71.26-27-3.21-40.66-6.89-40.66-18.08,0-4.11,1-10.09,9.9-14.54,6.8-3.42,16.73-5.22,28.72-5.22,17.35,0,36.46,8.27,42.6,18.43l3.48,5.75,44.37-20.54L603,622c-7.27-14.87-21.31-35.08-59.57-42.74V563.85L650.06,457.29a261.12,261.12,0,0,1,53,40.94,259.65,259.65,0,0,1-183.6,443.24q-12.28,0-24.36-1.13-10.5-1-20.81-2.76A259.7,259.7,0,0,1,335.89,498.22,261.13,261.13,0,0,1,388.93,457.29Z"/><circle class="cls-1" cx="377.34" cy="373.4" r="13.76"/><circle class="cls-1" cx="661.65" cy="373.4" r="13.76"/></g></svg>