<svg xmlns="http://www.w3.org/2000/svg" viewBox="0 0 1023.99 1024"><defs><style>.cls-1{fill:#fff;}</style></defs><title>Zeichenfläche 1 Kopie 5</title><g id="Ebene_10" data-name="Ebene 10"><path class="cls-1" d="M354.72,567.55a234.59,234.59,0,0,1,45.08-35.27L294.57,489.59l34.8-61.32-19.8-19.9L332.64,371l-4.33-3.5,17.2-22.42A155.22,155.22,0,0,1,344,329.36q-1.88-3.23-3.57-6.48c-2.84,6.61-5.94,13.29-10.37,19.48l-5.94,8.3L318,342.51c-4.79-6.34-9.06-13-13.19-19.47-4.57-7.14-8.9-13.9-13.87-20.27-7.42,5.2-12.17,13-17.2,21.3-1.31,2.16-2.67,4.39-4.08,6.58l-8.25,12.83-5.13-14.37c-3.41-9.57-8.23-21.93-15.42-33.57-6,3.51-11.1,8.32-16.54,13.42-5.13,4.8-10.43,9.76-16.67,13.81l-12.85,8.34,1.3-15.27c.53-6.22,1.57-12.34,2.58-18.26q.36-2.09.7-4.18A216.39,216.39,0,0,1,173,311.69a309.89,309.89,0,0,0-21.87,37.5c-25.5,51.82-35.76,110.35-30.5,174,6.73,81.35,37.43,149.66,91.24,203,26.59,26.38,55.44,45.8,80.87,60.3a234.73,234.73,0,0,1-6.31-54.17A231.5,231.5,0,0,1,354.72,567.55Z"/><path class="cls-1" d="M342.41,285.68c.09.36.17.72.26,1.08Z"/><path class="cls-1" d="M353.45,201.43c-12.67,25.78-16.85,51.51-12.56,76.77-.25-1.48-.48-3-.67-4.44-8.07-62.72,39-110.63,42.56-114.1A164.27,164.27,0,0,0,353.45,201.43Z"/><path class="cls-1" d="M113.19,523.77c-7-84.46,13.33-151.3,45.41-203.57L145.36,328q-3.94,7.06-7.51,14.28C111,396.64,100.22,457.91,105.72,524.39,119.64,692.6,227.9,769.07,298.59,806.83q-1.71-5.08-3.18-10.24C225.74,758.17,126.39,683.16,113.19,523.77Z"/><polygon class="cls-1" points="405.55 138.09 405.54 138.09 383.82 158.67 405.55 138.09"/><path class="cls-1" d="M341.09,279.37q.31,1.73.68,3.46C341.53,281.68,341.3,280.53,341.09,279.37Z"/><path class="cls-1" d="M298.46,181c43-24,75.88-33.74,77.26-34.14l1.16-.34-1.15.34c-3,.88-74.33,22.18-143.83,79.25-29.4,24.14-54,51.1-73.46,80.46l3.27-4.75C202.83,242,258.77,203.1,298.46,181Z"/><path class="cls-1" d="M211.91,726.19c-53.81-53.38-84.51-121.69-91.24-203-5.27-63.61,5-122.14,30.5-174A309.89,309.89,0,0,1,173,311.69l-1.36.82-13.07,7.69c-32.08,52.27-52.4,119.12-45.41,203.57,13.19,159.39,112.55,234.4,182.22,272.82q-1.43-5-2.63-10.09C267.34,772,238.5,752.57,211.91,726.19Z"/><path class="cls-1" d="M344,314.6c-.66,1.52-1.32,3.06-2,4.64q-.76,1.81-1.55,3.63,1.7,3.25,3.57,6.48C343.84,325,343.79,320,344,314.6Z"/><path class="cls-1" d="M345.63,296.84q-1.71-5-3-10.08,1.25,5.1,3,10.15Z"/><path class="cls-1" d="M382.78,159.66l.21-.2.83-.79-.84.79Z"/><path class="cls-1" d="M340.89,278.2q.1.59.2,1.17C341,279,341,278.59,340.89,278.2Z"/><path class="cls-1" d="M142.5,329.67l2.86-1.68q6.1-10.93,13.07-21.46Z"/><polygon class="cls-1" points="405.55 138.08 376.88 146.48 405.54 138.09 405.55 138.08"/><path class="cls-1" d="M341.77,282.83c.2.95.42,1.89.64,2.84Q342.07,284.26,341.77,282.83Z"/><path class="cls-1" d="M198.68,297.6c-1,5.92-2,12-2.58,18.26l-1.3,15.27,12.85-8.34c6.25-4.05,11.55-9,16.67-13.81,5.44-5.1,10.59-9.91,16.54-13.42,7.2,11.64,12,24,15.42,33.57l5.13,14.37,8.25-12.83c1.41-2.2,2.77-4.43,4.08-6.58,5-8.27,9.79-16.1,17.2-21.3,5,6.37,9.3,13.13,13.87,20.27,4.13,6.46,8.4,13.13,13.19,19.47l6.15,8.14,5.94-8.3c4.43-6.19,7.53-12.87,10.37-19.48q-2.33-4.47-4.33-9c-3.56,8.35-6.87,16.74-12.14,24.1-9.86-13.07-17.49-27.66-27.68-40.53a6.53,6.53,0,0,0-9-1.3c-11.29,7.57-16.92,19.46-24,30.44-4.52-12.66-9.68-24.92-17-36.4-2-3.2-6.14-3-9-1.31-12.77,7.41-21.63,19.69-33.81,27.6.71-8.33,2.4-16.56,3.69-24.84.83-5.3-5.85-9.76-10.19-6.07-3.75,3.18-7.61,6.17-11.57,9Q179,303,173,311.69a216.39,216.39,0,0,0,26.35-18.26Q199,295.51,198.68,297.6Z"/><path class="cls-1" d="M377.72,154h0l.08,0,0,0,0,0c-2.24,2.15-69.29,67.57-37.36,150.39v0q1.65,4.28,3.67,8.63c.24-5.08.73-10.52,1.56-16.2q-1.71-5-3-10.15c-.09-.36-.17-.72-.26-1.08-.22-.95-.44-1.89-.64-2.84q-.37-1.73-.68-3.46-.1-.58-.2-1.17c-4.3-25.27-.11-51,12.56-76.77a164.27,164.27,0,0,1,29.34-41.77l.2-.2.84-.79,21.71-20.58-28.66,8.39-1.16.34c-1.38.4-34.28,10.17-77.26,34.14C258.77,203.1,202.83,242,161.7,301.79l-3.27,4.75q-7,10.52-13.07,21.46l13.25-7.8C233.77,197.73,373.49,155.31,377.72,154Z"/><path class="cls-1" d="M377.79,154.05l0,0Z"/><path class="cls-1" d="M173,311.69Q179,303,185.51,294.6c-5.7,4.1-11.6,7.89-17.64,11.44,76.75-111.51,205.63-150.73,209.84-152-4.23,1.26-143.94,43.68-219.11,166.15l13.07-7.69Z"/><path class="cls-1" d="M340.47,322.87q.78-1.82,1.55-3.63c.67-1.58,1.33-3.12,2-4.64,0-.49,0-1,.07-1.49q-2-4.34-3.67-8.63c-1.53,3.09-2.91,6.25-4.26,9.41Q338.14,318.41,340.47,322.87Z"/><path class="cls-1" d="M377.75,154l.08,0Z"/><path class="cls-1" d="M207.27,291.66c-1.29,8.28-3,16.51-3.69,24.84,12.18-7.9,21-20.19,33.81-27.6,2.84-1.65,7-1.89,9,1.31,7.31,11.47,12.47,23.74,17,36.4,7.06-11,12.69-22.87,24-30.44a6.53,6.53,0,0,1,9,1.3C306.5,310.33,314.13,324.92,324,338c5.27-7.36,8.59-15.75,12.14-24.1q-2.14-4.84-3.9-9.74c-1.44,3.11-2.76,6.22-4,9.25-1.57,3.71-3.1,7.32-4.78,10.76-2-3-4-6.05-6-9.2a268.11,268.11,0,0,0-15.25-22.14,13.94,13.94,0,0,0-11-5.38,14.45,14.45,0,0,0-8.07,2.5c-8.11,5.44-13.52,12.56-18.23,19.9a159.9,159.9,0,0,0-12.22-23.65,12.84,12.84,0,0,0-11.07-6,16.21,16.21,0,0,0-8,2.2C226.08,286.79,220,292.5,214.09,298l-.31.29c.31-1.83.61-3.66.9-5.49a13.7,13.7,0,0,0-3.21-11,14.47,14.47,0,0,0-10.9-5.06c29.38-32.68,62.35-56.92,90-73.82A426.43,426.43,0,0,0,241,238a361.72,361.72,0,0,0-55.5,56.61c4-2.84,7.82-5.83,11.57-9C201.42,281.9,208.1,286.35,207.27,291.66Z"/><path class="cls-1" d="M290.65,202.89l2.21-1.34Z"/><path class="cls-1" d="M340.4,304.48v0c-31.93-82.82,35.12-148.24,37.36-150.39C375.6,156.16,308.43,221.61,340.4,304.48Z"/><path class="cls-1" d="M377.83,154l0,0Z"/><path class="cls-1" d="M377.72,154h0Z"/><path class="cls-1" d="M167.87,306c6-3.55,11.93-7.34,17.64-11.44A361.72,361.72,0,0,1,241,238a426.43,426.43,0,0,1,49.59-35.08l0,0,2.21-1.34c4.33-2.61,8.52-5,12.54-7.28a456.89,456.89,0,0,1,48.94-23.67,182.88,182.88,0,0,0-14.12,23.73c-18,36.32-20.72,74.2-8,109.76l0,.06q1.76,4.9,3.9,9.74c1.35-3.16,2.73-6.32,4.26-9.41-32-82.87,35.2-148.32,37.37-150.4l0,0,0,0-.08,0h0C373.51,155.31,244.62,194.53,167.87,306Z"/><path class="cls-1" d="M639.18,532.29l-5.4,2.19-2.15,2.15A225.44,225.44,0,0,1,745,732.33c0,124.55-101,225.52-225.52,225.52a224.45,224.45,0,0,1-115.85-32c-8.42-3.67-16.22-6.75-23.77-9.4l-3.32-1.16L375.33,912q-1.67-4.47-3.17-8.92A226,226,0,0,1,308.46,812c-3.19-1.63-6.5-3.36-9.87-5.16A233.07,233.07,0,1,0,684.26,567.55,234.57,234.57,0,0,0,639.18,532.29Z"/><path class="cls-1" d="M407.35,536.62l-2.15-2.15-5.4-2.19a234.59,234.59,0,0,0-45.08,35.27,231.5,231.5,0,0,0-68.25,164.77,234.73,234.73,0,0,0,6.31,54.17q4.61,2.63,9.06,5A225.79,225.79,0,0,1,407.35,536.62Z"/><path class="cls-1" d="M375.33,912l1.23,3.29,3.32,1.16c7.55,2.64,15.35,5.73,23.77,9.4a226.17,226.17,0,0,1-31.48-22.77Q373.67,907.51,375.33,912Z"/><path class="cls-1" d="M304.85,801.67q-4.61-2.43-9.44-5.09,1.47,5.16,3.18,10.24c3.38,1.8,6.68,3.53,9.87,5.16Q306.54,806.89,304.85,801.67Z"/><path class="cls-1" d="M292.78,786.49q1.2,5.08,2.63,10.09,4.82,2.66,9.44,5.09-1.62-5-3-10.14Q297.39,789.12,292.78,786.49Z"/><path class="cls-1" d="M673.65,578.16A218,218,0,0,1,519.49,950.34a220.78,220.78,0,0,1-35.94-2.94l-3.81-.25.11-.4a216.11,216.11,0,0,1-34.53-9.3q-8.48-.46-17.14-.84l-1.57-.07-1.41-.69c-7.7-3.77-14.82-7.08-21.55-10a224.45,224.45,0,0,0,115.85,32C644,957.84,745,856.88,745,732.33A225.44,225.44,0,0,0,631.63,536.62l-5.46,5.46A219.07,219.07,0,0,1,673.65,578.16Z"/><path class="cls-1" d="M365.33,886.49A217.73,217.73,0,0,1,318.48,817q-4.82-2.38-10-5a226,226,0,0,0,63.7,91.08c-1.64-4.84-3.13-9.62-4.48-14.28C366.9,888,366.11,887.27,365.33,886.49Z"/><path class="cls-1" d="M479.74,947.15l3.81.25q-1.86-.31-3.7-.64Z"/><path class="cls-1" d="M365.33,578.16a219.07,219.07,0,0,1,47.48-36.08l-5.46-5.46A225.79,225.79,0,0,0,301.84,791.54q4.68,2.55,9.16,4.88a218.62,218.62,0,0,1,54.33-218.25Z"/><path class="cls-1" d="M314.4,806.6q-4.63-2.35-9.55-4.93,1.68,5.22,3.61,10.32,5.2,2.66,10,5Q316.31,811.87,314.4,806.6Z"/><path class="cls-1" d="M426.61,936.55l1.57.07q8.67.37,17.14.84A215.36,215.36,0,0,1,406.73,919c-8-3.5-16.12-6.75-24.37-9.64-1.33-3.56-2.57-7.11-3.74-10.64Q373,894,367.69,888.79c1.35,4.66,2.84,9.44,4.48,14.28a226.17,226.17,0,0,0,31.48,22.77c6.73,2.94,13.85,6.25,21.55,10Z"/><path class="cls-1" d="M382.36,909.37c8.25,2.89,16.36,6.15,24.37,9.64a218.25,218.25,0,0,1-28.11-20.28C379.79,902.25,381,905.81,382.36,909.37Z"/><path class="cls-1" d="M311,796.42q-4.47-2.33-9.16-4.88,1.39,5.12,3,10.14,4.91,2.59,9.55,4.93Q312.57,801.56,311,796.42Z"/><path class="cls-1" d="M609.52,573.81a182.46,182.46,0,0,1,92.31,158.52c0,82-54.38,151.48-129,174.36q-3.15,4.91-6.43,9.62A189.89,189.89,0,0,0,605.3,562.95l-.27.27Q607.41,568.53,609.52,573.81Z"/><path class="cls-1" d="M519.49,914.66A182.21,182.21,0,0,1,371.86,839.2c.66,4,1.64,9.53,3,16.07a189.41,189.41,0,0,0,144.64,66.9,191.59,191.59,0,0,0,25.22-1.67q3.3-4.19,6.48-8.59A182.76,182.76,0,0,1,519.49,914.66Z"/><path class="cls-1" d="M337.15,732.33c0-71.8,41.71-134,102.17-163.74l-5.64-5.64a190,190,0,0,0-85.14,252c4.84,2.4,8.71,4.41,11.79,6.23A181.2,181.2,0,0,1,337.15,732.33Z"/><path class="cls-1" d="M561.93,909.67q-3.17,4.64-6.44,9.07,5.54-1.06,11-2.44,3.27-4.71,6.43-9.62Q567.47,908.34,561.93,909.67Z"/><path class="cls-1" d="M354.7,826.63q4.66,8.12,10.07,15.72c-1-5.91-1.44-9.41-1.44-9.41C362,831.1,359,829,354.7,826.63Z"/><path class="cls-1" d="M605,563.21l-5.37,5.37q5,2.47,9.87,5.23Q607.4,568.54,605,563.21Z"/><path class="cls-1" d="M360.34,821.21c-3.08-1.82-6.95-3.83-11.79-6.23q2.88,5.94,6.15,11.64c4.28,2.41,7.26,4.47,8.63,6.31,0,0,.44,3.5,1.44,9.41q4.76,6.69,10.08,12.92c-1.36-6.53-2.34-12-3-16.07A182.72,182.72,0,0,1,360.34,821.21Z"/><path class="cls-1" d="M551.19,911.9q-3.19,4.4-6.48,8.59,5.44-.72,10.77-1.75,3.28-4.43,6.44-9.07Q556.62,910.94,551.19,911.9Z"/><path class="cls-1" d="M643.12,608.7a175,175,0,0,1-64.17,288.14q-3,5-6.07,9.85c74.58-22.88,129-92.38,129-174.36a182.46,182.46,0,0,0-92.31-158.52q2.26,5.64,4.25,11.21A176.4,176.4,0,0,1,643.12,608.7Z"/><path class="cls-1" d="M519.49,907.16a174.94,174.94,0,0,1-74.63-333l-5.53-5.53c-60.46,29.72-102.17,91.95-102.17,163.74a181.2,181.2,0,0,0,23.18,88.89c4.38,2.59,7.19,4.8,9,7.24l1.18,1.59.25,2c0,.1.35,2.73,1.08,7.2a182.3,182.3,0,0,0,179.34,72.7q3.12-4.31,6.13-8.82A176.34,176.34,0,0,1,519.49,907.16Z"/><path class="cls-1" d="M568,900.36q-3,4.75-6.09,9.3,5.54-1.33,11-3,3.1-4.83,6.07-9.85Q573.55,898.78,568,900.36Z"/><path class="cls-1" d="M603.5,578.92q5.23,2.87,10.27,6.11-2-5.57-4.25-11.21-4.84-2.76-9.87-5.23l-.29.29Q601.53,573.87,603.5,578.92Z"/><path class="cls-1" d="M370.52,830l-1.18-1.59c-1.81-2.43-4.62-4.65-9-7.24a182.72,182.72,0,0,0,11.52,18c-.73-4.46-1.07-7.1-1.08-7.2Z"/><path class="cls-1" d="M599.36,568.88l-5.24,5.24q4.76,2.25,9.38,4.8Q601.53,573.87,599.36,568.88Z"/><path class="cls-1" d="M557.32,903.08q-3,4.51-6.13,8.82,5.42-1,10.73-2.23,3.1-4.55,6.09-9.3Q562.72,901.88,557.32,903.08Z"/><path class="cls-1" d="M537.71,640.78a18.11,18.11,0,0,1-.67,4.83c21.15,3.61,40.38,12.17,51.65,35.21l-28.06,13c-6.76-11.17-26-19.75-43.92-19.75-21.57,0-41.31,6.24-41.31,24.42,0,17.15,20.53,20.27,42.35,22.87,37.94,4.68,78.48,11.44,78.48,57.17,0,35.08-29.36,54.83-61.59,57.16v26h-33V837c-29.1-2.6-56.13-15.85-68.34-44.43l30.66-13c7,16.63,30.14,27.29,51.71,27.29,23.39,0,45-8.05,45-28.32,0-17.15-21.57-23.39-45.74-26.25-37.16-4.16-73.54-10.65-73.54-53.79,0-34,30.14-49.63,60.29-53.27v-.74a18.24,18.24,0,0,1,0-7.4v-6.21l-7.5-7.5v15.38c-11.78,2.08-26.35,6.49-38.49,15.73-14.26,10.86-21.8,26.07-21.8,44,0,52.27,48.26,57.67,80.16,61.24,26.32,3.11,39.12,9.26,39.12,18.8,0,4.88-2.7,20.82-37.46,20.82-19.75,0-39.43-10-44.8-22.7L468,769.72l-44.51,18.86,3,6.92C437.75,822,461.66,839,494.15,843.66v25.51h48V842.41c15.5-2.28,29.58-8.3,40.22-17.3,14-11.82,21.37-27.93,21.37-46.59,0-54.13-51.19-60.44-85.09-64.62-23.7-2.82-35.74-6-35.74-15.42,0-3.47.87-8.53,8.43-12.33,6-3,14.76-4.59,25.38-4.59,15.3,0,32.12,7.24,37.5,16.13l3.48,5.75,41.11-19-3.37-6.88c-12.92-26.41-35.35-35-53.29-38.6V626.06l-6.44,6.44A18.08,18.08,0,0,1,537.71,640.78Z"/><path class="cls-1" d="M533.52,652.63c21.45,3.28,35.54,11,44.64,24.8l-15.28,7.08c-10-10.53-28.43-17.95-46.16-17.95-44.06,0-48.81,22.33-48.81,31.92,0,24.49,28.3,27.86,48.93,30.31,40.74,5,71.9,11.87,71.9,49.73,0,31.58-27.44,47.71-54.63,49.68l-7,.5v25.46h-18v-24l-6.83-.61c-34.49-3.08-51-20-58.72-33.18l17.07-7.24c11.25,16.6,35.06,25.24,55,25.24,32.36,0,52.46-13.73,52.46-35.82,0-27.5-38-32-52.4-33.7-17.25-1.93-35.17-4.4-47.93-11.4-12.92-7.09-18.94-18.19-18.94-34.94,0-13.25,5.34-24,15.88-32.07,9.25-7,22.68-11.93,37.8-13.75l2.86-.34a18.16,18.16,0,0,1-3.75-7.84v.74c-30.14,3.64-60.29,19.23-60.29,53.27,0,43.14,36.38,49.63,73.54,53.79,24.17,2.86,45.74,9.09,45.74,26.25,0,20.27-21.57,28.32-45,28.32-21.57,0-44.69-10.65-51.71-27.29l-30.66,13c12.21,28.58,39.24,41.83,68.34,44.43v24.69h33v-26c32.22-2.34,61.59-22.09,61.59-57.16,0-45.73-40.54-52.49-78.48-57.17-21.83-2.6-42.35-5.71-42.35-22.87,0-18.19,19.75-24.42,41.31-24.42,17.93,0,37.16,8.57,43.92,19.75l28.06-13c-11.27-23-30.5-31.6-51.65-35.21a18.19,18.19,0,0,1-3.71,7Z"/><path class="cls-1" d="M501.65,630.87v6.21a18.09,18.09,0,0,1,1.63-4.58Z"/><path class="cls-1" d="M305.31,485.86,338.71,427l-19.64-19.74,19.42-31.46q-2.3-1.94-4.49-3.71l-1.36-1.1-23.06,37.36,19.8,19.9-34.8,61.32L399.8,532.29c2.73-1.64,5.5-3.21,8.29-4.73Z"/><path class="cls-1" d="M419.71,538.37q-3.48,1.8-6.9,3.71l20.88,20.86q3.54-1.8,7.16-3.45Z"/><path class="cls-1" d="M409.43,528.1l-1.34-.54c-2.79,1.52-5.56,3.09-8.29,4.73l5.4,2.19,2.15,2.15c2.26-1.29,4.54-2.54,6.85-3.76Z"/><path class="cls-1" d="M414.2,532.86c-2.3,1.22-4.59,2.46-6.85,3.76l5.46,5.46q3.42-1.92,6.9-3.71Z"/><path class="cls-1" d="M494.15,615.11h2.34l-44.28-44.26q-3.71,1.55-7.35,3.26l49.29,49.26Z"/><path class="cls-1" d="M446.57,565.22l-5.73-5.72q-3.62,1.65-7.16,3.45l5.64,5.64Q442.91,566.82,446.57,565.22Z"/><path class="cls-1" d="M452.21,570.85l-5.64-5.63q-3.66,1.61-7.24,3.36l5.53,5.53Q448.5,572.4,452.21,570.85Z"/><path class="cls-1" d="M529,656.32c-.38.23-.77.46-1.17.66l1.39,1.39Z"/><polygon class="cls-1" points="501.65 622.61 504 622.61 496.49 615.11 494.15 615.11 494.15 623.38 501.65 630.87 501.65 622.61"/><path class="cls-1" d="M507,627.58l-1.53-3.52L504,622.61h-2.35v8.26l1.63,1.63A18.3,18.3,0,0,1,507,627.58Z"/><path class="cls-1" d="M413.66,521.72l-97.6-39.59,32-56.36-19.49-19.58,15.68-25.4q-3-2.61-5.75-5l-19.42,31.46L338.71,427l-33.39,58.84,102.78,41.69q3.71-2,7.49-3.92Z"/><path class="cls-1" d="M426.81,534.87c-2.39,1.12-4.75,2.3-7.1,3.51l21.14,21.13q3.67-1.67,7.42-3.18Z"/><path class="cls-1" d="M415.58,523.64q-3.78,1.89-7.49,3.92l1.34.54,4.77,4.77c2.32-1.23,4.66-2.43,7-3.58Z"/><path class="cls-1" d="M421.23,529.29c-2.37,1.15-4.71,2.35-7,3.58l5.51,5.51c2.35-1.21,4.71-2.39,7.1-3.51Z"/><path class="cls-1" d="M501.48,615.11q-2.16-4.81-4.72-10.34l-36.91-36.89q-3.85,1.39-7.64,3l44.28,44.26Z"/><path class="cls-1" d="M448.27,556.31q-3.75,1.52-7.42,3.18l5.73,5.72q3.71-1.63,7.51-3.09Z"/><path class="cls-1" d="M459.85,567.88l-5.76-5.76q-3.8,1.46-7.51,3.09l5.64,5.63Q456,569.28,459.85,567.88Z"/><path class="cls-1" d="M504.81,622.61q-1.52-3.47-3.33-7.5h-5l7.5,7.5Z"/><path class="cls-1" d="M504.81,622.61H504l1.45,1.45Z"/><circle class="cls-1" cx="402.55" cy="478.61" r="11.32"/><path class="cls-1" d="M719.92,407.28,700.28,427l33.39,58.84L630.89,527.55c2.79,1.52,5.56,3.09,8.29,4.73l105.24-42.69-34.8-61.32,19.8-19.9-25.26-40.92c-2,1.52-3.92,3.12-5.88,4.75Z"/><path class="cls-1" d="M604.8,562.7l.5.25,20.88-20.86q-3.42-1.92-6.9-3.71L601.67,556Q603.29,559.34,604.8,562.7Z"/><path class="cls-1" d="M604.8,562.7q-1.51-3.36-3.13-6.74l-3.54,3.54Q601.51,561,604.8,562.7Z"/><path class="cls-1" d="M629.56,528.1l-4.77,4.77c2.3,1.22,4.59,2.46,6.85,3.76l2.15-2.15,5.4-2.19c-2.73-1.64-5.5-3.21-8.29-4.73Z"/><path class="cls-1" d="M619.27,538.37q3.48,1.8,6.9,3.71l5.46-5.46c-2.26-1.29-4.54-2.54-6.85-3.76Z"/><path class="cls-1" d="M542.15,615.46v10.6l51.46-51.43-.4-.93q-3.19-1.48-6.44-2.84Z"/><path class="cls-1" d="M594.12,574.12l-.91-.42.4.93Z"/><path class="cls-1" d="M605.3,562.95l-.5-.25.23.51Z"/><path class="cls-1" d="M596.06,561.58q1.57,3.35,3.06,6.74l.54.27,5.37-5.37-.23-.51q-3.3-1.66-6.66-3.2Z"/><path class="cls-1" d="M599.11,568.31q-1.48-3.38-3.06-6.74l-3.64,3.64Q595.8,566.7,599.11,568.31Z"/><path class="cls-1" d="M593.21,573.7q-1.37-3.21-2.84-6.43l-3.59,3.59Q590,572.21,593.21,573.7Z"/><path class="cls-1" d="M599.66,568.58l-.54-.27.25.56Z"/><path class="cls-1" d="M590.37,567.26q1.47,3.22,2.84,6.43l.91.42,5.24-5.24-.25-.56q-3.31-1.61-6.7-3.09Z"/><path class="cls-1" d="M509.82,658.38l1.39-1.39c-.4-.21-.79-.43-1.17-.66Z"/><path class="cls-1" d="M534.65,630.68a18.25,18.25,0,0,1,1.06,1.82l6.44-6.44v-10.6l-7.5,7.5Z"/><path class="cls-1" d="M532,627.53a18.38,18.38,0,0,1,2.69,3.16V623l-1.29,1.29Z"/><path class="cls-1" d="M710.43,406.18l-19.49,19.58,32,56.36-97.6,39.59-1.92,1.92q3.78,1.89,7.49,3.92l102.78-41.69L700.28,427l19.64-19.74-21.65-35.07c-1.92,1.6-3.84,3.23-5.77,4.93Z"/><path class="cls-1" d="M598.16,548.88q1.82,3.55,3.52,7.09l17.6-17.59q-3.52-1.82-7.1-3.51Z"/><path class="cls-1" d="M594.24,557.78q2,.84,3.9,1.72l3.54-3.54q-1.7-3.54-3.52-7.09l-5.57,5.57Q593.43,556.11,594.24,557.78Z"/><path class="cls-1" d="M594.24,557.78q-.81-1.67-1.65-3.34l-1.87,1.87Q592.48,557,594.24,557.78Z"/><path class="cls-1" d="M617.75,529.29c2.37,1.15,4.71,2.35,7,3.58l4.77-4.77,1.34-.54q-3.71-2-7.49-3.92Z"/><path class="cls-1" d="M612.17,534.86q3.58,1.68,7.1,3.51l5.51-5.51c-2.32-1.23-4.66-2.43-7-3.58Z"/><path class="cls-1" d="M537.33,615.11h4.82v.35l44.63-44.61q-3.78-1.58-7.64-3l-37.43,37.41C540.13,608.78,538.67,612.06,537.33,615.11Z"/><path class="cls-1" d="M588.68,563.63q-.84-1.78-1.72-3.56l-2.06,2.06Q586.8,562.86,588.68,563.63Z"/><path class="cls-1" d="M598.14,559.5q-1.94-.88-3.9-1.72.92,1.9,1.82,3.8Z"/><path class="cls-1" d="M587,560.07q.88,1.78,1.72,3.56,1.88.77,3.73,1.59l3.64-3.64q-.89-1.9-1.82-3.8-1.75-.75-3.53-1.46Z"/><path class="cls-1" d="M579.14,567.88q3.85,1.39,7.64,3l3.59-3.59q-.83-1.81-1.69-3.63-1.88-.77-3.78-1.51Z"/><path class="cls-1" d="M592.41,565.22q-1.86-.81-3.73-1.59.86,1.82,1.69,3.63Z"/><path class="cls-1" d="M537.33,615.11q-1.77,4-3.27,7.5h.59V623l7.5-7.5v-.35Z"/><path class="cls-1" d="M534.65,623v-.34h-.59l-.7,1.63Z"/><path class="cls-1" d="M400.38,372.7l101.42,25.64,4.75,45.12q12.78,9.19,23.9,19l6.74-64.07,152.54-38.57q1.87-1.53,3.74-3L681.3,340.9l.57-3.25a132.52,132.52,0,0,0-1.93-45.32c-6.53-30.3-22.6-54-47.82-70.6-41.24,69.81-46.22,79.42-46.42,79.81L582.39,308l-6.59-3.09c-.07,0-15.16-6.57-56.31-6.57s-56.24,6.54-56.39,6.6l-6.63,3.14-3.21-6.6c-.18-.35-5.17-10-46.39-79.75-25.17,16.8-40.64,41.93-46,74.83A156.19,156.19,0,0,0,358.91,325Q373.94,349.55,400.38,372.7Z"/><path class="cls-1" d="M371.15,365.31q-6.31-6.75-11.79-13.63l-6.84,8.92Z"/><path class="cls-1" d="M519.49,499.3c2.36,0,4.71,0,7.06.12L528.49,481q-9.26-8.74-19.8-17.09l3.74,35.55C514.78,499.35,517.13,499.3,519.49,499.3Z"/><path class="cls-1" d="M385.19,368.86l15.18,3.84Q374,349.58,358.91,325c.14,6.23.6,11.38,1,15A219.33,219.33,0,0,0,385.19,368.86Z"/><path class="cls-1" d="M529.47,471.64l1-9.22q-11.13-9.75-23.9-19l1.06,10.1Q519.18,462.27,529.47,471.64Z"/><path class="cls-1" d="M361.47,348.94l-2.11,2.74q5.47,6.88,11.79,13.63l14,3.55A219.33,219.33,0,0,1,360,340c.43,3.53.83,5.56.84,5.63Z"/><path class="cls-1" d="M528.49,481l1-9.33q-10.3-9.35-21.87-18.07l1.08,10.3Q519.25,472.2,528.49,481Z"/><path class="cls-1" d="M519.49,542.49c.84,0,1.68,0,2.52,0l3-28.15q-2.74-.07-5.48-.07t-5.48.07l3,28.15C517.81,542.51,518.65,542.49,519.49,542.49Z"/><path class="cls-1" d="M519.49,506.8c2.1,0,4.19,0,6.27.09l.79-7.47c-2.35-.07-4.7-.12-7.06-.12s-4.71,0-7.06.12l.79,7.47C515.31,506.84,517.4,506.8,519.49,506.8Z"/><path class="cls-1" d="M519.49,514.3q2.75,0,5.48.07l.79-7.48c-2.08-.06-4.17-.09-6.27-.09s-4.19,0-6.27.09l.79,7.48Q516.75,514.31,519.49,514.3Z"/><path class="cls-1" d="M518.55,557.5l.94,9,.94-9h-1.89Z"/><path class="cls-1" d="M517,542.52l.79,7.49,1.73,0,1.73,0,.79-7.49c-.84,0-1.68,0-2.52,0S517.81,542.51,517,542.52Z"/><path class="cls-1" d="M517.76,550l.79,7.49h1.89l.79-7.49-1.73,0Z"/><path class="cls-1" d="M490.31,432.5,488,410.32l-58.1-14.69a476.78,476.78,0,0,0,41.74,25.78Q481.35,426.79,490.31,432.5Z"/><path class="cls-1" d="M461.93,506.44a233,233,0,0,1,35.52-6.1l-5.11-48.52q-13.07-9-28-17.27-41.69-23-71.08-48.17l-28.72-7.26C403.73,416.63,437.12,464.88,461.93,506.44Z"/><path class="cls-1" d="M491.32,442.09l-1-9.59q-9-5.69-18.69-11.08a476.78,476.78,0,0,1-41.74-25.78l-19.3-4.88A446.59,446.59,0,0,0,468,428Q480.2,434.73,491.32,442.09Z"/><path class="cls-1" d="M492.34,451.82l-1-9.73Q480.18,434.74,468,428a446.59,446.59,0,0,1-57.41-37.23l-17.3-4.37q29.37,25.1,71.08,48.17Q479.29,442.79,492.34,451.82Z"/><path class="cls-1" d="M499,515.26A218.25,218.25,0,0,0,469.84,520c2.23,3.88,4.38,7.69,6.43,11.39q4.08,7.34,7.86,14.44,8.79-1.66,17.85-2.49Z"/><path class="cls-1" d="M498.23,507.81l-.79-7.47a233,233,0,0,0-35.52,6.1q2,3.43,4,6.79A225.08,225.08,0,0,1,498.23,507.81Z"/><path class="cls-1" d="M499,515.26l-.78-7.45a225.08,225.08,0,0,0-32.3,5.41q2,3.41,3.91,6.74A218.25,218.25,0,0,1,499,515.26Z"/><path class="cls-1" d="M491.43,559.73c5.89,11.45,11.11,22.12,15.6,31.62l-3.49-33.14Q497.44,558.76,491.43,559.73Z"/><path class="cls-1" d="M502,543.3q-9.05.83-17.85,2.49,1.88,3.52,3.68,7,7.38-1.3,15-2Z"/><path class="cls-1" d="M502.76,550.76q-7.57.69-15,2,1.85,3.53,3.62,7,6-1,12.11-1.51Z"/><path class="cls-1" d="M494.88,404.33l3.52,33.46q4.15,2.8,8.14,5.67l-4.75-45.12L400.38,372.7q6.42,5.62,13.51,11.15Z"/><path class="cls-1" d="M512.44,499.42l-3.74-35.55q-4-3.16-8.2-6.25l4.44,42.15Q508.67,499.54,512.44,499.42Z"/><path class="cls-1" d="M349.06,365.11c1.29,1.09,2.56,2.21,3.84,3.32l28.49,7.2q-5.37-5.12-10.23-10.32l-18.63-4.71Z"/><path class="cls-1" d="M413.89,383.86q-7.09-5.53-13.51-11.15l-15.18-3.84q5.5,5.34,11.7,10.7Z"/><path class="cls-1" d="M499.44,447.63q4.16,2.93,8.17,5.94l-1.06-10.1q-4-2.87-8.14-5.67Z"/><path class="cls-1" d="M508.69,463.87l-1.08-10.3q-4-3-8.17-5.94l1.05,10Q504.69,460.71,508.69,463.87Z"/><path class="cls-1" d="M381.38,375.64l15.51,3.92q-6.19-5.36-11.7-10.7l-14-3.55Q376,370.51,381.38,375.64Z"/><path class="cls-1" d="M517,542.52l-3-28.15c-2.51.06-5,.18-7.51.33l3,28.05C511.95,542.62,514.46,542.55,517,542.52Z"/><path class="cls-1" d="M513.22,506.9l-.79-7.47q-3.76.11-7.51.35l.79,7.47C508.21,507.09,510.71,507,513.22,506.9Z"/><path class="cls-1" d="M514,514.37l-.79-7.48c-2.51.07-5,.19-7.51.34l.79,7.46C509,514.55,511.5,514.43,514,514.37Z"/><path class="cls-1" d="M511,557.69l4.69,44.59,3.77-35.82-.94-9Q514.78,557.52,511,557.69Z"/><path class="cls-1" d="M517.76,550l-.79-7.49c-2.52,0-5,.1-7.52.23l.79,7.47C512.73,550.1,515.24,550,517.76,550Z"/><path class="cls-1" d="M517.76,550c-2.52,0-5,.09-7.52.21l.79,7.47q3.75-.18,7.52-.19Z"/><path class="cls-1" d="M488,410.32l2.33,22.17q4.13,2.62,8.1,5.3l-3.52-33.46-81-20.48q7.62,5.94,16,11.78Z"/><path class="cls-1" d="M504.93,499.77l-4.44-42.15q-4-2.93-8.15-5.8l5.11,48.52Q501.18,500,504.93,499.77Z"/><path class="cls-1" d="M393.28,386.38q-6.23-5.33-11.9-10.75l-28.49-7.2q5.91,5.18,11.67,10.69Z"/><path class="cls-1" d="M491.32,442.09q4.14,2.73,8.12,5.54l-1-9.83q-4-2.68-8.1-5.3Z"/><path class="cls-1" d="M429.87,395.63q-8.38-5.84-16-11.78l-17-4.3q6.46,5.59,13.68,11.2Z"/><path class="cls-1" d="M492.34,451.82q4.17,2.87,8.15,5.8l-1.05-10q-4-2.81-8.12-5.54Z"/><path class="cls-1" d="M410.58,390.75q-7.24-5.61-13.68-11.2l-15.51-3.92q5.67,5.42,11.9,10.75Z"/><path class="cls-1" d="M509.45,542.75l-3-28.05q-3.75.22-7.48.56l3,28C504.45,543.07,506.95,542.88,509.45,542.75Z"/><path class="cls-1" d="M505.72,507.24l-.79-7.47q-3.75.23-7.48.57l.79,7.47Q502,507.46,505.72,507.24Z"/><path class="cls-1" d="M506.5,514.7l-.79-7.46q-3.76.23-7.48.57l.78,7.45Q502.75,514.91,506.5,514.7Z"/><path class="cls-1" d="M511,557.69c-2.51.12-5,.3-7.49.52L507,591.35c3,6.35,5.68,12.18,8,17.37l.68-6.43Z"/><path class="cls-1" d="M509.45,542.75c-2.51.13-5,.32-7.48.55l.79,7.46c2.48-.23,5-.42,7.48-.54Z"/><path class="cls-1" d="M502.76,550.76l.78,7.45c2.49-.22,5-.4,7.49-.52l-.79-7.47C507.73,550.35,505.24,550.54,502.76,550.76Z"/><path class="cls-1" d="M544.18,475.21a292,292,0,0,1,26.11,29.63q2.6.57,5.17,1.21c30-52.42,60.45-94.22,90.87-124.88L551,410.32Z"/><path class="cls-1" d="M547.73,501q-2.73-3.14-5.6-6.25l-.59,5.6C543.61,500.53,545.67,500.75,547.73,501Z"/><path class="cls-1" d="M559,502.62q5.7,1,11.33,2.21a292,292,0,0,0-26.11-29.62l-1,9.68Q551.53,493.54,559,502.62Z"/><path class="cls-1" d="M547.73,501q5.65.68,11.23,1.63-7.43-9.07-15.8-17.73l-1,9.85Q545,497.85,547.73,501Z"/><path class="cls-1" d="M537,543.3q8.57.78,16.92,2.31c3.63-7,7.47-14.28,11.51-21.66l.09-.16q-1.9-2.72-3.9-5.43a218.74,218.74,0,0,0-21.67-3.1Z"/><path class="cls-1" d="M567.81,519.65q-3.08-.69-6.18-1.29,2,2.71,3.9,5.43C566.29,522.4,567,521,567.81,519.65Z"/><path class="cls-1" d="M575.46,506q-2.58-.63-5.17-1.21,1.7,2.21,3.33,4.43Z"/><path class="cls-1" d="M540.75,507.81q7.14.67,14.14,1.77-3.46-4.32-7.16-8.58c-2.06-.25-4.12-.46-6.19-.66Z"/><path class="cls-1" d="M566,511.62q2.8.59,5.58,1.25c.68-1.2,1.35-2.41,2-3.61q-1.64-2.22-3.33-4.43-5.63-1.25-11.33-2.21Q562.6,507.07,566,511.62Z"/><path class="cls-1" d="M554.89,509.58q5.61.88,11.13,2-3.42-4.55-7.06-9-5.58-.95-11.23-1.63Q551.43,505.26,554.89,509.58Z"/><path class="cls-1" d="M540,515.26a218.74,218.74,0,0,1,21.67,3.1q-3.25-4.41-6.74-8.78-7-1.1-14.14-1.77Z"/><path class="cls-1" d="M571.59,512.87q-2.78-.66-5.58-1.25,1.81,2.41,3.56,4.84C570.25,515.25,570.92,514.06,571.59,512.87Z"/><path class="cls-1" d="M561.63,518.36q3.1.6,6.18,1.29l1.76-3.19q-1.75-2.43-3.56-4.84-5.52-1.16-11.12-2Q558.39,513.95,561.63,518.36Z"/><path class="cls-1" d="M546.83,559.61q-5.65-.88-11.38-1.4l-3.38,32.11C536.36,581,541.3,570.69,546.83,559.61Z"/><path class="cls-1" d="M536.23,550.76q7.14.65,14.12,1.85,1.76-3.46,3.58-7-8.34-1.53-16.92-2.31Z"/><path class="cls-1" d="M546.83,559.61q1.72-3.45,3.52-7-7-1.19-14.12-1.85l-.78,7.45Q541.18,558.73,546.83,559.61Z"/><path class="cls-1" d="M530.44,462.42q3.52,3.08,6.89,6.21l6.77-64.3,133.1-33.65q6.27-5.77,12.53-10.9L537.19,398.35Z"/><path class="cls-1" d="M534.05,499.77l1.28-12.13q-3.33-3.36-6.84-6.68l-1.94,18.46Q530.31,499.53,534.05,499.77Z"/><path class="cls-1" d="M536.34,478.07l1-9.44q-3.36-3.13-6.89-6.21l-1,9.22Q533,474.82,536.34,478.07Z"/><path class="cls-1" d="M535.33,487.64l1-9.57q-3.36-3.25-6.86-6.43l-1,9.33Q532,484.28,535.33,487.64Z"/><path class="cls-1" d="M522,542.52c2.52,0,5,.1,7.52.23l3-28.05c-2.5-.15-5-.26-7.51-.33Z"/><path class="cls-1" d="M533.27,507.24l.79-7.47q-3.74-.23-7.5-.35l-.79,7.47C528.28,507,530.78,507.09,533.27,507.24Z"/><path class="cls-1" d="M532.48,514.7l.79-7.46c-2.49-.15-5-.27-7.51-.34l-.79,7.48C527.49,514.43,530,514.55,532.48,514.7Z"/><path class="cls-1" d="M519.49,566.46l3.77,35.82L528,557.69q-3.75-.18-7.52-.19Z"/><path class="cls-1" d="M521.22,550c2.52,0,5,.09,7.52.21l.79-7.47c-2.49-.13-5-.2-7.52-.23Z"/><path class="cls-1" d="M520.44,557.5q3.77,0,7.52.19l.79-7.47c-2.49-.12-5-.19-7.52-.21Z"/><path class="cls-1" d="M516.82,612.68l1.08,2.44H521l1.26-2.89,1-9.94-3.77-35.82-3.77,35.82Z"/><path class="cls-1" d="M521,615.11H517.9l1.55,3.53Z"/><path class="cls-1" d="M515.72,602.28l-.68,6.43,1.77,4Z"/><path class="cls-1" d="M537.33,468.63q3.51,3.26,6.85,6.58L551,410.32l115.33-29.16q5.43-5.47,10.86-10.48L544.1,404.33Z"/><path class="cls-1" d="M541.54,500.34l.59-5.6q-3.3-3.57-6.79-7.1l-1.28,12.13C536.56,499.92,539.05,500.11,541.54,500.34Z"/><path class="cls-1" d="M543.16,484.89l1-9.68q-3.34-3.31-6.85-6.58l-1,9.44Q539.83,481.44,543.16,484.89Z"/><path class="cls-1" d="M542.13,494.74l1-9.85q-3.33-3.45-6.82-6.82l-1,9.57Q538.82,491.17,542.13,494.74Z"/><path class="cls-1" d="M529.53,542.75c2.51.13,5,.32,7.48.55l3-28q-3.73-.34-7.48-.56Z"/><path class="cls-1" d="M540.75,507.81l.79-7.47c-2.49-.23-5-.42-7.48-.57l-.79,7.47Q537,507.46,540.75,507.81Z"/><path class="cls-1" d="M532.48,514.7q3.75.22,7.48.56l.78-7.45q-3.72-.35-7.48-.57Z"/><path class="cls-1" d="M523.9,608.38c2.38-5.39,5.1-11.45,8.16-18.05l3.38-32.11c-2.49-.22-5-.4-7.49-.52l-4.69,44.59Z"/><path class="cls-1" d="M528.74,550.22c2.51.13,5,.32,7.48.54l.79-7.46c-2.48-.23-5-.42-7.48-.55Z"/><path class="cls-1" d="M528,557.69c2.51.12,5,.3,7.49.52l.78-7.45c-2.48-.23-5-.42-7.48-.54Z"/><path class="cls-1" d="M523.9,608.38l-.64-6.09-1,9.94Z"/><circle class="cls-1" cx="636.43" cy="478.61" r="11.32"/><path class="cls-1" d="M513.38,623.48l-.42.32.49-.18Z"/><path class="cls-1" d="M525.51,623.6l.52.19c-.16-.12-.32-.25-.49-.37l0,.1Z"/><path class="cls-1" d="M525.51,623.6v-.07l0,.06Z"/><path class="cls-1" d="M513.48,623.6l0-.22-.12.09.06.14Z"/><path class="cls-1" d="M519.49,622.56c.36,0,.72,0,1.08.05h.55l.1-.91a9.91,9.91,0,0,0-3.45,0l.1.91h.55C518.77,622.59,519.13,622.56,519.49,622.56Z"/><path class="cls-1" d="M517.86,622.61v0l.55,0Z"/><path class="cls-1" d="M521.12,622.64v0h-.55Z"/><path class="cls-1" d="M514.87,622.61h3l-.1-.91A10.62,10.62,0,0,0,514.87,622.61Z"/><path class="cls-1" d="M517.86,622.64v0h-3a10.73,10.73,0,0,0-1.37.77l0,.22A18.07,18.07,0,0,1,517.86,622.64Z"/><path class="cls-1" d="M525.5,623.53l0-.1-.06,0Z"/><path class="cls-1" d="M524.11,622.61a10.64,10.64,0,0,0-2.9-.91l-.1.91Z"/><path class="cls-1" d="M521.12,622.61v0a18,18,0,0,1,4.35.95l0-.06v-.14a10.79,10.79,0,0,0-1.37-.77Z"/><path class="cls-1" d="M516.89,642.67a3.2,3.2,0,0,0,5.2,0,10.4,10.4,0,0,1-5.2,0Z"/><path class="cls-1" d="M519,637.61a3.22,3.22,0,0,0-2.73,3.17,3.19,3.19,0,0,0,.62,1.89,10.4,10.4,0,0,0,5.2,0,3.2,3.2,0,0,0-2.1-5.06l-.5.5Z"/><path class="cls-1" d="M519.28,637.58l-.29,0,.5.5Z"/><path class="cls-1" d="M520,637.61l-.29,0-.21.52Z"/><path class="cls-1" d="M519.44,637.56l.06.54.06-.54h-.11Z"/><path class="cls-1" d="M519.44,637.56l-.15,0,.21.52Z"/><path class="cls-1" d="M519.7,637.58l-.15,0-.06.54Z"/><path class="cls-1" d="M510,656.32l1-9a10.67,10.67,0,0,1-1.83-3.72v8.3l-3.75.45A18.32,18.32,0,0,0,510,656.32Z"/><path class="cls-1" d="M516.7,651.5l-5.5,5.49a18.06,18.06,0,0,0,16.57,0l-5.47-5.47-2.79,7.14Z"/><path class="cls-1" d="M533.33,652.6l-4.85-.74.47,4.46A18.35,18.35,0,0,0,533.33,652.6Z"/><path class="cls-1" d="M534.65,645.22l2.39.39a17.94,17.94,0,0,0-1.34-13.1l-1.06,1.05Z"/><path class="cls-1" d="M501.27,640.78a18.24,18.24,0,0,0,.38,3.7v-7.4A18.26,18.26,0,0,0,501.27,640.78Z"/><path class="cls-1" d="M509.15,651.87v-8.3a10.43,10.43,0,0,1-.08-5.28l-5.79-5.79a18.09,18.09,0,0,0-1.63,4.58v7.4a18.16,18.16,0,0,0,3.75,7.84Z"/><path class="cls-1" d="M534.65,633.56l-4.74,4.73a10.6,10.6,0,0,1-1.91,9l.48,4.58,4.85.74a18.19,18.19,0,0,0,3.71-7l-2.39-.39Z"/><path class="cls-1" d="M527.15,648.28a10.7,10.7,0,0,1-4.66,2.79l-.18.45,5.47,5.47c.4-.21.79-.43,1.17-.66l-.47-4.46-1.33-.2Z"/><path class="cls-1" d="M509.15,635.06V638a10.67,10.67,0,0,1,.5-1.46A10.73,10.73,0,0,1,509.15,635.06Z"/><path class="cls-1" d="M509.15,635.06a10.71,10.71,0,0,1-.38-2.79c0-.15,0-.29,0-.43q-.82-1.94-1.82-4.27a18.3,18.3,0,0,0-3.69,4.92l5.79,5.79.08-.3Z"/><path class="cls-1" d="M527.15,651.66l1.33.2-.48-4.58a10.67,10.67,0,0,1-.85,1Z"/><path class="cls-1" d="M516.54,651.08a10.72,10.72,0,0,1-5.55-3.79l-1,9c.38.23.77.46,1.17.66l5.5-5.49Z"/><path class="cls-1" d="M535.7,632.5a18.25,18.25,0,0,0-1.06-1.82v2.87Z"/><path class="cls-1" d="M532,627.53c-.65,1.52-1.24,2.93-1.77,4.21,0,.18,0,.35,0,.54a10.68,10.68,0,0,1-.88,4.25,10.56,10.56,0,0,1,.58,1.76l4.74-4.73v-2.87A18.38,18.38,0,0,0,532,627.53Z"/><path class="cls-1" d="M519.49,651.5a10.71,10.71,0,0,1-2.49-.3l-.3.3,2.82,7.17,2.79-7.14-.32-.32A10.76,10.76,0,0,1,519.49,651.5Z"/><path class="cls-1" d="M522.31,651.52l.18-.45-.5.13Z"/><path class="cls-1" d="M509.58,628.2,508,626.64c-.37.3-.71.62-1.05.94q1,2.32,1.82,4.27A10.68,10.68,0,0,1,509.58,628.2Z"/><path class="cls-1" d="M513,623.79a18.21,18.21,0,0,0-4.93,2.85l1.56,1.56A10.74,10.74,0,0,1,513,623.79Z"/><path class="cls-1" d="M516.7,651.5l.3-.3-.46-.12Z"/><path class="cls-1" d="M530.19,631.74c.53-1.28,1.13-2.69,1.77-4.21-.32-.3-.65-.61-1-.89l-1.56,1.56A10.68,10.68,0,0,1,530.19,631.74Z"/><path class="cls-1" d="M529.41,628.2l1.56-1.56a18.23,18.23,0,0,0-4.93-2.85A10.74,10.74,0,0,1,529.41,628.2Z"/><path class="cls-1" d="M510.26,635.34l-1.11-2.66v2.38a10.73,10.73,0,0,0,.5,1.46A10.54,10.54,0,0,1,510.26,635.34Z"/><path class="cls-1" d="M508.79,631.84c0,.14,0,.29,0,.43a10.71,10.71,0,0,0,.38,2.79v-2.38Z"/><path class="cls-1" d="M529.33,636.53a10.68,10.68,0,0,0,.88-4.25c0-.18,0-.36,0-.54l-1.48,3.58A10.61,10.61,0,0,1,529.33,636.53Z"/><path class="cls-1" d="M509.15,632.69l1.11,2.66a10.74,10.74,0,0,1,2.26-2.7l.14-1.36-1.17-1.17h-2.35Z"/><path class="cls-1" d="M509.15,630.11h2.35l-1.92-1.92a10.68,10.68,0,0,0-.79,3.65l.36.84Z"/><polygon class="cls-1" points="512.79 630.11 511.5 630.11 512.67 631.28 512.79 630.11"/><path class="cls-1" d="M509.58,628.2l1.92,1.92h1.29l.68-6.42,0-.07-.49.18A10.74,10.74,0,0,0,509.58,628.2Z"/><path class="cls-1" d="M526.46,632.64c.24.2.47.42.69.64v-2.83l-.83.83Z"/><path class="cls-1" d="M527.15,630.45v2.83a10.77,10.77,0,0,1,1.56,2l1.48-3.58a10.68,10.68,0,0,0-.78-3.55Z"/><path class="cls-1" d="M526.32,631.28l-.7.7q.44.31.84.66Z"/><path class="cls-1" d="M512.67,631.28l-.14,1.36a10.29,10.29,0,0,1,.84-.65Z"/><path class="cls-1" d="M513.37,632a10.65,10.65,0,0,1,3-1.46l-.17-.41h-3.42l-.12,1.17Z"/><path class="cls-1" d="M513.47,623.69l-.68,6.42h3.42C515.43,628.26,514.51,626.11,513.47,623.69Z"/><polygon class="cls-1" points="527.15 630.45 527.15 630.11 526.19 630.11 526.32 631.28 527.15 630.45"/><path class="cls-1" d="M526.19,630.11h1v.34l2.26-2.25a10.74,10.74,0,0,0-3.37-4.4l-.52-.19Z"/><path class="cls-1" d="M522.57,630.51a10.7,10.7,0,0,1,3,1.47l.7-.7-.12-1.17h-3.46Z"/><path class="cls-1" d="M522.73,630.11h3.46l-.69-6.51h0C524.43,626.05,523.51,628.24,522.73,630.11Z"/><path class="cls-1" d="M513.44,623.62l0,.07v-.09Z"/><path class="cls-1" d="M518.41,622.61h2.16c-.36,0-.72-.05-1.08-.05S518.77,622.59,518.41,622.61Z"/><path class="cls-1" d="M519.49,630.06c.28,0,.56,0,.84,0l.79-7.46-.55,0h-2.16l-.55,0,.79,7.46C518.93,630.08,519.21,630.06,519.49,630.06Z"/><path class="cls-1" d="M516.21,630.11l.17.41a10.7,10.7,0,0,1,2-.41Z"/><path class="cls-1" d="M518.41,630.11h.24l-.79-7.46a18.07,18.07,0,0,0-4.39,1v.09c1,2.42,2,4.57,2.74,6.42Z"/><path class="cls-1" d="M522.57,630.51l.17-.4h-2.16A10.68,10.68,0,0,1,522.57,630.51Z"/><path class="cls-1" d="M520.58,630.11h2.16c.78-1.88,1.69-4.06,2.74-6.53a18,18,0,0,0-4.35-.95l-.79,7.46Z"/><path class="cls-1" d="M511.66,640.88l-2.51-2.51v5.2a10.67,10.67,0,0,0,1.83,3.72Z"/><path class="cls-1" d="M509.07,638.29a10.43,10.43,0,0,0,.08,5.28v-5.2Z"/><path class="cls-1" d="M528,647.29a10.6,10.6,0,0,0,1.91-9l-2.59,2.58Z"/><path class="cls-1" d="M522.48,651.07a10.7,10.7,0,0,0,4.66-2.79v-7.22l-1.24,1.24Z"/><path class="cls-1" d="M509.65,636.53a10.67,10.67,0,0,0-.5,1.46v.38l2.51,2.51.12-1.16A10.73,10.73,0,0,1,509.65,636.53Z"/><path class="cls-1" d="M527.15,641.05v7.22a10.67,10.67,0,0,0,.85-1l-.67-6.41Z"/><path class="cls-1" d="M509.15,638l-.08.3.08.08Z"/><path class="cls-1" d="M516.54,651.08l-3.45-8.78-1.43-1.42-.68,6.41A10.72,10.72,0,0,0,516.54,651.08Z"/><path class="cls-1" d="M527.33,640.88l2.59-2.58a10.56,10.56,0,0,0-.58-1.76,10.71,10.71,0,0,1-2.13,3.19Z"/><path class="cls-1" d="M526.75,640.16l-.27.67-.57,1.47,1.24-1.24v-1.28C527,639.91,526.88,640,526.75,640.16Z"/><path class="cls-1" d="M512.51,640.85l-.28-.69c-.15-.14-.31-.29-.45-.44l-.12,1.16,1.43,1.42Z"/><path class="cls-1" d="M527.15,641.05l.18-.18-.12-1.16-.05.06Z"/><path class="cls-1" d="M519.49,651.5a10.76,10.76,0,0,0,2.49-.3l-2.49-2.49L517,651.2A10.71,10.71,0,0,0,519.49,651.5Z"/><path class="cls-1" d="M519.49,648.71,522,651.2l.5-.13,3.42-8.78Z"/><path class="cls-1" d="M516.54,651.08l.46.12,2.49-2.49-6.41-6.4Z"/><path class="cls-1" d="M519.49,644a3.21,3.21,0,0,1-2.6-1.33,10.68,10.68,0,0,1-4.66-2.51l.28.69.57,1.45,6.41,6.4,6.42-6.41.57-1.47.27-.67a10.67,10.67,0,0,1-4.65,2.51A3.21,3.21,0,0,1,519.49,644Z"/><path class="cls-1" d="M510.26,635.34a10.54,10.54,0,0,0-.61,1.19,10.73,10.73,0,0,0,2.13,3.19l.06-.54C511.47,638.25,510.94,637,510.26,635.34Z"/><polygon class="cls-1" points="527.15 639.19 527.15 639.15 527.14 639.16 527.15 639.19"/><path class="cls-1" d="M527.15,639.15v0l.05.52a10.71,10.71,0,0,0,2.13-3.19,10.61,10.61,0,0,0-.63-1.21C528,636.94,527.52,638.23,527.15,639.15Z"/><path class="cls-1" d="M526.75,640.16c.14-.12.27-.25.4-.38v-.62Z"/><path class="cls-1" d="M511.78,639.72c.15.15.3.29.45.44l-.4-1Z"/><path class="cls-1" d="M527.2,639.71l-.05-.52v.58Z"/><path class="cls-1" d="M512.53,632.64a10.74,10.74,0,0,0-2.26,2.7c.68,1.62,1.2,2.91,1.58,3.83Z"/><path class="cls-1" d="M526.46,632.64l.69,6.52h0v-5.87C526.93,633.06,526.7,632.84,526.46,632.64Z"/><path class="cls-1" d="M528.71,635.32a10.77,10.77,0,0,0-1.56-2v5.87C527.52,638.23,528,636.94,528.71,635.32Z"/><path class="cls-1" d="M522.71,640.78a3.19,3.19,0,0,1-.62,1.89,10.67,10.67,0,0,0,4.65-2.51l.4-1-.69-6.52q-.41-.35-.84-.66L520,637.61A3.22,3.22,0,0,1,522.71,640.78Z"/><path class="cls-1" d="M516.27,640.78a3.22,3.22,0,0,1,2.73-3.17L513.37,632a10.29,10.29,0,0,0-.84.65l-.69,6.53.4,1a10.68,10.68,0,0,0,4.66,2.51A3.19,3.19,0,0,1,516.27,640.78Z"/><path class="cls-1" d="M519.28,637.58c-.4-1-1.38-3.43-2.9-7.06a10.65,10.65,0,0,0-3,1.46l5.63,5.62Z"/><path class="cls-1" d="M520,637.61l5.63-5.62a10.7,10.7,0,0,0-3-1.47c-1.51,3.64-2.48,6.07-2.87,7.07Z"/><path class="cls-1" d="M519.44,637.56h.11l.78-7.45h-1.68Z"/><path class="cls-1" d="M520.33,630.11h0c-.28,0-.56,0-.84,0s-.56,0-.84,0h1.68Z"/><path class="cls-1" d="M519.44,637.56l-.78-7.45h-.24a10.7,10.7,0,0,0-2,.41c1.52,3.63,2.5,6.06,2.9,7.06Z"/><path class="cls-1" d="M518.65,630.1h0Z"/><path class="cls-1" d="M520.33,630.11l-.78,7.45.15,0c.4-1,1.36-3.42,2.87-7.07a10.68,10.68,0,0,0-2-.4Z"/><path class="cls-1" d="M520.58,630.11h0Z"/></g></svg>