<svg xmlns="http://www.w3.org/2000/svg" viewBox="0 0 1023.99 1024"><defs><style>.cls-1,.cls-3{fill:#fff;}.cls-1,.cls-2{stroke:#008283;}.cls-1,.cls-2,.cls-5{stroke-miterlimit:10;stroke-width:15px;}.cls-2,.cls-4,.cls-5{fill:#008283;}.cls-5{stroke:#fff;}</style></defs><title>Sparfuchs</title><g id="Ebene_1" data-name="Ebene 1"><path class="cls-1" d="M524.44,948.53q5.73.37,11.45.77-5.69-.54-11.38-1C524.5,948.36,524.47,948.44,524.44,948.53Z"/><path class="cls-2" d="M384.51,829.39s5.3,42.44,21.13,84.84a470.7,470.7,0,0,1,51.21,21.93c41.17,1.77,82.26,5,123.15,10.25,114.06-125.76,165.43-431.29-79.31-566.52-266-147-100.08-304.1-100.08-304.1s-320,93.63-293.75,410.43C128.9,752.45,367.51,806.6,384.51,829.39Z"/><path class="cls-1" d="M200,221.83c4.82-4.09,12.23.85,11.31,6.74-1.43,9.19-3.31,18.33-4.09,27.57,13.52-8.77,23.35-22.41,37.53-30.63,3.16-1.83,7.72-2.1,10,1.45,8.11,12.73,13.84,26.35,18.85,40.4,7.84-12.19,14.08-25.38,26.61-33.79a7.25,7.25,0,0,1,10,1.45c11.31,14.29,19.77,30.48,30.72,45,8.07-11.27,12-24.72,18.22-37.22-36-93.49,41.54-167,41.54-167s-146.44,42.9-233,168.75A229.79,229.79,0,0,0,200,221.83Z"/><circle class="cls-1" cx="557.85" cy="717.72" r="250.33"/><path class="cls-3" d="M557.86,920.93c-112.06,0-203.22-91.16-203.22-203.22S445.8,514.49,557.86,514.49s203.22,91.17,203.22,203.22S669.91,920.93,557.86,920.93Z"/><path class="cls-4" d="M557.86,522a195.06,195.06,0,1,1-76.18,15.37A194.47,194.47,0,0,1,557.86,522m0-15c-116.38,0-210.72,94.34-210.72,210.72s94.34,210.72,210.72,210.72,210.72-94.34,210.72-210.72S674.23,507,557.86,507Z"/><path class="cls-1" d="M555.93,705.54c-24.23-2.88-47-6.34-47-25.38,0-20.19,21.92-27.11,45.86-27.11,19.9,0,41.25,9.52,48.75,21.92l31.15-14.42c-13-26.54-35.48-35.77-60-39.51V595.94H538V621c-33.46,4-66.92,21.34-66.92,59.13,0,47.88,40.38,55.09,81.63,59.71C579.58,743,603.52,750,603.52,769c0,22.5-23.94,31.44-49.9,31.44-23.94,0-49.61-11.83-57.4-30.29l-34,14.42C475.75,816.3,505.74,831,538,833.89v27.4h36.63V832.45C610.45,829.85,643,807.93,643,769,643,718.23,598,710.73,555.93,705.54Z"/><polygon class="cls-1" points="363.48 311.4 335.38 356.91 357.18 378.82 320.12 444.14 435.68 491.02 557.86 613.13 530.54 353.64 363.48 311.4"/><circle class="cls-4" cx="428.05" cy="436.09" r="12.57"/><polygon class="cls-1" points="752.23 311.4 780.33 356.91 758.53 378.82 795.6 444.14 680.02 491.02 557.86 613.13 585.17 353.64 752.23 311.4"/><path class="cls-5" d="M746.3,281.07S762.87,187.24,680,139.41c-51.24,86.67-56.09,96.35-56.09,96.35s-17.07-8.09-66.08-8.09-66.08,8.09-66.08,8.09-4.85-9.69-56.1-96.35c-82.85,47.83-62.15,150.68-62.15,150.68L357.18,311.4C477.4,408.5,557.86,613.13,557.86,613.13s87.21-223.66,204.8-310.75Z"/><circle class="cls-4" cx="687.66" cy="436.09" r="12.57"/><circle class="cls-4" cx="557.86" cy="606.66" r="11.9"/><circle class="cls-2" cx="557.86" cy="616.1" r="11.9"/></g></svg>