<svg xmlns="http://www.w3.org/2000/svg" viewBox="0 0 1023.99 1024"><defs><style>.cls-1{fill:#fff;}</style></defs><title>Sparfuchs_Icon</title><g id="Ebene_10" data-name="Ebene 10"><path class="cls-1" d="M554.22,902.43V878.89L705.64,713.38l40.75-26.87,189.1-76.71L869.36,493.29l36.91-37.09-36.75-59.53-26.33,26.09,18.4,29.81-36,36.17,57.81,101.86-174,70.58-.59.59L692.1,678.49l-16.68,16.67L565.89,804.64c-11.14,23.35-20,43-26.35,57.44l-.15.35-1.29,3-.16-.14-.75-.61a31.94,31.94,0,0,0-2.73-1.94c-.13-.2-.25-.41-.38-.6a20,20,0,0,0-4.88-5,19.76,19.76,0,0,0-8.32-3.42,20.25,20.25,0,0,0-2.55-.25q1.59-3.61,3.38-7.66c3.31-7.46,7.16-16,11.51-25.41,5.08-11,10.85-23.28,17.27-36.54,15.61-32.28,35-70.44,57.58-110.91q2.08-3.72,4.19-7.47,3.56-6.31,7.11-12.51,5.79-10.12,11.59-20C691.2,530.63,751.77,449.88,811.89,391.76a554.91,554.91,0,0,1,52.49-45.1l-23.82-29.72.25-4.39c0-.32,1.67-34.31-12.95-77.11-18.28-53.5-52.55-96.34-102-127.49-78,132-87.18,149.78-87.54,150.48l-5.05,9.9-10.06-4.73c-.18-.08-28.39-12.42-105.56-12.42S412.28,263.53,412,263.65l-10.12,4.8L397,258.39c-.34-.67-9.55-18.47-87.53-150.45C259.75,139.17,225.65,181.32,208,233.38c-14,41.1-11.85,72.73-11.83,73l.33,4.48-24.17,30.15a637.75,637.75,0,0,1,50.46,45.81q5.79,5.82,11.5,11.81c1.08,1.13,2.16,2.26,3.24,3.4C304,472.55,361.5,558.6,405.05,632.82q6,10.15,11.55,20c3.09,5.41,6.12,10.77,9,16l2.21,4c22.32,40.26,41.48,78.08,56.89,110.11,6.48,13.47,12.29,25.9,17.41,37.07,4.32,9.43,8.13,17.94,11.42,25.4q1.89,4.28,3.54,8.08a20.08,20.08,0,0,0-2.66.25,19.77,19.77,0,0,0-8.23,3.35,20,20,0,0,0-5,5c-.14.2-.26.4-.39.61a31.83,31.83,0,0,0-2.73,1.94l-.74.61-.09.08-1.16-2.69-.24-.55C489.7,847.81,481,828.36,470,805.24L359.91,695.16l-16.68-16.67-16.74-16.73-.59-.59-174-70.58,57.81-101.86-36-36.17,21.53-34.87-18.83-11.63L157.6,394.43,117.72,459l36.92,37.1L88.5,612.64l189.1,76.71,40.75,26.87L475.09,872.88v29.26Z"/><circle class="cls-1" cx="283.65" cy="571.15" r="21.01"/><circle class="cls-1" cx="740.34" cy="571.15" r="21.01"/><path class="cls-1" d="M557.16,888.16A41.2,41.2,0,1,1,516,847C508.48,847,557.16,857.85,557.16,888.16Z"/></g></svg>