<svg xmlns="http://www.w3.org/2000/svg" viewBox="0 0 1023.99 1024"><defs><style>.cls-1,.cls-6{fill:#fcfcfc;stroke:#196a3e;}.cls-1,.cls-4,.cls-5,.cls-6{stroke-linecap:round;}.cls-1{stroke-linejoin:round;}.cls-1,.cls-4,.cls-6{stroke-width:15px;}.cls-2,.cls-4{fill:#196a3e;}.cls-3{fill:#3aa464;}.cls-4{stroke:#fcfcfc;}.cls-4,.cls-5,.cls-6{stroke-miterlimit:10;}.cls-5{fill:none;stroke:#3aa464;stroke-width:32px;}</style></defs><title>Umwelt</title><g id="Ebene_1" data-name="Ebene 1"><path class="cls-1" d="M649.64,607.45c-8.61-21.38-4.89-44.59-5-67q-.08-23.41,0-46.82L642.56-3.18H477l-.08,520.75c2.63,27.93-17.2,57.35-44.09,65.38L155.52,660.16H100.95v39.58a39.75,39.75,0,0,0,39.68,39.58h14.88c15.34,0,28.71-3.13,35.31-15.92,10.9,21.13,33.39,16,54.31,16l351.42,2.75c11.86.8,23.6.73,34.12-1.19,15-2.74,28.35-9.25,37.81-22.37,13.5-18.72,13.21-50.82,4-71.54C666.28,633,655.39,621.74,649.64,607.45Z"/><rect class="cls-2" x="450.27" y="-10.68" width="216.03" height="315.65"/><path class="cls-3" d="M658.8-3.18V297.47h-201V-3.18h201m15-15h-231V312.47h231V-18.18Z"/><rect class="cls-2" x="422.33" y="267.48" width="269.35" height="111"/><path class="cls-3" d="M684.19,275v96H429.83V275H684.19m15-15H414.83V386H699.19V260Z"/><line class="cls-4" x1="551.34" y1="37.54" x2="551.34" y2="83.26"/><line class="cls-4" x1="551.34" y1="119.06" x2="551.34" y2="164.79"/><line class="cls-4" x1="551.34" y1="201.08" x2="551.34" y2="246.81"/><path class="cls-1" d="M791.4,665.21c-8.61-21.38-4.88-44.59-5-67-.06-15.61,0-31.22,0-46.82l-2-554.6H618.72l-.08,578.51c2.63,27.93-17.2,57.35-44.09,65.38L297.28,717.92H242.71V757.5a39.75,39.75,0,0,0,39.68,39.58h14.88c15.34,0,28.71-3.13,35.31-15.92,10.9,21.13,33.39,16,54.31,16l351.42,2.75c11.86.8,23.6.73,34.12-1.19,15-2.74,28.35-9.25,37.81-22.37,13.5-18.72,13.21-50.82,4-71.54C808,690.79,797.15,679.5,791.4,665.21Z"/><path class="cls-5" d="M769.56,591.78c24.85,0,33.66,12.06,33.66,36.91s-6-2.77-30.82-2.77"/><rect class="cls-2" x="592.04" y="-10.68" width="216.02" height="396.09"/><path class="cls-3" d="M800.56-3.18V377.91h-201V-3.18h201m15-15h-231V392.91h231V-18.18Z"/><line class="cls-4" x1="698.78" y1="36.45" x2="698.78" y2="82.18"/><line class="cls-4" x1="698.78" y1="117.98" x2="698.78" y2="163.71"/><line class="cls-4" x1="698.78" y1="199.5" x2="698.78" y2="245.23"/><line class="cls-4" x1="698.78" y1="281.52" x2="698.78" y2="327.25"/><path class="cls-6" d="M752.55,583.69a45,45,0,1,1,0,90"/><rect class="cls-2" x="564.1" y="322.41" width="269.35" height="111"/><path class="cls-3" d="M826,329.91v96H571.6v-96H826m15-15H556.6v126H841v-126Z"/></g></svg>