<svg xmlns="http://www.w3.org/2000/svg" viewBox="0 0 1023.99 1024"><defs><style>.cls-1{fill:#fff;}</style></defs><title>Zeichenfläche 1 Kopie 19</title><g id="Ebene_10" data-name="Ebene 10"><path class="cls-1" d="M190.82,723.39c-6.6,12.79-20,15.92-35.31,15.92H140.63a39.75,39.75,0,0,1-39.68-39.58V660.16h54.57l277.28-77.21c26.88-8,46.72-37.44,44.09-65.38l0-131.59h-7.5l0,131.59q0,.35,0,.71c2.28,24.18-15.44,50.49-38.71,57.47L154.49,652.66H100.95a7.5,7.5,0,0,0-7.5,7.5v39.58a47.18,47.18,0,0,0,47.18,47.08h14.88c10.78,0,25.06-1.3,35.11-10.78,9.3,9.7,21.81,11.34,33.4,11.38v-7.5C210.42,739.86,198.07,737.42,190.82,723.39Z"/><path class="cls-1" d="M197.49,720a7.5,7.5,0,0,0-13.33,0c-4.29,8.31-12.85,11.86-28.64,11.86H140.63a32.17,32.17,0,0,1-32.18-32.08V667.66h47.07a7.49,7.49,0,0,0,2-.28l277.28-77.21.13,0c30.09-9,52.2-41.63,49.44-72.9l0-131.25h-7.5l0,131.59c2.63,27.93-17.2,57.35-44.09,65.38L155.52,660.16H100.95v39.58a39.75,39.75,0,0,0,39.68,39.58h14.88c15.34,0,28.71-3.13,35.31-15.92,7.24,14,19.59,16.47,33.2,16.52v-7.5C211.58,732.36,202.78,730.2,197.49,720Z"/><polygon class="cls-1" points="469.42 259.98 469.45 32.64 457.77 32.64 457.77 259.98 469.42 259.98"/><path class="cls-1" d="M584.54,260V32.64H557a7.46,7.46,0,0,1,1.82,4.89V83.26a7.5,7.5,0,1,1-15,0V37.54a7.46,7.46,0,0,1,1.82-4.89H484.45l0,227.34ZM543.84,119.06a7.5,7.5,0,1,1,15,0v45.73a7.5,7.5,0,0,1-15,0Zm0,82a7.5,7.5,0,1,1,15,0v45.73a7.5,7.5,0,0,1-15,0Z"/><rect class="cls-1" x="469.43" y="32.64" width="7.5" height="227.34"/><rect class="cls-1" x="476.93" y="32.64" width="7.5" height="227.34"/><polygon class="cls-1" points="442.77 312.47 442.77 274.98 429.83 274.98 429.83 370.98 469.4 370.98 469.41 312.47 442.77 312.47"/><polygon class="cls-1" points="556.6 329.91 556.6 314.91 571.6 314.91 584.54 314.91 584.54 312.47 484.41 312.47 484.4 370.98 556.6 370.98 556.6 329.91"/><rect class="cls-1" x="469.41" y="312.47" width="7.5" height="58.51"/><rect class="cls-1" x="476.91" y="312.47" width="7.5" height="58.51"/><rect class="cls-1" x="457.77" y="274.98" width="11.64" height="22.49"/><rect class="cls-1" x="484.41" y="274.98" width="100.12" height="22.49"/><rect class="cls-1" x="469.41" y="274.98" width="7.5" height="22.49"/><rect class="cls-1" x="476.91" y="274.98" width="7.5" height="22.49"/><polygon class="cls-1" points="469.41 312.47 469.41 304.97 450.27 304.97 450.27 274.98 442.77 274.98 442.77 312.47 469.41 312.47"/><rect class="cls-1" x="484.41" y="304.97" width="100.13" height="7.5"/><rect class="cls-1" x="469.41" y="304.97" width="7.5" height="7.5"/><rect class="cls-1" x="476.91" y="304.97" width="7.5" height="7.5"/><polygon class="cls-1" points="469.41 304.97 469.41 297.47 457.77 297.47 457.77 274.98 450.27 274.98 450.27 304.97 469.41 304.97"/><rect class="cls-1" x="484.41" y="297.47" width="100.12" height="7.5"/><rect class="cls-1" x="469.41" y="297.47" width="7.5" height="7.5"/><rect class="cls-1" x="476.91" y="297.47" width="7.5" height="7.5"/><path class="cls-1" d="M791.4,665.21c5.76,14.29,16.65,25.57,22.86,39.56,9.2,20.72,9.49,52.81-4,71.54-9.46,13.12-22.82,19.63-37.81,22.37-10.52,1.92-22.26,2-34.12,1.19L386.9,797.13c-20.92,0-43.41,5.16-54.31-16-6.6,12.79-20,15.92-35.31,15.92H282.4a39.75,39.75,0,0,1-39.68-39.58V746.89c-2.4,0-4.85.14-7.26.23v15.09a47.21,47.21,0,0,0,46.95,42.37h14.88c10.78,0,25.06-1.3,35.11-10.78,9.42,9.83,22.16,11.39,33.88,11.39,3.5,0,7.06-.14,10.51-.28s6.81-.27,10.07-.27L738,807.37c4.88.32,9.34.48,13.64.48a122.44,122.44,0,0,0,22.11-1.8c18.54-3.39,32.86-11.92,42.54-25.36,16-22.22,14.42-57.27,4.78-79-3.21-7.23-7.48-13.65-11.6-19.85-4.34-6.52-8.43-12.69-11.16-19.47-.69-1.7-1.27-3.42-1.8-5.15a52.88,52.88,0,0,1-5.5,7.06C791.17,664.62,791.28,664.92,791.4,665.21Z"/><path class="cls-1" d="M786.39,551.42q0,12.52,0,25a60.45,60.45,0,0,1,7.5,4.33c0-7.56,0-15.11,0-22.51v-6.88l-.41-110.49H786Z"/><path class="cls-1" d="M242.71,717.92h54.57l277.28-77.21c26.88-8,46.72-37.44,44.09-65.38l0-134.43h-7.5l0,134.43q0,.35,0,.71c2.28,24.18-15.44,50.48-38.7,57.47L296.25,710.42H242.71a7.5,7.5,0,0,0-7.26,5.66v16c2.39-.1,4.82-.17,7.26-.21Z"/><path class="cls-1" d="M235.45,739.61v7.51c2.41-.1,4.87-.19,7.26-.23v-7.5C240.3,739.43,237.87,739.52,235.45,739.61Z"/><path class="cls-1" d="M235.45,732.11v7.5c2.42-.1,4.85-.19,7.26-.23V731.9C240.27,731.94,237.84,732,235.45,732.11Z"/><path class="cls-1" d="M785.19,669.76c3.25,7.47,7.6,14.05,11.83,20.42,4,5.95,7.68,11.56,10.38,17.64,7.88,17.74,8.88,47.29-3.24,64.11-7.45,10.33-18.27,16.67-33.07,19.38a107.69,107.69,0,0,1-19.41,1.55c-4,0-8.22-.15-12.85-.46l-.44,0-351.51-2.75c-3.59,0-7.21.14-10.7.28s-6.71.27-9.91.27c-12.71,0-21.66-2.09-27-12.46a7.5,7.5,0,0,0-13.33,0c-4.29,8.31-12.85,11.86-28.64,11.86H282.4a32.17,32.17,0,0,1-32.18-32.08V746.9l-5.13,0-2.37,0V757.5a39.75,39.75,0,0,0,39.68,39.58h14.88c15.34,0,28.71-3.13,35.31-15.92,10.9,21.13,33.39,16,54.31,16l351.42,2.75c11.86.8,23.6.73,34.12-1.19,15-2.74,28.35-9.25,37.81-22.37,13.5-18.72,13.21-50.82,4-71.54-6.21-14-17.11-25.27-22.86-39.56-.12-.3-.23-.59-.34-.89A53,53,0,0,1,785.19,669.76Z"/><path class="cls-1" d="M778.89,551.42v6.85c0,5,0,10.05,0,15.14a62.08,62.08,0,0,1,7.5,3q0-12.52,0-25L786,440.91h-7.5Z"/><path class="cls-1" d="M297.28,725.42a7.49,7.49,0,0,0,2-.28l277.28-77.21.13,0c30.09-9,52.2-41.63,49.44-72.9l0-134.09h-7.5l0,134.43c2.63,27.93-17.2,57.35-44.09,65.38L297.28,717.92H242.71v14c.8,0,1.6,0,2.4,0l5.1,0v-6.48Z"/><path class="cls-1" d="M250.21,746.9v-7.5l-5.07,0-2.43,0v7.5l2.37,0Z"/><path class="cls-1" d="M245.11,731.86c-.8,0-1.6,0-2.4,0v7.48l2.43,0,5.07,0v-7.5Z"/><polygon class="cls-1" points="800.56 314.91 800.56 32.64 791.98 32.64 793.02 314.91 800.56 314.91"/><polygon class="cls-1" points="611.19 259.98 611.22 32.64 599.54 32.64 599.54 259.98 611.19 259.98"/><rect class="cls-1" x="599.54" y="312.47" width="11.64" height="2.44"/><rect class="cls-1" x="599.54" y="274.98" width="11.65" height="22.49"/><rect class="cls-1" x="599.54" y="304.97" width="11.64" height="7.5"/><rect class="cls-1" x="599.54" y="297.47" width="11.64" height="7.5"/><rect class="cls-1" x="599.54" y="259.98" width="11.65" height="7.5"/><rect class="cls-1" x="599.54" y="267.48" width="11.65" height="7.5"/><path class="cls-1" d="M684.19,260h15V274a7.49,7.49,0,0,1,7.09,7.48v33.39H778L777,32.64H705.23a7.45,7.45,0,0,1,1.05,3.81V82.18a7.5,7.5,0,0,1-15,0V36.45a7.45,7.45,0,0,1,1.05-3.81H673.8V260Zm7.09-142a7.5,7.5,0,1,1,15,0v45.73a7.5,7.5,0,0,1-15,0Zm0,81.52a7.5,7.5,0,1,1,15,0v45.73a7.5,7.5,0,0,1-15,0Z"/><polygon class="cls-1" points="658.8 259.98 658.8 32.64 650.21 32.64 651.15 259.98 658.8 259.98"/><polygon class="cls-1" points="636.15 259.98 635.21 32.64 626.22 32.64 626.19 259.98 636.15 259.98"/><polygon class="cls-1" points="651.15 259.98 650.21 32.64 642.71 32.64 643.65 259.98 651.15 259.98"/><polygon class="cls-1" points="643.65 259.98 642.71 32.64 635.21 32.64 636.15 259.98 643.65 259.98"/><rect class="cls-1" x="666.3" y="32.64" width="7.5" height="227.34"/><rect class="cls-1" x="658.8" y="32.64" width="7.5" height="227.34"/><polygon class="cls-1" points="651.37 312.47 651.38 314.91 684.19 314.91 684.19 274.98 673.8 274.98 673.8 312.47 651.37 312.47"/><polygon class="cls-1" points="636.38 314.91 636.37 312.47 626.18 312.47 626.18 314.91 636.38 314.91"/><polygon class="cls-1" points="643.88 314.91 651.38 314.91 651.37 312.47 643.87 312.47 643.88 314.91"/><polygon class="cls-1" points="636.38 314.91 643.88 314.91 643.87 312.47 636.37 312.47 636.38 314.91"/><polygon class="cls-1" points="658.8 297.47 658.8 274.98 651.22 274.98 651.31 297.47 658.8 297.47"/><polygon class="cls-1" points="636.31 297.47 636.22 274.98 626.18 274.98 626.18 297.47 636.31 297.47"/><polygon class="cls-1" points="651.31 297.47 651.22 274.98 643.72 274.98 643.81 297.47 651.31 297.47"/><polygon class="cls-1" points="643.81 297.47 643.72 274.98 636.22 274.98 636.31 297.47 643.81 297.47"/><polygon class="cls-1" points="651.34 304.97 651.37 312.47 673.8 312.47 673.8 274.98 666.3 274.98 666.3 304.97 651.34 304.97"/><polygon class="cls-1" points="636.37 312.47 636.34 304.97 626.18 304.97 626.18 312.47 636.37 312.47"/><polygon class="cls-1" points="643.87 312.47 651.37 312.47 651.34 304.97 643.84 304.97 643.87 312.47"/><polygon class="cls-1" points="643.87 312.47 643.84 304.97 636.34 304.97 636.37 312.47 643.87 312.47"/><polygon class="cls-1" points="651.31 297.47 651.34 304.97 666.3 304.97 666.3 274.98 658.8 274.98 658.8 297.47 651.31 297.47"/><polygon class="cls-1" points="636.34 304.97 636.31 297.47 626.18 297.47 626.18 304.97 636.34 304.97"/><polygon class="cls-1" points="651.34 304.97 651.31 297.47 643.81 297.47 643.84 304.97 651.34 304.97"/><polygon class="cls-1" points="643.84 304.97 643.81 297.47 636.31 297.47 636.34 304.97 643.84 304.97"/><path class="cls-1" d="M691.69,267.48v11.6a7.5,7.5,0,0,1,7.09-5.06l.41,0V260H673.8v7.5Z"/><polygon class="cls-1" points="658.8 267.48 658.8 259.98 651.15 259.98 651.19 267.48 658.8 267.48"/><polygon class="cls-1" points="636.19 267.48 636.15 259.98 626.19 259.98 626.18 267.48 636.19 267.48"/><polygon class="cls-1" points="651.19 267.48 651.15 259.98 643.65 259.98 643.69 267.48 651.19 267.48"/><polygon class="cls-1" points="643.69 267.48 643.65 259.98 636.15 259.98 636.19 267.48 643.69 267.48"/><rect class="cls-1" x="666.3" y="259.98" width="7.5" height="7.5"/><rect class="cls-1" x="658.8" y="259.98" width="7.5" height="7.5"/><path class="cls-1" d="M684.19,275v39.93h7.09V281.52a7.48,7.48,0,0,1,.41-2.44v-11.6H673.8V275Z"/><polygon class="cls-1" points="658.8 274.98 658.8 267.48 651.19 267.48 651.22 274.98 658.8 274.98"/><polygon class="cls-1" points="636.22 274.98 636.19 267.48 626.18 267.48 626.18 274.98 636.22 274.98"/><polygon class="cls-1" points="651.22 274.98 651.19 267.48 643.69 267.48 643.72 274.98 651.22 274.98"/><polygon class="cls-1" points="643.72 274.98 643.69 267.48 636.19 267.48 636.22 274.98 643.72 274.98"/><rect class="cls-1" x="666.3" y="267.48" width="7.5" height="7.5"/><rect class="cls-1" x="658.8" y="267.48" width="7.5" height="7.5"/><polygon class="cls-1" points="793.02 314.91 791.98 32.64 784.48 32.64 785.52 314.91 793.02 314.91"/><rect class="cls-1" x="611.2" y="32.64" width="7.5" height="227.34"/><rect class="cls-1" x="611.18" y="312.47" width="7.5" height="2.44"/><rect class="cls-1" x="611.18" y="274.98" width="7.5" height="22.49"/><rect class="cls-1" x="611.18" y="304.97" width="7.5" height="7.5"/><rect class="cls-1" x="611.18" y="297.47" width="7.5" height="7.5"/><rect class="cls-1" x="611.19" y="259.98" width="7.5" height="7.5"/><rect class="cls-1" x="611.18" y="267.48" width="7.5" height="7.5"/><polygon class="cls-1" points="785.52 314.91 784.48 32.64 776.98 32.64 778.02 314.91 785.52 314.91"/><rect class="cls-1" x="618.7" y="32.64" width="7.5" height="227.34"/><rect class="cls-1" x="618.68" y="312.47" width="7.5" height="2.44"/><rect class="cls-1" x="618.68" y="274.98" width="7.5" height="22.49"/><rect class="cls-1" x="618.68" y="304.97" width="7.5" height="7.5"/><rect class="cls-1" x="618.68" y="297.47" width="7.5" height="7.5"/><rect class="cls-1" x="618.69" y="259.98" width="7.5" height="7.5"/><rect class="cls-1" x="618.68" y="267.48" width="7.5" height="7.5"/><polygon class="cls-1" points="793.3 392.91 793.43 425.91 825.95 425.91 825.95 329.91 815.56 329.91 815.56 392.91 793.3 392.91"/><polygon class="cls-1" points="584.54 392.91 584.54 385.98 571.6 385.98 571.6 425.91 611.16 425.91 611.17 392.91 584.54 392.91"/><rect class="cls-1" x="571.6" y="329.91" width="12.94" height="41.07"/><rect class="cls-1" x="571.6" y="378.48" width="12.94" height="7.5"/><rect class="cls-1" x="571.6" y="370.98" width="12.94" height="7.5"/><polygon class="cls-1" points="651.71 392.91 651.84 425.91 778.42 425.91 778.3 392.91 651.71 392.91"/><polygon class="cls-1" points="626.16 425.91 636.84 425.91 636.71 392.91 626.17 392.91 626.16 425.91"/><polygon class="cls-1" points="644.34 425.91 651.84 425.91 651.71 392.91 644.21 392.91 644.34 425.91"/><polygon class="cls-1" points="636.84 425.91 644.34 425.91 644.21 392.91 636.71 392.91 636.84 425.91"/><polygon class="cls-1" points="785.8 392.91 785.93 425.91 793.43 425.91 793.3 392.91 785.8 392.91"/><rect class="cls-1" x="611.17" y="392.91" width="7.5" height="33"/><polygon class="cls-1" points="778.3 392.91 778.42 425.91 785.93 425.91 785.8 392.91 778.3 392.91"/><rect class="cls-1" x="618.67" y="392.91" width="7.5" height="33"/><polygon class="cls-1" points="793.25 377.91 800.56 377.91 800.56 329.91 793.07 329.91 793.25 377.91"/><rect class="cls-1" x="599.54" y="329.91" width="11.64" height="41.07"/><rect class="cls-1" x="599.54" y="370.98" width="11.63" height="6.93"/><polygon class="cls-1" points="699.19 377.91 778.25 377.91 778.07 329.91 699.19 329.91 699.19 370.98 699.19 377.91"/><polygon class="cls-1" points="684.19 370.98 684.19 329.91 651.45 329.91 651.62 370.98 684.19 370.98"/><polygon class="cls-1" points="626.17 370.98 636.62 370.98 636.45 329.91 626.18 329.91 626.17 370.98"/><polygon class="cls-1" points="651.62 370.98 651.45 329.91 643.95 329.91 644.12 370.98 651.62 370.98"/><polygon class="cls-1" points="636.62 370.98 644.12 370.98 643.95 329.91 636.45 329.91 636.62 370.98"/><polygon class="cls-1" points="691.69 377.91 699.19 377.91 699.19 370.98 699.19 329.91 691.69 329.91 691.69 377.91"/><polygon class="cls-1" points="684.19 370.98 651.62 370.98 651.64 377.91 691.69 377.91 691.69 329.91 684.19 329.91 684.19 370.98"/><polygon class="cls-1" points="626.17 377.91 636.64 377.91 636.62 370.98 626.17 370.98 626.17 377.91"/><polygon class="cls-1" points="644.14 377.91 651.64 377.91 651.62 370.98 644.12 370.98 644.14 377.91"/><polygon class="cls-1" points="644.14 377.91 644.12 370.98 636.62 370.98 636.64 377.91 644.14 377.91"/><polygon class="cls-1" points="793.25 377.91 793.07 329.91 785.57 329.91 785.75 377.91 793.25 377.91"/><rect class="cls-1" x="611.17" y="329.91" width="7.5" height="41.07"/><rect class="cls-1" x="611.17" y="370.98" width="7.5" height="6.93"/><polygon class="cls-1" points="785.75 377.91 785.57 329.91 778.07 329.91 778.25 377.91 785.75 377.91"/><rect class="cls-1" x="618.67" y="329.91" width="7.5" height="41.07"/><rect class="cls-1" x="618.67" y="370.98" width="7.5" height="6.93"/><polygon class="cls-1" points="793.28 385.41 793.3 392.91 815.56 392.91 815.56 329.91 808.06 329.91 808.06 385.41 793.28 385.41"/><rect class="cls-1" x="584.54" y="385.98" width="26.63" height="6.93"/><rect class="cls-1" x="584.54" y="329.91" width="7.5" height="41.07"/><polygon class="cls-1" points="611.17 385.41 592.04 385.41 592.04 378.48 584.54 378.48 584.54 385.98 611.17 385.98 611.17 385.41"/><rect class="cls-1" x="584.54" y="370.98" width="7.5" height="7.5"/><polygon class="cls-1" points="699.19 385.41 699.19 385.98 684.19 385.98 651.68 385.98 651.71 392.91 778.3 392.91 778.28 385.41 699.19 385.41"/><polygon class="cls-1" points="626.17 392.91 636.71 392.91 636.68 385.98 626.17 385.98 626.17 392.91"/><polygon class="cls-1" points="644.18 385.98 644.21 392.91 651.71 392.91 651.68 385.98 644.18 385.98"/><polygon class="cls-1" points="636.71 392.91 644.21 392.91 644.18 385.98 636.68 385.98 636.71 392.91"/><polygon class="cls-1" points="651.68 385.98 684.19 385.98 699.19 385.98 699.19 385.41 651.68 385.41 651.68 385.98"/><rect class="cls-1" x="626.17" y="385.41" width="10.51" height="0.57"/><polygon class="cls-1" points="644.18 385.41 644.18 385.98 651.68 385.98 651.68 385.41 644.18 385.41"/><polygon class="cls-1" points="636.68 385.41 636.68 385.98 644.18 385.98 644.18 385.41 636.68 385.41"/><polygon class="cls-1" points="785.8 392.91 793.3 392.91 793.28 385.41 785.78 385.41 785.8 392.91"/><rect class="cls-1" x="611.17" y="385.98" width="7.5" height="6.93"/><rect class="cls-1" x="611.17" y="385.41" width="7.5" height="0.57"/><polygon class="cls-1" points="778.28 385.41 778.3 392.91 785.8 392.91 785.78 385.41 778.28 385.41"/><rect class="cls-1" x="618.67" y="385.98" width="7.5" height="6.93"/><rect class="cls-1" x="618.67" y="385.41" width="7.5" height="0.57"/><polygon class="cls-1" points="793.25 377.91 793.28 385.41 808.06 385.41 808.06 329.91 800.56 329.91 800.56 377.91 793.25 377.91"/><rect class="cls-1" x="592.04" y="329.91" width="7.5" height="41.07"/><rect class="cls-1" x="592.04" y="378.48" width="19.13" height="6.93"/><polygon class="cls-1" points="611.17 378.48 611.17 377.91 599.54 377.91 599.54 370.98 592.04 370.98 592.04 378.48 611.17 378.48"/><polygon class="cls-1" points="778.28 385.41 778.25 377.91 699.19 377.91 699.19 385.41 778.28 385.41"/><polygon class="cls-1" points="651.65 378.48 651.68 385.41 699.19 385.41 699.19 377.91 691.69 377.91 691.69 378.48 651.65 378.48"/><polygon class="cls-1" points="626.17 378.48 626.17 385.41 636.68 385.41 636.65 378.48 626.17 378.48"/><polygon class="cls-1" points="644.18 385.41 651.68 385.41 651.65 378.48 644.15 378.48 644.18 385.41"/><polygon class="cls-1" points="636.65 378.48 636.68 385.41 644.18 385.41 644.15 378.48 636.65 378.48"/><rect class="cls-1" x="651.65" y="377.91" width="40.04" height="0.57"/><rect class="cls-1" x="626.17" y="377.91" width="10.48" height="0.57"/><polygon class="cls-1" points="644.15 378.48 651.65 378.48 651.64 377.91 644.14 377.91 644.15 378.48"/><polygon class="cls-1" points="636.65 378.48 644.15 378.48 644.14 377.91 636.64 377.91 636.65 378.48"/><polygon class="cls-1" points="785.78 385.41 793.28 385.41 793.25 377.91 785.75 377.91 785.78 385.41"/><rect class="cls-1" x="611.17" y="378.48" width="7.5" height="6.93"/><rect class="cls-1" x="611.17" y="377.91" width="7.5" height="0.57"/><polygon class="cls-1" points="785.78 385.41 785.75 377.91 778.25 377.91 778.28 385.41 785.78 385.41"/><rect class="cls-1" x="618.67" y="378.48" width="7.5" height="6.93"/><rect class="cls-1" x="618.67" y="377.91" width="7.5" height="0.57"/><path class="cls-1" d="M796.56,657.26q.7-1.08,1.35-2.19c-.67,0-1.33,0-2-.11C796.12,655.73,796.33,656.5,796.56,657.26Z"/><path class="cls-1" d="M752.55,666.19a7.5,7.5,0,0,0,0,15,52.23,52.23,0,0,0,32.64-11.43c-.25-.58-.51-1.15-.75-1.74-.76-1.89-1.42-3.79-2-5.69a44.82,44.82,0,0,1-29.88,11.36Z"/><path class="cls-1" d="M789.94,653.72q-.74,1.1-1.54,2.15a69.88,69.88,0,0,0,2.65,8.45,52.88,52.88,0,0,0,5.5-7.06c-.23-.76-.44-1.53-.64-2.3A30.08,30.08,0,0,1,789.94,653.72Z"/><path class="cls-1" d="M782.43,662.32c.59,1.9,1.25,3.8,2,5.69.24.59.5,1.16.75,1.74a53,53,0,0,0,5.86-5.44,69.88,69.88,0,0,1-2.65-8.45A45.3,45.3,0,0,1,782.43,662.32Z"/><path class="cls-1" d="M793.93,596.44c0,.59,0,1.19,0,1.78,0,4.09-.09,8.22-.23,12.27a45,45,0,0,1,.44,35.38,74.9,74.9,0,0,0,1.77,9.09c.66.06,1.33.1,2,.11a52.32,52.32,0,0,0-4-58.63Z"/><path class="cls-1" d="M745,583.69a7.5,7.5,0,0,0,7.5,7.5v-7.5a44.79,44.79,0,0,1,26.37,8.54q0-4.46,0-8.92a52.16,52.16,0,0,0-26.35-7.12A7.5,7.5,0,0,0,745,583.69Z"/><path class="cls-1" d="M795.92,655a74.9,74.9,0,0,1-1.77-9.09,44.93,44.93,0,0,1-4.2,7.85A30.08,30.08,0,0,0,795.92,655Z"/><path class="cls-1" d="M786.43,599.1a45,45,0,0,1,7.27,11.39c.14-4.06.25-8.18.23-12.27,0-.59,0-1.19,0-1.78a53,53,0,0,0-7.51-7.82c0,3.21,0,6.42,0,9.62C786.43,598.53,786.43,598.81,786.43,599.1Z"/><path class="cls-1" d="M778.92,592.24a45.29,45.29,0,0,1,7.52,6.86c0-.28,0-.57,0-.85,0-3.21,0-6.41,0-9.62a52.74,52.74,0,0,0-7.52-5.31Q778.91,587.78,778.92,592.24Z"/><path class="cls-1" d="M752.55,666.19v7.5a44.82,44.82,0,0,0,29.88-11.36,82.39,82.39,0,0,1-2.15-8.42A37.41,37.41,0,0,1,752.55,666.19Z"/><path class="cls-1" d="M788.4,655.87q.8-1.05,1.54-2.15-1.11-.34-2.2-.74C787.94,653.95,788.17,654.91,788.4,655.87Z"/><path class="cls-1" d="M782.76,650.87a37.76,37.76,0,0,1-2.48,3,82.39,82.39,0,0,0,2.15,8.42,45.3,45.3,0,0,0,6-6.45c-.24-1-.46-1.93-.66-2.89C786,652.35,784.37,651.63,782.76,650.87Z"/><path class="cls-1" d="M794.14,645.87a45,45,0,0,0-.44-35.38q-.07,2-.14,3.93C793.17,625.32,792.8,635.82,794.14,645.87Z"/><path class="cls-1" d="M752.55,591.19a37.37,37.37,0,0,1,26.36,10.86c0-1.27,0-2.53,0-3.78,0-2,0-4,0-6a44.79,44.79,0,0,0-26.37-8.54Z"/><path class="cls-1" d="M786.14,612.06a37.4,37.4,0,0,1,.3,32.65c.31,2.78.73,5.54,1.3,8.27q1.09.4,2.2.74a44.93,44.93,0,0,0,4.2-7.85c-1.34-10-1-20.55-.58-31.45q.07-1.95.14-3.93a45,45,0,0,0-7.27-11.39C786.43,603.4,786.3,607.72,786.14,612.06Z"/><path class="cls-1" d="M787.74,653c-.57-2.74-1-5.5-1.3-8.27a37.53,37.53,0,0,1-3.69,6.16C784.37,651.63,786,652.35,787.74,653Z"/><path class="cls-1" d="M778.91,602.06a37.66,37.66,0,0,1,7.23,10c.15-4.34.29-8.66.29-13a45.29,45.29,0,0,0-7.52-6.86c0,2,0,4,0,6C778.94,599.52,778.93,600.79,778.91,602.06Z"/></g></svg>