<svg xmlns="http://www.w3.org/2000/svg" viewBox="0 0 1023.99 1024"><defs><style>.cls-1{fill:#fff;}</style></defs><title>Umwelt_Icon</title><g id="Ebene_10" data-name="Ebene 10"><path class="cls-1" d="M873.69,141.37l-30,436.9-.09,1.33c-2,16.76-4.49,67.32,24.72,131.33.76,2.22,1.53,4.3,2.34,6.29,5.87,14.58,14,26.78,21.15,37.56,5.33,8,10.36,15.59,13.57,22.81,4.65,10.46,7.18,24.9,6.78,38.64S908.38,842,903,849.53c-4.66,6.46-13.27,15.5-34.19,19.32a139.78,139.78,0,0,1-24.72,1.92c-5.3,0-11.09-.2-17.23-.61l-1.44-.09H824l-508.74-4.11h-.4c-5.81,0-11.42.22-16.83.44h-.12c-4.69.19-9.11.37-13.37.37-14.23,0-17.07-2.25-17.35-2.51l-32.3-29.88L201.09,862.6c-.65.55-4.7,3.27-20.39,3.27h-45a23.86,23.86,0,0,1-23.91-23.75V784.34H162l6.32-1.68,361.81-96.35,2.11-.56,1.15-.42c26.83-8.29,50.85-26.6,67.74-51.65,16.74-24.82,24.71-53.65,22.55-81.43l.07-410.88h249.9m53.56-50H573.8l-.08,462.38q0,.68.06,1.36c3.28,34.79-22.23,72.63-55.71,82.62l-.77.25L155.5,734.34H76.34a14.5,14.5,0,0,0-14.5,14.5v93.27a73.92,73.92,0,0,0,73.91,73.75h45c16,0,36.87-1.86,52.47-14.92,14.48,13.4,33.38,15.81,51.3,15.81,5.25,0,10.42-.21,15.37-.41,5.2-.21,10.1-.4,15-.4l508.74,4.11c7.24.48,14.06.72,20.51.72A187.63,187.63,0,0,0,877.77,918c28.62-5.23,50.74-18.44,65.76-39.27,24.7-34.25,22.3-88.15,7.5-121.47-4.92-11.08-11.38-20.8-17.63-30.2C927,717.47,921,708.38,917,698.54c-.8-2-1.5-4-2.14-6-29.67-63.41-21.32-109.36-21.32-109.36V581.7L927.25,91.37Z"/></g></svg>