<svg xmlns="http://www.w3.org/2000/svg" viewBox="0 0 1023.99 1024"><defs><style>.cls-1{fill:#fff;}</style></defs><title>Umwelt_Icon</title><g id="Ebene_10" data-name="Ebene 10"><path class="cls-1" d="M874.85,665.29c-6.4-9.62-12.44-18.72-16.4-28.56-.8-2-1.5-4-2.14-6a81.77,81.77,0,0,0-18.78-107.45c-.83-.66-1.69-1.28-2.54-1.91v-1.46l34.63-396.52a14.5,14.5,0,0,0-29,.09s0,.06,0,.09L805.8,486a14.69,14.69,0,0,1,.07,1.5c0,.77,0,1.53,0,2.3l0,8.06q1.22,7.45,1.83,15v.08q.14,1.78.25,3.56c0,.34,0,.67.05,1,0,.89.09,1.78.13,2.66,0,.58,0,1.16,0,1.74s0,1.35.05,2,0,1.12,0,1.68c0,.74,0,1.48,0,2.22,0,3.73-.18,7.46-.48,11.17a52.86,52.86,0,0,1-20.93,101.38,14.5,14.5,0,0,0,0,29A81.39,81.39,0,0,0,834.42,654c4.73,9.89,10.57,18.73,16.28,27.32,5.84,8.78,11.35,17.08,15.28,25.92,14.68,33.05,9.09,73.87-4.52,92.73-10.63,14.75-26.15,23.81-47.45,27.7-12.86,2.35-28.39,2.87-47.49,1.59l-.85,0-475.19-4.12h-.17c-5.45,0-10.89.22-16.15.43-27.36,1.09-43.28.87-52.24-16.49a14.5,14.5,0,0,0-25.77,0c-4.08,7.9-12,16-40,16H133.89A44.88,44.88,0,0,1,89,780.31V735.56h67.19a14.49,14.49,0,0,0,4.92-.86L524.92,603.6c22.51-6.83,42.76-22.24,57-43.43s20.93-45.53,18.91-68.87L601,123.47h0a14.5,14.5,0,0,0-14.5-14.5h0a14.5,14.5,0,0,0-14.5,14.5L571.87,492c0,.46,0,.91.06,1.36,3.28,34.79-22.23,72.62-55.71,82.62l-.77.25L153.64,706.56H74.48A14.5,14.5,0,0,0,60,721.06v59.25a73.91,73.91,0,0,0,73.91,73.75h22.28c16,0,36.87-1.86,52.47-14.92,18.72,17.32,44.83,16.27,66.67,15.4,5.2-.21,10.1-.4,15-.41L765,858.25c7.24.48,14.06.72,20.51.72a187.64,187.64,0,0,0,33.71-2.74C847.84,851,870,837.79,885,817c24.7-34.25,22.3-88.15,7.5-121.47C887.55,684.41,881.09,674.69,874.85,665.29Z"/><polygon class="cls-1" points="807.76 538.96 800.68 536.71 807.58 463.82 821.39 485.3 807.76 538.96"/></g></svg>