<?xml version="1.0" encoding="utf-8"?>
<!DOCTYPE svg PUBLIC "-//W3C//DTD SVG 20010904//EN" "http://www.w3.org/TR/2001/REC-SVG-20010904/DTD/svg10.dtd">
<svg xmlns="http://www.w3.org/2000/svg" xml:space="preserve" xmlns:xlink="http://www.w3.org/1999/xlink" width="105" height="39.714" viewBox="0 0 105 39.714">
<desc></desc>
<rect x="0" y="0" width="105" height="39.714" style="fill:#ffffff;" />
<line fill="none" style="stroke:#000000; stroke-width:1;" x1="10.5" y1="0" x2="10.5" y2="35"/>
<line fill="none" style="stroke:#000000; stroke-width:1;" x1="12.5" y1="0" x2="12.5" y2="35"/>
<line fill="none" style="stroke:#000000; stroke-width:1;" x1="14.5" y1="0" x2="14.5" y2="30"/>
<line fill="none" style="stroke:#000000; stroke-width:4;" x1="18" y1="0" x2="18" y2="30"/>
<line fill="none" style="stroke:#000000; stroke-width:2;" x1="22" y1="0" x2="22" y2="30"/>
<line fill="none" style="stroke:#000000; stroke-width:2;" x1="26" y1="0" x2="26" y2="30"/>
<line fill="none" style="stroke:#000000; stroke-width:3;" x1="29.5" y1="0" x2="29.5" y2="30"/>
<line fill="none" style="stroke:#000000; stroke-width:2;" x1="33" y1="0" x2="33" y2="30"/>
<line fill="none" style="stroke:#000000; stroke-width:3;" x1="37.5" y1="0" x2="37.5" y2="30"/>
<line fill="none" style="stroke:#000000; stroke-width:1;" x1="40.5" y1="0" x2="40.5" y2="30"/>
<line fill="none" style="stroke:#000000; stroke-width:2;" x1="45" y1="0" x2="45" y2="30"/>
<line fill="none" style="stroke:#000000; stroke-width:1;" x1="47.5" y1="0" x2="47.5" y2="30"/>
<line fill="none" style="stroke:#000000; stroke-width:1;" x1="49.5" y1="0" x2="49.5" y2="30"/>
<line fill="none" style="stroke:#000000; stroke-width:3;" x1="53.5" y1="0" x2="53.5" y2="30"/>
<line fill="none" style="stroke:#000000; stroke-width:1;" x1="56.5" y1="0" x2="56.5" y2="35"/>
<line fill="none" style="stroke:#000000; stroke-width:1;" x1="58.5" y1="0" x2="58.5" y2="35"/>
<line fill="none" style="stroke:#000000; stroke-width:3;" x1="61.5" y1="0" x2="61.5" y2="30"/>
<line fill="none" style="stroke:#000000; stroke-width:1;" x1="65.5" y1="0" x2="65.5" y2="30"/>
<line fill="none" style="stroke:#000000; stroke-width:1;" x1="67.5" y1="0" x2="67.5" y2="30"/>
<line fill="none" style="stroke:#000000; stroke-width:1;" x1="72.5" y1="0" x2="72.5" y2="30"/>
<line fill="none" style="stroke:#000000; stroke-width:1;" x1="74.5" y1="0" x2="74.5" y2="30"/>
<line fill="none" style="stroke:#000000; stroke-width:1;" x1="79.5" y1="0" x2="79.5" y2="30"/>
<line fill="none" style="stroke:#000000; stroke-width:1;" x1="81.5" y1="0" x2="81.5" y2="30"/>
<line fill="none" style="stroke:#000000; stroke-width:3;" x1="85.5" y1="0" x2="85.5" y2="30"/>
<line fill="none" style="stroke:#000000; stroke-width:1;" x1="88.5" y1="0" x2="88.5" y2="30"/>
<line fill="none" style="stroke:#000000; stroke-width:3;" x1="92.5" y1="0" x2="92.5" y2="30"/>
<line fill="none" style="stroke:#000000; stroke-width:1;" x1="95.5" y1="0" x2="95.5" y2="30"/>
<line fill="none" style="stroke:#000000; stroke-width:1;" x1="99.5" y1="0" x2="99.5" y2="30"/>
<line fill="none" style="stroke:#000000; stroke-width:1;" x1="102.5" y1="0" x2="102.5" y2="35"/>
<line fill="none" style="stroke:#000000; stroke-width:1;" x1="104.5" y1="0" x2="104.5" y2="35"/>
<text x="5" y="37.763" text-anchor="middle" style="font-family: Tahoma; font-size: 9px; stroke: none; fill:#000000;">7</text>
<text x="33.75" y="37.763" text-anchor="middle" style="font-family: Tahoma; font-size: 9px; stroke: none; fill:#000000;">617400</text>
<text x="81.25" y="37.763" text-anchor="middle" style="font-family: Tahoma; font-size: 9px; stroke: none; fill:#000000;">033557</text>
</svg>