<?xml version="1.0" encoding="utf-8"?>
<!DOCTYPE svg PUBLIC "-//W3C//DTD SVG 20010904//EN" "http://www.w3.org/TR/2001/REC-SVG-20010904/DTD/svg10.dtd">
<svg xmlns="http://www.w3.org/2000/svg" xml:space="preserve" xmlns:xlink="http://www.w3.org/1999/xlink" width="105" height="39.714" viewBox="0 0 105 39.714">
<desc></desc>
<rect x="0" y="0" width="105" height="39.714" style="fill:#ffffff;" />
<line fill="none" style="stroke:#000000; stroke-width:1;" x1="10.5" y1="0" x2="10.5" y2="35"/>
<line fill="none" style="stroke:#000000; stroke-width:1;" x1="12.5" y1="0" x2="12.5" y2="35"/>
<line fill="none" style="stroke:#000000; stroke-width:2;" x1="17" y1="0" x2="17" y2="30"/>
<line fill="none" style="stroke:#000000; stroke-width:1;" x1="19.5" y1="0" x2="19.5" y2="30"/>
<line fill="none" style="stroke:#000000; stroke-width:2;" x1="24" y1="0" x2="24" y2="30"/>
<line fill="none" style="stroke:#000000; stroke-width:1;" x1="26.5" y1="0" x2="26.5" y2="30"/>
<line fill="none" style="stroke:#000000; stroke-width:2;" x1="31" y1="0" x2="31" y2="30"/>
<line fill="none" style="stroke:#000000; stroke-width:1;" x1="33.5" y1="0" x2="33.5" y2="30"/>
<line fill="none" style="stroke:#000000; stroke-width:2;" x1="36" y1="0" x2="36" y2="30"/>
<line fill="none" style="stroke:#000000; stroke-width:1;" x1="40.5" y1="0" x2="40.5" y2="30"/>
<line fill="none" style="stroke:#000000; stroke-width:1;" x1="42.5" y1="0" x2="42.5" y2="30"/>
<line fill="none" style="stroke:#000000; stroke-width:2;" x1="47" y1="0" x2="47" y2="30"/>
<line fill="none" style="stroke:#000000; stroke-width:1;" x1="49.5" y1="0" x2="49.5" y2="30"/>
<line fill="none" style="stroke:#000000; stroke-width:2;" x1="54" y1="0" x2="54" y2="30"/>
<line fill="none" style="stroke:#000000; stroke-width:1;" x1="56.5" y1="0" x2="56.5" y2="35"/>
<line fill="none" style="stroke:#000000; stroke-width:1;" x1="58.5" y1="0" x2="58.5" y2="35"/>
<line fill="none" style="stroke:#000000; stroke-width:3;" x1="61.5" y1="0" x2="61.5" y2="30"/>
<line fill="none" style="stroke:#000000; stroke-width:1;" x1="64.5" y1="0" x2="64.5" y2="30"/>
<line fill="none" style="stroke:#000000; stroke-width:2;" x1="68" y1="0" x2="68" y2="30"/>
<line fill="none" style="stroke:#000000; stroke-width:2;" x1="72" y1="0" x2="72" y2="30"/>
<line fill="none" style="stroke:#000000; stroke-width:3;" x1="75.5" y1="0" x2="75.5" y2="30"/>
<line fill="none" style="stroke:#000000; stroke-width:1;" x1="79.5" y1="0" x2="79.5" y2="30"/>
<line fill="none" style="stroke:#000000; stroke-width:2;" x1="82" y1="0" x2="82" y2="30"/>
<line fill="none" style="stroke:#000000; stroke-width:2;" x1="86" y1="0" x2="86" y2="30"/>
<line fill="none" style="stroke:#000000; stroke-width:1;" x1="88.5" y1="0" x2="88.5" y2="30"/>
<line fill="none" style="stroke:#000000; stroke-width:3;" x1="91.5" y1="0" x2="91.5" y2="30"/>
<line fill="none" style="stroke:#000000; stroke-width:1;" x1="95.5" y1="0" x2="95.5" y2="30"/>
<line fill="none" style="stroke:#000000; stroke-width:1;" x1="98.5" y1="0" x2="98.5" y2="30"/>
<line fill="none" style="stroke:#000000; stroke-width:1;" x1="102.5" y1="0" x2="102.5" y2="35"/>
<line fill="none" style="stroke:#000000; stroke-width:1;" x1="104.5" y1="0" x2="104.5" y2="35"/>
<text x="5" y="37.763" text-anchor="middle" style="font-family: Tahoma; font-size: 9px; stroke: none; fill:#000000;">0</text>
<text x="33.75" y="37.763" text-anchor="middle" style="font-family: Tahoma; font-size: 9px; stroke: none; fill:#000000;">000544</text>
<text x="81.25" y="37.763" text-anchor="middle" style="font-family: Tahoma; font-size: 9px; stroke: none; fill:#000000;">910148</text>
</svg>